<?xml version="1.0" encoding="utf-8" standalone="no"?>
<!DOCTYPE svg PUBLIC "-//W3C//DTD SVG 1.1//EN"
  "http://www.w3.org/Graphics/SVG/1.1/DTD/svg11.dtd">
<!-- Created with matplotlib (https://matplotlib.org/) -->
<svg height="396pt" version="1.1" viewBox="0 0 576 396" width="576pt" xmlns="http://www.w3.org/2000/svg" xmlns:xlink="http://www.w3.org/1999/xlink">
 <defs>
  <style type="text/css">
*{stroke-linecap:butt;stroke-linejoin:round;}
  </style>
 </defs>
 <g id="figure_1">
  <g id="patch_1">
   <path d="M 0 396 
L 576 396 
L 576 0 
L 0 0 
z
" style="fill:#ffffff;"/>
  </g>
  <g id="axes_1">
   <g id="patch_2">
    <path d="M 72 346.5 
L 518.4 346.5 
L 518.4 47.52 
L 72 47.52 
z
" style="fill:#eaeaf2;"/>
   </g>
   <g id="matplotlib.axis_1">
    <g id="xtick_1">
     <g id="line2d_1">
      <path clip-path="url(#pf8b75a7d96)" d="M 106.338462 346.5 
L 106.338462 47.52 
" style="fill:none;stroke:#ffffff;stroke-linecap:round;"/>
     </g>
     <g id="line2d_2"/>
     <g id="text_1">
      <!-- $100$ -->
      <defs>
       <path d="M 26.59375 63.40625 
C 26.59375 65.5 26.5 65.5 25.09375 65.5 
C 21.203125 61.1875 15.296875 59.796875 9.703125 59.796875 
C 9.40625 59.796875 8.90625 59.796875 8.796875 59.5 
C 8.703125 59.296875 8.703125 59.09375 8.703125 57 
C 11.796875 57 17 57.59375 21 59.984375 
L 21 7.203125 
C 21 3.6875 20.796875 2.5 12.203125 2.5 
L 9.203125 2.5 
L 9.203125 0 
C 14 0 19 0 23.796875 0 
C 28.59375 0 33.59375 0 38.40625 0 
L 38.40625 2.5 
L 35.40625 2.5 
C 26.796875 2.5 26.59375 3.59375 26.59375 7.15625 
z
" id="CMR17-49"/>
       <path d="M 42 31.640625 
C 42 37.75 41.90625 48.125 37.703125 56.109375 
C 34 63.109375 28.09375 65.59375 22.90625 65.59375 
C 18.09375 65.59375 12 63.40625 8.203125 56.203125 
C 4.203125 48.71875 3.796875 39.4375 3.796875 31.640625 
C 3.796875 25.953125 3.90625 17.28125 7 9.671875 
C 11.296875 -0.609375 19 -2 22.90625 -2 
C 27.5 -2 34.5 -0.109375 38.59375 9.375 
C 41.59375 16.28125 42 24.359375 42 31.640625 
z
M 22.90625 -0.40625 
C 16.5 -0.40625 12.703125 5.078125 11.296875 12.6875 
C 10.203125 18.5625 10.203125 27.15625 10.203125 32.75 
C 10.203125 40.4375 10.203125 46.828125 11.5 52.921875 
C 13.40625 61.390625 19 64 22.90625 64 
C 27 64 32.296875 61.296875 34.203125 53.125 
C 35.5 47.4375 35.59375 40.734375 35.59375 32.75 
C 35.59375 26.25 35.59375 18.265625 34.40625 12.375 
C 32.296875 1.484375 26.40625 -0.40625 22.90625 -0.40625 
z
" id="CMR17-48"/>
      </defs>
      <g style="fill:#262626;" transform="translate(95.364105 363.877725)scale(0.15 -0.15)">
       <use transform="scale(0.996264)" xlink:href="#CMR17-49"/>
       <use transform="translate(45.690477 0)scale(0.996264)" xlink:href="#CMR17-48"/>
       <use transform="translate(91.380954 0)scale(0.996264)" xlink:href="#CMR17-48"/>
      </g>
     </g>
    </g>
    <g id="xtick_2">
     <g id="line2d_3">
      <path clip-path="url(#pf8b75a7d96)" d="M 175.015385 346.5 
L 175.015385 47.52 
" style="fill:none;stroke:#ffffff;stroke-linecap:round;"/>
     </g>
     <g id="line2d_4"/>
     <g id="text_2">
      <!-- $150$ -->
      <defs>
       <path d="M 11.40625 57.6875 
C 12.40625 57.28125 16.5 56 20.703125 56 
C 30 56 35.09375 61.109375 38 64.0625 
C 38 64.953125 38 65.5 37.40625 65.5 
C 37.296875 65.5 37.09375 65.5 36.296875 65.046875 
C 32.796875 63.40625 28.703125 62.078125 23.703125 62.078125 
C 20.703125 62.078125 16.203125 62.484375 11.296875 64.671875 
C 10.203125 65.171875 10 65.171875 9.90625 65.171875 
C 9.40625 65.171875 9.296875 65.0625 9.296875 63.078125 
L 9.296875 34.421875 
C 9.296875 32.640625 9.296875 32.140625 10.296875 32.140625 
C 10.796875 32.140625 11 32.34375 11.5 33.03125 
C 14.703125 37.515625 19.09375 39.40625 24.09375 39.40625 
C 27.59375 39.40625 35.09375 37.21875 35.09375 20.140625 
C 35.09375 16.953125 35.09375 11.171875 32.09375 6.578125 
C 29.59375 2.484375 25.703125 0.390625 21.40625 0.390625 
C 14.796875 0.390625 8.09375 5 6.296875 12.71875 
C 6.703125 12.609375 7.5 12.421875 7.90625 12.421875 
C 9.203125 12.421875 11.703125 13.125 11.703125 16.21875 
C 11.703125 18.90625 9.796875 20 7.90625 20 
C 5.59375 20 4.09375 18.59375 4.09375 15.796875 
C 4.09375 7.09375 11 -2 21.59375 -2 
C 31.90625 -2 41.703125 6.875 41.703125 19.75 
C 41.703125 31.71875 33.90625 41 24.203125 41 
C 19.09375 41 14.796875 39.109375 11.40625 35.53125 
z
" id="CMR17-53"/>
      </defs>
      <g style="fill:#262626;" transform="translate(164.041028 363.877725)scale(0.15 -0.15)">
       <use transform="scale(0.996264)" xlink:href="#CMR17-49"/>
       <use transform="translate(45.690477 0)scale(0.996264)" xlink:href="#CMR17-53"/>
       <use transform="translate(91.380954 0)scale(0.996264)" xlink:href="#CMR17-48"/>
      </g>
     </g>
    </g>
    <g id="xtick_3">
     <g id="line2d_5">
      <path clip-path="url(#pf8b75a7d96)" d="M 243.692308 346.5 
L 243.692308 47.52 
" style="fill:none;stroke:#ffffff;stroke-linecap:round;"/>
     </g>
     <g id="line2d_6"/>
     <g id="text_3">
      <!-- $200$ -->
      <defs>
       <path d="M 41.703125 15.453125 
L 39.90625 15.453125 
C 38.90625 8.375 38.09375 7.171875 37.703125 6.5625 
C 37.203125 5.765625 30 5.765625 28.59375 5.765625 
L 9.40625 5.765625 
C 13 9.671875 20 16.75 28.5 24.953125 
C 34.59375 30.734375 41.703125 37.53125 41.703125 47.421875 
C 41.703125 59.21875 32.296875 66 21.796875 66 
C 10.796875 66 4.09375 56.3125 4.09375 47.34375 
C 4.09375 43.4375 7 42.9375 8.203125 42.9375 
C 9.203125 42.9375 12.203125 43.546875 12.203125 47.03125 
C 12.203125 50.109375 9.59375 51 8.203125 51 
C 7.59375 51 7 50.90625 6.59375 50.703125 
C 8.5 59.21875 14.296875 63.40625 20.40625 63.40625 
C 29.09375 63.40625 34.796875 56.515625 34.796875 47.421875 
C 34.796875 38.734375 29.703125 31.25 24 24.75 
L 4.09375 2.28125 
L 4.09375 0 
L 39.296875 0 
z
" id="CMR17-50"/>
      </defs>
      <g style="fill:#262626;" transform="translate(232.717951 363.877725)scale(0.15 -0.15)">
       <use transform="scale(0.996264)" xlink:href="#CMR17-50"/>
       <use transform="translate(45.690477 0)scale(0.996264)" xlink:href="#CMR17-48"/>
       <use transform="translate(91.380954 0)scale(0.996264)" xlink:href="#CMR17-48"/>
      </g>
     </g>
    </g>
    <g id="xtick_4">
     <g id="line2d_7">
      <path clip-path="url(#pf8b75a7d96)" d="M 312.369231 346.5 
L 312.369231 47.52 
" style="fill:none;stroke:#ffffff;stroke-linecap:round;"/>
     </g>
     <g id="line2d_8"/>
     <g id="text_4">
      <!-- $250$ -->
      <g style="fill:#262626;" transform="translate(301.394874 363.877725)scale(0.15 -0.15)">
       <use transform="scale(0.996264)" xlink:href="#CMR17-50"/>
       <use transform="translate(45.690477 0)scale(0.996264)" xlink:href="#CMR17-53"/>
       <use transform="translate(91.380954 0)scale(0.996264)" xlink:href="#CMR17-48"/>
      </g>
     </g>
    </g>
    <g id="xtick_5">
     <g id="line2d_9">
      <path clip-path="url(#pf8b75a7d96)" d="M 381.046154 346.5 
L 381.046154 47.52 
" style="fill:none;stroke:#ffffff;stroke-linecap:round;"/>
     </g>
     <g id="line2d_10"/>
     <g id="text_5">
      <!-- $300$ -->
      <defs>
       <path d="M 22.09375 33.703125 
C 31 33.703125 34.90625 25.96875 34.90625 17.03125 
C 34.90625 5 28.5 0.390625 22.703125 0.390625 
C 17.40625 0.390625 8.796875 3.03125 6.09375 10.828125 
C 6.59375 10.625 7.09375 10.625 7.59375 10.625 
C 10 10.625 11.796875 12.21875 11.796875 14.8125 
C 11.796875 17.703125 9.59375 19 7.59375 19 
C 5.90625 19 3.296875 18.203125 3.296875 14.46875 
C 3.296875 5.234375 12.296875 -2 22.90625 -2 
C 34 -2 42.5 6.71875 42.5 16.953125 
C 42.5 26.671875 34.5 33.703125 25 34.796875 
C 32.59375 36.375 39.90625 43.0625 39.90625 52.015625 
C 39.90625 59.6875 32 65.296875 23 65.296875 
C 13.90625 65.296875 5.90625 59.828125 5.90625 52.015625 
C 5.90625 48.59375 8.5 48 9.796875 48 
C 11.90625 48 13.703125 49.296875 13.703125 51.890625 
C 13.703125 54.46875 11.90625 55.765625 9.796875 55.765625 
C 9.40625 55.765625 8.90625 55.765625 8.5 55.578125 
C 11.40625 61.859375 19.296875 63 22.796875 63 
C 26.296875 63 32.90625 61.328125 32.90625 51.875 
C 32.90625 49.109375 32.5 44.1875 29.09375 39.84375 
C 26.09375 36 22.703125 36 19.40625 35.6875 
C 18.90625 35.6875 16.59375 35.453125 16.203125 35.453125 
C 15.5 35.359375 15.09375 35.265625 15.09375 34.5 
C 15.09375 33.796875 15.203125 33.703125 17.203125 33.703125 
z
" id="CMR17-51"/>
      </defs>
      <g style="fill:#262626;" transform="translate(370.071797 363.877725)scale(0.15 -0.15)">
       <use transform="scale(0.996264)" xlink:href="#CMR17-51"/>
       <use transform="translate(45.690477 0)scale(0.996264)" xlink:href="#CMR17-48"/>
       <use transform="translate(91.380954 0)scale(0.996264)" xlink:href="#CMR17-48"/>
      </g>
     </g>
    </g>
    <g id="xtick_6">
     <g id="line2d_11">
      <path clip-path="url(#pf8b75a7d96)" d="M 449.723077 346.5 
L 449.723077 47.52 
" style="fill:none;stroke:#ffffff;stroke-linecap:round;"/>
     </g>
     <g id="line2d_12"/>
     <g id="text_6">
      <!-- $350$ -->
      <g style="fill:#262626;" transform="translate(438.74872 363.877725)scale(0.15 -0.15)">
       <use transform="scale(0.996264)" xlink:href="#CMR17-51"/>
       <use transform="translate(45.690477 0)scale(0.996264)" xlink:href="#CMR17-53"/>
       <use transform="translate(91.380954 0)scale(0.996264)" xlink:href="#CMR17-48"/>
      </g>
     </g>
    </g>
    <g id="xtick_7">
     <g id="line2d_13">
      <path clip-path="url(#pf8b75a7d96)" d="M 518.4 346.5 
L 518.4 47.52 
" style="fill:none;stroke:#ffffff;stroke-linecap:round;"/>
     </g>
     <g id="line2d_14"/>
     <g id="text_7">
      <!-- $400$ -->
      <defs>
       <path d="M 33.59375 64.40625 
C 33.59375 66.5 33.5 66.5 31.703125 66.5 
L 2 19.59375 
L 2 17 
L 27.796875 17 
L 27.796875 7.140625 
C 27.796875 3.5 27.59375 2.5 20.59375 2.5 
L 18.703125 2.5 
L 18.703125 0 
C 21.90625 0 27.296875 0 30.703125 0 
C 34.09375 0 39.5 0 42.703125 0 
L 42.703125 2.5 
L 40.796875 2.5 
C 33.796875 2.5 33.59375 3.5 33.59375 7.140625 
L 33.59375 17 
L 43.796875 17 
L 43.796875 19.59375 
L 33.59375 19.59375 
z
M 28.09375 57.859375 
L 28.09375 19.59375 
L 4 19.59375 
z
" id="CMR17-52"/>
      </defs>
      <g style="fill:#262626;" transform="translate(507.425643 363.877725)scale(0.15 -0.15)">
       <use transform="scale(0.996264)" xlink:href="#CMR17-52"/>
       <use transform="translate(45.690477 0)scale(0.996264)" xlink:href="#CMR17-48"/>
       <use transform="translate(91.380954 0)scale(0.996264)" xlink:href="#CMR17-48"/>
      </g>
     </g>
    </g>
    <g id="text_8">
     <!-- Execution time (ms) -->
     <defs>
      <path d="M 30.59375 6.765625 
C 22.59375 6.765625 19 6.765625 17.203125 6.765625 
L 17.203125 32.921875 
L 48.203125 32.921875 
L 48.203125 39 
L 17.203125 39 
L 17.203125 62.640625 
L 30.09375 62.640625 
C 31.296875 62.640625 32.5 62.640625 33.703125 62.640625 
L 50.796875 62.640625 
L 50.796875 69 
L 8.796875 69 
L 8.796875 0 
L 52.09375 0 
L 52.09375 6.765625 
z
" id="CMSS17-69"/>
      <path d="M 24.796875 22.09375 
L 41.5 42.796875 
L 32.796875 42.796875 
L 21.296875 27.765625 
L 9.40625 42.796875 
L 0.5 42.796875 
L 17.796875 22.09375 
L 0 0 
L 8.796875 0 
L 21.296875 17.515625 
L 34.296875 0 
L 43.09375 0 
z
" id="CMSS17-120"/>
      <path d="M 39.09375 21.515625 
C 39.09375 24.84375 38.90625 31.296875 35.703125 36.640625 
C 32.203125 42.390625 26.5 44 22.203125 44 
C 11.796875 44 3 34.1875 3 21.484375 
C 3 9.09375 12.09375 -1 23.59375 -1 
C 28.09375 -1 33.59375 0.296875 38.59375 3.875 
C 38.59375 4.28125 38.40625 6.46875 38.296875 6.5625 
C 38.296875 6.765625 38 9.84375 38 10.25 
C 33.203125 6.359375 27.703125 5.078125 23.703125 5.078125 
C 17.296875 5.078125 10.40625 10.421875 10.09375 21.515625 
z
M 10.90625 27 
C 12.203125 32.5625 16.59375 37.828125 22.203125 37.828125 
C 23.703125 37.828125 30.703125 37.828125 32.5 27 
z
" id="CMSS17-101"/>
      <path d="M 38.5 39.703125 
C 38.5 40.390625 33.90625 42.40625 32.703125 42.796875 
C 29.40625 44 25.203125 44 24.09375 44 
C 11.09375 44 3.296875 32.703125 3.296875 21.296875 
C 3.296875 9.296875 12 -1 23.703125 -1 
C 30.40625 -1 35.203125 1.1875 39.09375 3.78125 
L 38.5 10.375 
C 34.203125 7.078125 29.203125 5.265625 23.796875 5.265625 
C 16 5.265625 10.90625 12.09375 10.90625 21.390625 
C 10.90625 28.609375 14.203125 37.71875 24.203125 37.71875 
C 29.703125 37.71875 32.796875 36.609375 37.40625 33.515625 
z
" id="CMSS17-99"/>
      <path d="M 40.90625 42.796875 
L 33.296875 42.796875 
L 33.296875 15.1875 
C 33.296875 7.78125 27.90625 4.78125 22.203125 4.78125 
C 15.59375 4.78125 15 6.984375 15 11.078125 
L 15 42.796875 
L 7.40625 42.796875 
L 7.40625 10.59375 
C 7.40625 2.796875 10.09375 -1 17 -1 
C 20.40625 -1 28.09375 -0.203125 33.5 4.78125 
L 33.5 0 
L 40.90625 0 
z
" id="CMSS17-117"/>
      <path d="M 16.703125 37 
L 29.703125 37 
L 29.703125 42.765625 
L 16.703125 42.765625 
L 16.703125 55 
L 9.59375 55 
L 9.59375 42.765625 
L 1.703125 42.765625 
L 1.703125 37 
L 9.40625 37 
L 9.40625 11.703125 
C 9.40625 6 10.703125 -1 17.296875 -1 
C 22.296875 -1 26.90625 0.390625 31.296875 2.6875 
L 29.703125 8.5625 
C 27.296875 6.46875 24.40625 5.265625 21.296875 5.265625 
C 16.90625 5.265625 16.703125 10.875 16.703125 13.375 
z
" id="CMSS17-116"/>
      <path d="M 15.296875 65.359375 
L 6.90625 65.359375 
L 6.90625 57 
L 15.296875 57 
z
M 14.796875 42.796875 
L 7.40625 42.796875 
L 7.40625 0 
L 14.796875 0 
z
" id="CMSS17-105"/>
      <path d="M 44.203125 21.1875 
C 44.203125 34 34.703125 44 23.5 44 
C 12 44 2.703125 33.703125 2.703125 21.1875 
C 2.703125 8.5 12.296875 -1 23.40625 -1 
C 34.796875 -1 44.203125 8.796875 44.203125 21.1875 
z
M 23.5 5.265625 
C 16.40625 5.265625 10.296875 11.078125 10.296875 22 
C 10.296875 33.609375 17.40625 37.921875 23.40625 37.921875 
C 29.90625 37.921875 36.59375 33.21875 36.59375 22 
C 36.59375 10.671875 30.09375 5.265625 23.5 5.265625 
z
" id="CMSS17-111"/>
      <path d="M 40.90625 29.328125 
C 40.90625 35.671875 39.40625 44 28.09375 44 
C 21.703125 44 17.5 40.71875 14.703125 37.328125 
L 14.703125 43.09375 
L 7.40625 43.09375 
L 7.40625 0 
L 15 0 
L 15 24.359375 
C 15 30.6875 17.40625 37.9375 24.203125 37.9375 
C 33 37.9375 33.296875 32 33.296875 28.578125 
L 33.296875 0 
L 40.90625 0 
z
" id="CMSS17-110"/>
      <path d="M 67 29.328125 
C 67 36.0625 65.296875 44 54.09375 44 
C 46.59375 44 42.09375 39.3125 40.09375 36.421875 
C 38.296875 41.71875 34.09375 44 28.09375 44 
C 21.296875 44 17 40.125 14.703125 37.328125 
L 14.703125 43.09375 
L 7.40625 43.09375 
L 7.40625 0 
L 15 0 
L 15 24.359375 
C 15 30.296875 17.203125 37.9375 24.296875 37.9375 
C 33.40625 37.9375 33.40625 31.5 33.40625 28.578125 
L 33.40625 0 
L 41 0 
L 41 24.359375 
C 41 30.296875 43.203125 37.9375 50.296875 37.9375 
C 59.40625 37.9375 59.40625 31.5 59.40625 28.578125 
L 59.40625 0 
L 67 0 
z
" id="CMSS17-109"/>
      <path d="M 25.203125 74.5 
C 19.796875 69.015625 7.40625 56.265625 7.40625 24.8125 
C 7.40625 -6.765625 19.796875 -19.421875 25.203125 -25 
L 31.296875 -25 
C 19 -12.25 15 5.578125 15 24.703125 
C 15 43.71875 18.796875 61.65625 31.296875 74.5 
z
" id="CMSS17-40"/>
      <path d="M 32.203125 41.046875 
C 26.296875 43.859375 21.703125 43.859375 18.703125 43.859375 
C 11.59375 43.859375 3.09375 41.375 3.09375 31.296875 
C 3.09375 21.234375 14.09375 19.03125 17.09375 18.421875 
C 21.703125 17.53125 26.796875 16.53125 26.796875 11.5625 
C 26.796875 5.265625 19.59375 5.265625 18.296875 5.265625 
C 14.296875 5.265625 8.796875 6.359375 3.796875 9.96875 
L 2.59375 3.28125 
C 8.296875 0 13.796875 -1 18.40625 -1 
C 30.703125 -1 33.796875 6.5 33.796875 12.203125 
C 33.796875 17.09375 31 20.390625 29.09375 21.890625 
C 25.796875 24.5 24.59375 24.796875 16.40625 26.5 
C 15 26.703125 10.09375 27.796875 10.09375 32.28125 
C 10.09375 38 16.40625 38 17.796875 38 
C 24.296875 38 28.296875 35.984375 31 34.5 
z
" id="CMSS17-115"/>
      <path d="M 11.296875 -25 
C 16.703125 -19.515625 29.09375 -6.765625 29.09375 24.703125 
C 29.09375 56.265625 16.703125 68.921875 11.296875 74.5 
L 5.203125 74.5 
C 17.5 61.75 21.5 43.921875 21.5 24.8125 
C 21.5 5.78125 17.703125 -12.15625 5.203125 -25 
z
" id="CMSS17-41"/>
     </defs>
     <g style="fill:#262626;" transform="translate(223.309418 395.216889)scale(0.18 -0.18)">
      <use transform="scale(0.996264)" xlink:href="#CMSS17-69"/>
      <use transform="translate(55.892013 0)scale(0.996264)" xlink:href="#CMSS17-120"/>
      <use transform="translate(98.892155 0)scale(0.996264)" xlink:href="#CMSS17-101"/>
      <use transform="translate(140.530977 0)scale(0.996264)" xlink:href="#CMSS17-99"/>
      <use transform="translate(182.169799 0)scale(0.996264)" xlink:href="#CMSS17-117"/>
      <use transform="translate(230.374742 0)scale(0.996264)" xlink:href="#CMSS17-116"/>
      <use transform="translate(264.206309 0)scale(0.996264)" xlink:href="#CMSS17-105"/>
      <use transform="translate(286.387032 0)scale(0.996264)" xlink:href="#CMSS17-111"/>
      <use transform="translate(333.230655 0)scale(0.996264)" xlink:href="#CMSS17-110"/>
      <use transform="translate(412.664711 0)scale(0.996264)" xlink:href="#CMSS17-116"/>
      <use transform="translate(446.496278 0)scale(0.996264)" xlink:href="#CMSS17-105"/>
      <use transform="translate(468.677001 0)scale(0.996264)" xlink:href="#CMSS17-109"/>
      <use transform="translate(542.906255 0)scale(0.996264)" xlink:href="#CMSS17-101"/>
      <use transform="translate(615.77419 0)scale(0.996264)" xlink:href="#CMSS17-40"/>
      <use transform="translate(652.208104 0)scale(0.996264)" xlink:href="#CMSS17-109"/>
      <use transform="translate(726.437359 0)scale(0.996264)" xlink:href="#CMSS17-115"/>
      <use transform="translate(762.350901 0)scale(0.996264)" xlink:href="#CMSS17-41"/>
     </g>
    </g>
   </g>
   <g id="matplotlib.axis_2">
    <g id="ytick_1">
     <g id="line2d_15">
      <path clip-path="url(#pf8b75a7d96)" d="M 72 332.992389 
L 518.4 332.992389 
" style="fill:none;stroke:#ffffff;stroke-linecap:round;"/>
     </g>
     <g id="line2d_16"/>
     <g id="text_9">
      <!-- $0.0$ -->
      <defs>
       <path d="M 18.40625 4.796875 
C 18.40625 7.6875 16 9.671875 13.59375 9.671875 
C 10.703125 9.671875 8.703125 7.28125 8.703125 4.890625 
C 8.703125 2 11.09375 0 13.5 0 
C 16.40625 0 18.40625 2.390625 18.40625 4.796875 
z
" id="CMMI12-58"/>
      </defs>
      <g style="fill:#262626;" transform="translate(46.302948 338.181251)scale(0.15 -0.15)">
       <use transform="scale(0.996264)" xlink:href="#CMR17-48"/>
       <use transform="translate(45.690477 0)scale(0.996264)" xlink:href="#CMMI12-58"/>
       <use transform="translate(72.787654 0)scale(0.996264)" xlink:href="#CMR17-48"/>
      </g>
     </g>
    </g>
    <g id="ytick_2">
     <g id="line2d_17">
      <path clip-path="url(#pf8b75a7d96)" d="M 72 278.615911 
L 518.4 278.615911 
" style="fill:none;stroke:#ffffff;stroke-linecap:round;"/>
     </g>
     <g id="line2d_18"/>
     <g id="text_10">
      <!-- $0.2$ -->
      <g style="fill:#262626;" transform="translate(46.302948 283.804773)scale(0.15 -0.15)">
       <use transform="scale(0.996264)" xlink:href="#CMR17-48"/>
       <use transform="translate(45.690477 0)scale(0.996264)" xlink:href="#CMMI12-58"/>
       <use transform="translate(72.787654 0)scale(0.996264)" xlink:href="#CMR17-50"/>
      </g>
     </g>
    </g>
    <g id="ytick_3">
     <g id="line2d_19">
      <path clip-path="url(#pf8b75a7d96)" d="M 72 224.239433 
L 518.4 224.239433 
" style="fill:none;stroke:#ffffff;stroke-linecap:round;"/>
     </g>
     <g id="line2d_20"/>
     <g id="text_11">
      <!-- $0.4$ -->
      <g style="fill:#262626;" transform="translate(46.302948 229.428296)scale(0.15 -0.15)">
       <use transform="scale(0.996264)" xlink:href="#CMR17-48"/>
       <use transform="translate(45.690477 0)scale(0.996264)" xlink:href="#CMMI12-58"/>
       <use transform="translate(72.787654 0)scale(0.996264)" xlink:href="#CMR17-52"/>
      </g>
     </g>
    </g>
    <g id="ytick_4">
     <g id="line2d_21">
      <path clip-path="url(#pf8b75a7d96)" d="M 72 169.862955 
L 518.4 169.862955 
" style="fill:none;stroke:#ffffff;stroke-linecap:round;"/>
     </g>
     <g id="line2d_22"/>
     <g id="text_12">
      <!-- $0.6$ -->
      <defs>
       <path d="M 10.59375 34 
C 10.59375 57.65625 21.796875 63 28.296875 63 
C 30.40625 63 35.5 62.640625 37.5 59 
C 35.90625 59 32.90625 59 32.90625 55.515625 
C 32.90625 52.828125 35.09375 51.921875 36.5 51.921875 
C 37.40625 51.921875 40.09375 52.3125 40.09375 55.625 
C 40.09375 61.78125 35.09375 65.296875 28.203125 65.296875 
C 16.296875 65.296875 3.796875 52.96875 3.796875 31 
C 3.796875 3.953125 15.09375 -2 23.09375 -2 
C 32.796875 -2 42 6.671875 42 20.046875 
C 42 32.515625 33.90625 41.59375 23.703125 41.59375 
C 17.59375 41.59375 13.09375 37.609375 10.59375 30.625 
z
M 23.09375 0.390625 
C 10.796875 0.390625 10.796875 18.75 10.796875 22.4375 
C 10.796875 29.625 14.203125 40 23.5 40 
C 25.203125 40 30.09375 40 33.40625 33.125 
C 35.203125 29.21875 35.203125 25.140625 35.203125 20.140625 
C 35.203125 14.75 35.203125 10.78125 33.09375 6.78125 
C 30.90625 2.671875 27.703125 0.390625 23.09375 0.390625 
z
" id="CMR17-54"/>
      </defs>
      <g style="fill:#262626;" transform="translate(46.302948 175.051818)scale(0.15 -0.15)">
       <use transform="scale(0.996264)" xlink:href="#CMR17-48"/>
       <use transform="translate(45.690477 0)scale(0.996264)" xlink:href="#CMMI12-58"/>
       <use transform="translate(72.787654 0)scale(0.996264)" xlink:href="#CMR17-54"/>
      </g>
     </g>
    </g>
    <g id="ytick_5">
     <g id="line2d_23">
      <path clip-path="url(#pf8b75a7d96)" d="M 72 115.486478 
L 518.4 115.486478 
" style="fill:none;stroke:#ffffff;stroke-linecap:round;"/>
     </g>
     <g id="line2d_24"/>
     <g id="text_13">
      <!-- $0.8$ -->
      <defs>
       <path d="M 27.203125 35.375 
C 33.5 38.546875 39.90625 43.328125 39.90625 50.984375 
C 39.90625 60.015625 31.09375 65.296875 23 65.296875 
C 13.90625 65.296875 5.90625 58.734375 5.90625 49.6875 
C 5.90625 47.203125 6.5 42.921875 10.40625 39.140625 
C 11.40625 38.15625 15.59375 35.171875 18.296875 33.28125 
C 13.796875 30.984375 3.296875 25.53125 3.296875 14.59375 
C 3.296875 4.359375 13.09375 -2 22.796875 -2 
C 33.5 -2 42.5 5.65625 42.5 15.78125 
C 42.5 24.84375 36.40625 29.015625 32.40625 31.703125 
z
M 14.09375 44.09375 
C 13.296875 44.59375 9.296875 47.671875 9.296875 52.359375 
C 9.296875 58.421875 15.59375 63 22.796875 63 
C 30.703125 63 36.5 57.4375 36.5 50.96875 
C 36.5 41.703125 26.09375 36.421875 25.59375 36.421875 
C 25.5 36.421875 25.40625 36.421875 24.59375 37.03125 
z
M 32.5 23.734375 
C 34 22.640625 38.796875 19.375 38.796875 13.296875 
C 38.796875 5.953125 31.40625 0.390625 23 0.390625 
C 13.90625 0.390625 7 6.84375 7 14.6875 
C 7 22.546875 13.09375 29.09375 20 32.1875 
z
" id="CMR17-56"/>
      </defs>
      <g style="fill:#262626;" transform="translate(46.302948 120.67534)scale(0.15 -0.15)">
       <use transform="scale(0.996264)" xlink:href="#CMR17-48"/>
       <use transform="translate(45.690477 0)scale(0.996264)" xlink:href="#CMMI12-58"/>
       <use transform="translate(72.787654 0)scale(0.996264)" xlink:href="#CMR17-56"/>
      </g>
     </g>
    </g>
    <g id="ytick_6">
     <g id="line2d_25">
      <path clip-path="url(#pf8b75a7d96)" d="M 72 61.11 
L 518.4 61.11 
" style="fill:none;stroke:#ffffff;stroke-linecap:round;"/>
     </g>
     <g id="line2d_26"/>
     <g id="text_14">
      <!-- $1.0$ -->
      <g style="fill:#262626;" transform="translate(46.302948 66.298862)scale(0.15 -0.15)">
       <use transform="scale(0.996264)" xlink:href="#CMR17-49"/>
       <use transform="translate(45.690477 0)scale(0.996264)" xlink:href="#CMMI12-58"/>
       <use transform="translate(72.787654 0)scale(0.996264)" xlink:href="#CMR17-48"/>
      </g>
     </g>
    </g>
    <g id="text_15">
     <!-- Fraction of the execution traces -->
     <defs>
      <path d="M 45.59375 31 
L 45.59375 37.078125 
L 17.203125 37.078125 
L 17.203125 62 
L 29.40625 62 
C 30.59375 62 31.796875 62 33 62 
L 49.5 62 
L 49.5 68.359375 
L 8.796875 68.359375 
L 8.796875 -0.5 
L 17.203125 -0.5 
L 17.203125 31 
z
" id="CMSS17-70"/>
      <path d="M 14.90625 21.296875 
C 14.90625 30.703125 21.796875 37 30.59375 37 
L 30.59375 43.578125 
C 24.203125 43.578125 18.203125 40.390625 14.59375 35.203125 
L 14.59375 43.09375 
L 7.5 43.09375 
L 7.5 0 
L 14.90625 0 
z
" id="CMSS17-114"/>
      <path d="M 37.59375 27.984375 
C 37.59375 37.375 30.90625 43.875 21.90625 43.875 
C 17.5 43.875 12.703125 43.078125 7.203125 39.890625 
L 7.796875 33.359375 
C 10.296875 35.125 14.59375 38 21.796875 38 
C 26.90625 38 30 34.0625 30 27.84375 
L 30 24 
C 14 24 4 19.34375 4 11.34375 
C 4 7.203125 6.5 -1 14.796875 -1 
C 16.296875 -1 24.40625 -1 30.203125 3.390625 
L 30.203125 -0.296875 
L 37.59375 -0.296875 
z
M 30 12.75 
C 30 10.953125 30 8.5625 27 6.78125 
C 24.40625 5.078125 21.09375 5.078125 19.703125 5.078125 
C 14.703125 5.078125 11.296875 7.984375 11.296875 11.625 
C 11.296875 18.921875 26.90625 18.921875 30 18.921875 
z
" id="CMSS17-97"/>
      <path d="M 16.796875 37 
L 26.90625 37 
L 26.90625 42.765625 
L 16.59375 42.765625 
L 16.59375 55.609375 
C 16.59375 62.71875 22 63.9375 25.09375 63.9375 
C 26.09375 63.9375 28.90625 63.9375 32.5 62.640625 
L 32.5 69.203125 
C 30.203125 69.703125 27.40625 70 25.203125 70 
C 15.90625 70 9.40625 62.390625 9.40625 52.484375 
L 9.40625 42.765625 
L 2.5 42.765625 
L 2.5 37 
L 9.40625 37 
L 9.40625 0 
L 16.796875 0 
z
" id="CMSS17-102"/>
      <path d="M 40.90625 29.546875 
C 40.90625 35.8125 39.40625 44.0625 28.09375 44.0625 
C 21.796875 44.0625 17.703125 40.984375 14.796875 37.609375 
L 14.796875 69.5 
L 7.40625 69.5 
L 7.40625 0.5 
L 15 0.5 
L 15 24.578125 
C 15 30.828125 17.40625 38 24.203125 38 
C 33 38 33.296875 32.125 33.296875 28.734375 
L 33.296875 0.5 
L 40.90625 0.5 
z
" id="CMSS17-104"/>
     </defs>
     <g style="fill:#262626;" transform="translate(27.814884 308.728492)rotate(-90)scale(0.18 -0.18)">
      <use transform="scale(0.996264)" xlink:href="#CMSS17-70"/>
      <use transform="translate(50.687105 0)scale(0.996264)" xlink:href="#CMSS17-114"/>
      <use transform="translate(82.596878 0)scale(0.996264)" xlink:href="#CMSS17-97"/>
      <use transform="translate(127.518799 0)scale(0.996264)" xlink:href="#CMSS17-99"/>
      <use transform="translate(169.157621 0)scale(0.996264)" xlink:href="#CMSS17-116"/>
      <use transform="translate(202.989187 0)scale(0.996264)" xlink:href="#CMSS17-105"/>
      <use transform="translate(225.16991 0)scale(0.996264)" xlink:href="#CMSS17-111"/>
      <use transform="translate(272.013534 0)scale(0.996264)" xlink:href="#CMSS17-110"/>
      <use transform="translate(351.44759 0)scale(0.996264)" xlink:href="#CMSS17-111"/>
      <use transform="translate(398.291213 0)scale(0.996264)" xlink:href="#CMSS17-102"/>
      <use transform="translate(458.146985 0)scale(0.996264)" xlink:href="#CMSS17-116"/>
      <use transform="translate(491.978552 0)scale(0.996264)" xlink:href="#CMSS17-104"/>
      <use transform="translate(540.183495 0)scale(0.996264)" xlink:href="#CMSS17-101"/>
      <use transform="translate(613.051429 0)scale(0.996264)" xlink:href="#CMSS17-101"/>
      <use transform="translate(654.690252 0)scale(0.996264)" xlink:href="#CMSS17-120"/>
      <use transform="translate(697.690393 0)scale(0.996264)" xlink:href="#CMSS17-101"/>
      <use transform="translate(739.329215 0)scale(0.996264)" xlink:href="#CMSS17-99"/>
      <use transform="translate(780.968037 0)scale(0.996264)" xlink:href="#CMSS17-117"/>
      <use transform="translate(829.17298 0)scale(0.996264)" xlink:href="#CMSS17-116"/>
      <use transform="translate(863.004547 0)scale(0.996264)" xlink:href="#CMSS17-105"/>
      <use transform="translate(885.18527 0)scale(0.996264)" xlink:href="#CMSS17-111"/>
      <use transform="translate(932.028894 0)scale(0.996264)" xlink:href="#CMSS17-110"/>
      <use transform="translate(1011.46295 0)scale(0.996264)" xlink:href="#CMSS17-116"/>
      <use transform="translate(1045.294516 0)scale(0.996264)" xlink:href="#CMSS17-114"/>
      <use transform="translate(1077.204289 0)scale(0.996264)" xlink:href="#CMSS17-97"/>
      <use transform="translate(1122.126209 0)scale(0.996264)" xlink:href="#CMSS17-99"/>
      <use transform="translate(1163.765032 0)scale(0.996264)" xlink:href="#CMSS17-101"/>
      <use transform="translate(1205.403854 0)scale(0.996264)" xlink:href="#CMSS17-115"/>
     </g>
    </g>
   </g>
   <g id="line2d_27">
    <path clip-path="url(#pf8b75a7d96)" d="M 86.188652 332.91 
L 100.755028 332.33328 
L 107.430425 331.75656 
L 116.763618 330.273565 
L 117.910523 330.108788 
L 118.69344 329.94401 
L 124.441698 329.284901 
L 124.544714 329.202513 
L 125.74656 329.037736 
L 125.897649 328.872958 
L 125.904517 328.79057 
L 128.33568 328.21385 
L 130.080074 328.049072 
L 130.395988 327.884295 
L 131.893145 327.719518 
L 132.511237 327.472352 
L 132.696665 327.307575 
L 135.622302 327.142798 
L 142.091668 326.318912 
L 142.270228 326.154135 
L 144.701391 325.906969 
L 144.749465 325.82458 
L 145.868898 325.577414 
L 146.693022 325.330249 
L 154.879311 324.012031 
L 154.886178 323.929642 
L 155.456197 323.764865 
L 163.292234 322.85859 
L 164.631434 322.364259 
L 166.107988 322.117093 
L 167.220554 321.622761 
L 167.357908 321.457984 
L 167.756234 321.210818 
L 168.223237 320.798875 
L 169.857748 320.057378 
L 169.898954 319.974989 
L 170.365957 319.810212 
L 170.778018 319.645435 
L 170.791754 319.563046 
L 171.320566 319.398269 
L 171.622745 319.233492 
L 172.323249 318.821549 
L 173.15424 318.409606 
L 173.51136 318.16244 
L 173.758597 317.750497 
L 174.053908 317.58572 
L 174.143188 317.420943 
L 174.781883 316.844222 
L 174.960443 316.514668 
L 175.02912 316.349891 
L 176.320246 315.773171 
L 176.81472 314.866896 
L 177.041354 314.61973 
L 177.425945 314.125399 
L 177.590769 313.631067 
L 178.071508 313.054347 
L 178.098978 312.88957 
L 178.339348 312.724792 
L 178.504172 312.477627 
L 178.77888 312.148072 
L 179.31456 311.324186 
L 179.822769 310.994632 
L 179.843372 310.912243 
L 180.152418 310.665077 
L 180.420258 309.841191 
L 180.667495 309.511637 
L 180.797982 309.182082 
L 181.113895 308.770139 
L 181.409206 308.193419 
L 181.649575 308.028642 
L 181.670178 307.863865 
L 182.109711 307.616699 
L 182.240197 307.369533 
L 182.363815 307.039979 
L 182.720935 306.051316 
L 182.899495 305.474595 
L 182.913231 305.392207 
L 183.091791 305.22743 
L 183.236012 304.733098 
L 183.387102 304.485932 
L 183.400837 304.321155 
L 183.620603 303.909212 
L 183.627471 303.826823 
L 183.826634 303.662046 
L 183.833502 303.579657 
L 184.025797 303.41488 
L 184.115077 303.085326 
L 184.176886 303.002937 
L 184.300505 302.590994 
L 184.451594 302.426217 
L 184.678228 301.437554 
L 184.843052 300.613668 
L 184.987274 299.87217 
L 185.110892 299.213062 
L 185.502351 297.730067 
L 185.735852 296.988569 
L 185.893809 296.247072 
L 185.962486 295.917517 
L 186.161649 294.846466 
L 186.271532 294.5993 
L 186.697329 292.539585 
L 187.1712 291.550921 
L 188.105206 286.525217 
L 188.187618 286.113274 
L 189.162831 280.675626 
L 189.279582 280.346072 
L 189.416935 279.934129 
L 189.959483 278.039191 
L 190.062498 277.792025 
L 190.316603 276.061864 
L 192.067865 268.64689 
L 192.198351 267.740615 
L 192.287631 267.49345 
L 192.500529 266.010455 
L 192.61728 265.598512 
L 192.775237 264.362683 
L 193.345255 262.467745 
L 193.455138 261.56147 
L 193.626831 260.737584 
L 193.729846 259.996087 
L 193.997686 258.842646 
L 195.618462 250.521397 
L 195.687138 250.35662 
L 195.817625 250.109454 
L 195.996185 249.285568 
L 196.161009 248.62646 
L 196.799705 245.413304 
L 196.930191 245.08375 
L 197.294178 243.930309 
L 197.355988 243.435978 
L 197.4384 242.859257 
L 197.520812 242.612092 
L 197.768049 241.870594 
L 197.939742 241.211485 
L 198.077095 240.634765 
L 198.338068 239.72849 
L 198.811938 237.42161 
L 198.935557 237.256832 
L 199.251471 236.103392 
L 199.347618 235.938615 
L 199.704738 234.45562 
L 199.828357 233.961288 
L 199.903902 233.384568 
L 200.988997 229.429915 
L 201.552148 228.111697 
L 201.682634 227.782143 
L 201.806252 227.205423 
L 202.032886 226.381537 
L 202.266388 225.722428 
L 202.383138 225.228096 
L 202.554831 224.816153 
L 202.692185 224.239433 
L 202.802068 223.745102 
L 203.008098 223.415547 
L 203.2416 222.509273 
L 203.50944 221.850164 
L 203.653662 221.273443 
L 204.093194 220.202392 
L 204.381637 219.955226 
L 204.457182 219.378506 
L 204.676948 218.801785 
L 204.683815 218.719397 
L 204.84864 218.55462 
L 205.020332 218.142677 
L 205.446129 216.247739 
L 205.583483 216.000573 
L 205.823852 215.58863 
L 205.981809 214.929521 
L 206.517489 214.352801 
L 206.627372 213.693692 
L 206.936418 213.034583 
L 207.121846 212.540252 
L 208.255015 209.491873 
L 208.351163 209.244707 
L 208.584665 209.07993 
L 208.818166 208.50321 
L 208.921182 208.173656 
L 209.319508 206.443495 
L 209.601083 205.701998 
L 209.807114 205.454832 
L 209.916997 205.207666 
L 210.535089 203.477505 
L 210.56256 203.230339 
L 210.789194 203.065562 
L 210.933415 202.571231 
L 211.372948 200.923459 
L 211.530905 200.346738 
L 212.616 197.957469 
L 212.780825 197.710303 
L 212.808295 197.463137 
L 212.993723 197.215972 
L 213.316505 196.227308 
L 213.515668 196.062531 
L 213.735434 195.650588 
L 213.838449 195.238645 
L 213.948332 194.909091 
L 214.394732 193.838039 
L 214.744985 193.343707 
L 215.012825 192.60221 
L 215.315003 192.107878 
L 215.459225 191.695935 
L 215.500431 191.531158 
L 215.754535 191.283992 
L 216.599262 189.63622 
L 216.661071 189.471443 
L 216.784689 189.224277 
L 217.107471 188.235614 
L 217.224222 188.070837 
L 217.265428 187.823671 
L 217.492062 187.576505 
L 218.020874 186.835008 
L 218.137625 186.340676 
L 218.549686 185.104847 
L 218.659569 184.775293 
L 218.769452 184.445738 
L 218.95488 184.198572 
L 219.421883 183.12752 
L 219.696591 182.633189 
L 219.710326 182.468412 
L 219.888886 182.303634 
L 220.142991 181.644526 
L 220.273477 181.479748 
L 220.355889 181.314971 
L 220.520714 181.067805 
L 220.987717 179.831976 
L 221.234954 179.667199 
L 221.509662 178.925702 
L 221.612677 178.266593 
L 221.715692 178.019427 
L 221.907988 177.525095 
L 222.478006 175.959712 
L 222.560418 175.794935 
L 223.013686 175.547769 
L 223.315865 175.135826 
L 223.412012 174.88866 
L 224.778683 173.076111 
L 224.916037 172.911334 
L 225.094597 172.664168 
L 225.314363 172.334614 
L 225.355569 172.169836 
L 225.712689 171.922671 
L 225.946191 171.181173 
L 227.216714 168.627126 
L 227.402142 168.462349 
L 227.649378 167.885629 
L 228.246868 167.144132 
L 228.425428 166.896966 
L 228.727606 166.6498 
L 228.851225 166.155468 
L 229.016049 165.990691 
L 229.022917 165.908303 
L 229.194609 165.825914 
L 229.441846 165.249194 
L 229.675348 164.919639 
L 229.702818 164.837251 
L 229.963791 164.672473 
L 230.169822 164.342919 
L 230.56128 163.848587 
L 231.014548 163.436644 
L 231.54336 162.612758 
L 231.680714 162.283204 
L 232.2576 161.376929 
L 232.463631 161.129764 
L 232.745206 160.635432 
L 232.964972 160.1411 
L 233.576197 159.234826 
L 233.631138 159.070048 
L 233.878375 158.905271 
L 234.359114 157.669442 
L 234.874191 157.175111 
L 235.148898 156.680779 
L 235.375532 156.433613 
L 235.506018 156.104059 
L 235.904345 155.692116 
L 236.110375 155.033007 
L 236.508702 154.373898 
L 236.577378 154.209121 
L 236.714732 153.961955 
L 236.98944 153.467624 
L 237.051249 153.385235 
L 237.394634 153.220458 
L 238.472862 151.407908 
L 238.672025 151.243131 
L 239.413735 149.677748 
L 239.702178 149.430582 
L 240.031828 148.771473 
L 240.182917 148.524307 
L 240.285932 148.194753 
L 240.430154 147.947587 
L 240.457625 147.78281 
L 240.773538 147.535644 
L 240.794142 147.453256 
L 240.979569 147.288478 
L 241.467175 146.135038 
L 241.741883 145.970261 
L 241.892972 145.311152 
L 242.037194 145.063986 
L 242.263828 144.487266 
L 242.620948 143.910546 
L 242.723963 143.580991 
L 243.300849 143.004271 
L 243.410732 142.757105 
L 243.809058 142.592328 
L 243.822794 142.509939 
L 244.083766 142.345162 
L 244.159311 141.850831 
L 244.331003 141.686053 
L 244.440886 141.109333 
L 244.907889 140.532613 
L 245.244406 139.873504 
L 245.450437 139.214395 
L 245.525982 139.049618 
L 245.786954 138.802452 
L 245.999852 137.978566 
L 246.137206 137.813789 
L 246.302031 137.566623 
L 246.45312 137.401846 
L 246.762166 136.413183 
L 247.572554 135.177354 
L 247.757982 135.012577 
L 247.771717 134.847799 
L 247.950277 134.600634 
L 248.156308 133.776747 
L 248.252455 133.529582 
L 248.472222 132.952861 
L 249.529846 131.552255 
L 249.763348 131.057924 
L 249.893834 130.893146 
L 250.017452 130.563592 
L 250.415778 130.316426 
L 250.820972 129.739706 
L 251.0064 129.574929 
L 251.390991 129.080597 
L 251.693169 128.91582 
L 251.885465 128.751043 
L 252.318129 128.668654 
L 252.366203 128.3391 
L 252.61344 128.091934 
L 252.895015 127.597602 
L 252.991163 127.185659 
L 253.032369 127.020882 
L 253.705403 126.608939 
L 253.877095 126.279385 
L 254.632542 125.785053 
L 254.653145 125.702664 
L 254.962191 125.537887 
L 255.044603 125.37311 
L 255.161354 125.043556 
L 255.305575 124.466835 
L 255.683298 123.807727 
L 255.875594 123.148618 
L 256.026683 123.066229 
L 256.033551 122.901452 
L 256.356332 122.654286 
L 256.528025 122.40712 
L 257.475766 121.006514 
L 257.743606 119.935462 
L 258.478449 119.688296 
L 258.5952 119.441131 
L 258.766892 119.276353 
L 259.391852 118.452467 
L 259.563545 118.122913 
L 260.222843 117.958136 
L 260.435742 117.381416 
L 260.525022 117.216638 
L 260.600566 117.13425 
L 261.143114 116.887084 
L 261.211791 116.722307 
L 261.493366 116.475141 
L 261.795545 115.898421 
L 262.070252 115.651255 
L 262.221342 115.239312 
L 262.516652 114.909758 
L 262.963052 114.497814 
L 263.196554 114.415426 
L 263.59488 113.921094 
L 263.958868 113.756317 
L 264.384665 112.850042 
L 264.618166 112.602877 
L 264.886006 111.943768 
L 265.105772 111.531825 
L 265.394215 111.20227 
L 265.758203 110.872716 
L 266.300751 110.213607 
L 266.506782 109.801664 
L 266.754018 109.554498 
L 266.994388 109.307333 
L 267.131742 109.142555 
L 267.694892 108.730612 
L 267.708628 108.648224 
L 268.258043 108.483446 
L 268.374794 108.153892 
L 269.295065 107.165229 
L 269.384345 107.000452 
L 269.453022 106.835674 
L 270.119188 106.423731 
L 270.222203 106.176566 
L 270.407631 105.9294 
L 270.414498 105.847011 
L 270.593058 105.682234 
L 270.82656 105.435068 
L 271.259225 105.187902 
L 272.770117 103.869685 
L 272.900603 103.704908 
L 273.072295 103.54013 
L 273.175311 103.210576 
L 273.333268 102.881022 
L 273.498092 102.716244 
L 275.599606 100.079809 
L 275.82624 99.915032 
L 276.581686 98.926369 
L 276.801452 98.84398 
L 276.822055 98.679203 
L 277.234117 98.514426 
L 277.749194 98.184871 
L 277.914018 97.855317 
L 278.161255 97.69054 
L 278.181858 97.608151 
L 278.957908 97.196208 
L 279.39744 96.619488 
L 279.541662 96.454711 
L 279.589735 96.289933 
L 280.166622 95.960379 
L 280.867126 95.30127 
L 280.928935 95.136493 
L 281.787397 94.642161 
L 281.938486 94.394995 
L 282.439828 94.14783 
L 282.584049 93.900664 
L 282.618388 93.818275 
L 282.893095 93.653498 
L 282.989243 93.488721 
L 283.380702 93.241555 
L 283.710351 92.994389 
L 284.280369 92.417669 
L 284.816049 91.923337 
L 285.365465 91.75856 
L 285.777526 91.511394 
L 285.887409 91.346617 
L 286.869489 91.017063 
L 287.116726 90.687508 
L 287.336492 90.522731 
L 287.995791 89.781234 
L 288.332308 89.616457 
L 288.600148 89.369291 
L 288.929797 89.204513 
L 289.170166 88.79257 
L 289.733317 88.545405 
L 289.93248 88.298239 
L 290.742868 88.133462 
L 290.887089 87.886296 
L 290.91456 87.803907 
L 291.099988 87.63913 
L 291.223606 87.474353 
L 291.71808 87.309576 
L 292.336172 87.144798 
L 292.658954 86.815244 
L 292.823778 86.568078 
L 293.222105 86.403301 
L 293.32512 86.238524 
L 293.496812 85.991358 
L 294.39648 85.826581 
L 295.831828 85.332249 
L 296.024123 85.167472 
L 296.051594 85.002695 
L 296.697157 84.837918 
L 296.724628 84.67314 
L 297.184763 84.343586 
L 297.720443 84.178809 
L 297.78912 84.014032 
L 298.050092 83.849254 
L 298.153108 83.684477 
L 298.709391 83.5197 
L 298.970363 83.190145 
L 300.275225 82.695814 
L 300.762831 82.366259 
L 301.847926 82.119094 
L 302.314929 81.871928 
L 303.351951 81.542373 
L 303.420628 81.377596 
L 304.107397 81.13043 
L 304.320295 80.55371 
L 305.693834 80.306544 
L 305.989145 80.141767 
L 306.414942 79.97699 
L 306.737723 79.812213 
L 306.847606 79.729824 
L 308.440911 79.40027 
L 308.818634 79.235493 
L 308.935385 79.070715 
L 309.519138 78.82355 
L 309.608418 78.741161 
L 310.755323 78.329218 
L 310.981957 78.164441 
L 312.348628 77.834886 
L 314.244111 77.011 
L 315.246794 76.846223 
L 315.514634 76.681446 
L 315.995372 76.351891 
L 316.022843 76.269503 
L 316.998055 76.022337 
L 317.313969 75.775171 
L 320.28768 75.198451 
L 321.297231 75.033674 
L 321.80544 74.868897 
L 322.684505 74.621731 
L 324.30528 74.456954 
L 324.463237 74.374565 
L 327.382006 74.045011 
L 328.151188 73.797845 
L 329.30496 73.550679 
L 329.5728 73.385902 
L 330.067274 73.221125 
L 330.747175 72.809182 
L 332.560246 72.479627 
L 333.439311 72.067684 
L 335.774326 71.902907 
L 336.687729 71.73813 
L 337.25088 71.573353 
L 340.094105 71.079021 
L 342.092603 70.914244 
L 342.525268 70.667078 
L 342.60768 70.584689 
L 342.902991 70.502301 
L 344.613046 70.255135 
L 344.894622 70.172746 
L 348.891618 69.596026 
L 351.652431 69.019306 
L 356.542228 68.854529 
L 356.720788 68.77214 
L 357.538043 68.607363 
L 360.01728 68.442586 
L 362.379766 68.19542 
L 363.657157 68.030643 
L 371.651151 67.783477 
L 373.787003 67.6187 
L 375.648148 67.453922 
L 378.94464 67.206757 
L 385.901612 66.547648 
L 385.99776 66.382871 
L 386.554043 66.218093 
L 386.588382 66.135705 
L 388.195422 65.970928 
L 388.614351 65.888539 
L 392.322905 65.723762 
L 392.824246 65.641373 
L 402.734326 65.311819 
L 404.293292 65.147042 
L 404.554265 65.064653 
L 410.364332 64.570321 
L 413.688295 64.405544 
L 413.695163 64.323156 
L 415.10304 64.158378 
L 425.837243 63.911212 
L 428.625526 63.746435 
L 437.951852 63.334492 
L 438.068603 63.252104 
L 449.29728 63.087326 
L 452.003151 62.922549 
L 452.016886 62.840161 
L 458.266486 62.592995 
L 472.448271 62.428218 
L 477.379274 62.26344 
L 496.045662 62.098663 
L 523.008222 61.769109 
L 523.008222 61.769109 
" style="fill:none;stroke:#4c72b0;stroke-linecap:round;stroke-width:1.75;"/>
   </g>
   <g id="line2d_28">
    <path clip-path="url(#pf8b75a7d96)" d="M 94.49856 332.448624 
L 136.728 331.904859 
L 137.133194 331.361094 
L 153.78048 330.817329 
L 155.511138 330.273565 
L 156.870942 329.7298 
L 163.134277 329.186035 
L 163.573809 328.64227 
L 165.524234 328.098506 
L 166.128591 327.554741 
L 167.776837 327.010976 
L 167.996603 326.467211 
L 168.525415 325.923446 
L 168.683372 325.379682 
L 169.576172 324.292152 
L 169.706658 323.748387 
L 169.720394 323.204623 
L 170.427766 322.660858 
L 170.441502 322.117093 
L 170.599458 321.573328 
L 171.045858 321.029564 
L 171.90432 319.398269 
L 172.08288 317.766975 
L 172.52928 316.679445 
L 173.916554 316.135681 
L 173.937157 315.591916 
L 174.76128 315.048151 
L 175.097797 314.504386 
L 175.255754 312.329327 
L 175.997465 310.698033 
L 176.066142 310.154268 
L 176.670498 309.066738 
L 177.116898 307.979209 
L 177.288591 306.891679 
L 177.563298 306.347915 
L 177.652578 305.260385 
L 177.947889 304.71662 
L 178.133317 303.629091 
L 178.373686 303.085326 
L 178.380554 302.541561 
L 178.559114 301.454032 
L 178.730806 300.366502 
L 178.902498 299.278972 
L 179.012382 298.191443 
L 179.211545 294.385089 
L 180.612554 284.053559 
L 181.031483 281.334735 
L 181.285588 280.79097 
L 181.409206 280.247205 
L 181.505354 278.615911 
L 181.979225 276.440852 
L 182.137182 274.265793 
L 182.782745 271.546969 
L 183.036849 267.740615 
L 183.160468 266.653086 
L 183.33216 265.565556 
L 183.606868 262.846732 
L 183.68928 261.759203 
L 183.847237 260.671673 
L 183.888443 259.040379 
L 184.101342 257.409085 
L 184.156283 256.321555 
L 184.334843 255.234025 
L 184.472197 253.058966 
L 185.02848 242.727436 
L 185.131495 241.096141 
L 185.47488 238.921082 
L 185.674043 236.202258 
L 185.777058 235.114729 
L 185.873206 234.027199 
L 186.127311 233.483434 
L 186.834683 227.502022 
L 187.075052 226.414492 
L 187.308554 223.151904 
L 187.638203 218.258021 
L 187.830498 216.626726 
L 187.947249 213.907902 
L 188.125809 213.364138 
L 188.290634 211.189079 
L 188.531003 210.645314 
L 188.846917 207.92649 
L 189.114757 206.83896 
L 189.382597 204.663901 
L 189.554289 204.120136 
L 189.677908 203.032607 
L 189.973218 202.488842 
L 190.364677 199.226253 
L 190.749268 198.682489 
L 191.051446 195.963665 
L 191.381095 195.4199 
L 191.690142 190.526017 
L 191.861834 189.982252 
L 191.889305 189.438487 
L 192.356308 188.894723 
L 192.383778 188.350958 
L 193.008738 187.807193 
L 193.077415 186.719664 
L 193.221637 185.088369 
L 193.503212 183.457075 
L 194.004554 182.91331 
L 194.231188 181.825781 
L 194.636382 180.738251 
L 194.986634 180.194486 
L 194.993502 179.650721 
L 195.247606 179.106957 
L 195.515446 176.931898 
L 196.030523 175.844368 
L 196.112935 175.300603 
L 196.621145 174.213074 
L 196.703557 173.125544 
L 196.888985 172.038015 
L 197.108751 169.862955 
L 197.115618 169.319191 
L 197.397194 168.775426 
L 198.132037 164.425308 
L 198.235052 163.337778 
L 198.715791 162.794013 
L 199.079778 161.162719 
L 199.093514 160.618954 
L 199.691003 160.075189 
L 199.800886 159.531425 
L 200.233551 158.98766 
L 200.885982 158.443895 
L 201.160689 156.268836 
L 201.181292 155.725071 
L 201.655163 154.093777 
L 201.778782 153.006247 
L 202.61664 152.462483 
L 202.946289 151.918718 
L 203.550646 149.743659 
L 204.04512 149.199894 
L 204.113797 148.656129 
L 205.233231 148.112364 
L 205.542277 147.5686 
L 206.290855 147.024835 
L 206.325194 146.48107 
L 206.771594 145.937305 
L 207.739938 143.218481 
L 207.746806 142.674717 
L 208.467914 141.587187 
L 208.715151 141.043422 
L 208.728886 140.499657 
L 208.914314 139.955893 
L 209.58048 138.868363 
L 209.793378 137.780834 
L 210.267249 136.149539 
L 210.315323 135.605774 
L 210.480148 135.06201 
L 211.063902 134.518245 
L 211.331742 133.97448 
L 211.462228 132.343186 
L 212.540455 131.799421 
L 212.657206 131.255656 
L 212.897575 130.711891 
L 212.979988 129.624362 
L 213.666757 128.536832 
L 214.181834 127.449303 
L 215.163914 126.905538 
L 215.548505 126.361773 
L 215.706462 125.818008 
L 216.036111 125.274244 
L 216.516849 123.099185 
L 216.922043 122.55542 
L 216.997588 122.011655 
L 217.595077 121.46789 
L 217.801108 120.924125 
L 218.494745 119.836596 
L 219.160911 119.292831 
L 219.229588 118.749066 
L 219.662252 118.205302 
L 220.355889 117.661537 
L 220.795422 116.574007 
L 221.502794 116.030242 
L 221.859914 115.486478 
L 222.031606 114.398948 
L 222.519212 113.855183 
L 223.3296 113.311419 
L 223.796603 112.767654 
L 224.036972 112.223889 
L 224.613858 111.680124 
L 224.895434 111.13636 
L 225.334966 110.592595 
L 225.417378 109.505065 
L 225.808837 108.9613 
L 226.770314 108.417536 
L 227.443348 107.873771 
L 227.656246 107.330006 
L 228.349883 106.786241 
L 228.590252 106.242477 
L 228.77568 104.067417 
L 229.04352 103.523653 
L 229.242683 101.892358 
L 230.094277 100.261064 
L 230.101145 99.717299 
L 230.623089 99.173534 
L 230.684898 98.086005 
L 230.9184 97.54224 
L 232.305674 96.998475 
L 232.333145 96.454711 
L 232.896295 94.823416 
L 233.692948 93.735887 
L 233.782228 93.192122 
L 234.091274 92.648357 
L 234.468997 91.017063 
L 235.176369 90.473298 
L 235.279385 89.385768 
L 236.18592 88.842004 
L 236.240862 88.298239 
L 236.446892 87.754474 
L 236.549908 86.666945 
L 237.140529 86.12318 
L 237.140529 85.579415 
L 237.909711 84.491885 
L 237.964652 83.948121 
L 238.136345 83.404356 
L 238.438523 82.860591 
L 239.180234 82.316826 
L 239.461809 81.773062 
L 241.000172 80.685532 
L 241.034511 80.141767 
L 242.950597 79.054238 
L 243.012406 78.510473 
L 243.59616 77.966708 
L 243.609895 77.422943 
L 243.802191 76.879179 
L 243.809058 76.335414 
L 244.076898 75.791649 
L 245.333686 75.247884 
L 245.6496 74.704119 
L 248.355471 73.072825 
L 248.650782 72.52906 
L 249.564185 71.441531 
L 252.798868 70.897766 
L 253.245268 70.354001 
L 253.904566 69.810236 
L 255.463532 69.266472 
L 255.539077 68.722707 
L 255.751975 68.178942 
L 256.164037 67.635177 
L 259.199557 67.091413 
L 260.669243 66.547648 
L 266.6304 66.003883 
L 267.935262 65.460118 
L 269.920025 64.916353 
L 273.381342 64.372589 
L 285.351729 63.828824 
L 304.546929 63.285059 
L 323.000418 62.19753 
L 356.549095 61.653765 
L 551.570954 61.11 
L 551.570954 61.11 
" style="fill:none;stroke:#55a868;stroke-linecap:round;stroke-width:1.75;"/>
   </g>
   <g id="patch_3">
    <path d="M 72 346.5 
L 72 47.52 
" style="fill:none;"/>
   </g>
   <g id="patch_4">
    <path d="M 518.4 346.5 
L 518.4 47.52 
" style="fill:none;"/>
   </g>
   <g id="patch_5">
    <path d="M 72 346.5 
L 518.4 346.5 
" style="fill:none;"/>
   </g>
   <g id="patch_6">
    <path d="M 72 47.52 
L 518.4 47.52 
" style="fill:none;"/>
   </g>
   <g id="legend_1">
    <g id="line2d_29">
     <path d="M 85.5 66.27 
L 115.5 66.27 
" style="fill:none;stroke:#4c72b0;stroke-linecap:round;stroke-width:1.75;"/>
    </g>
    <g id="line2d_30"/>
    <g id="text_16">
     <!-- Obfuscated -->
     <defs>
      <path d="M 64 34.03125 
C 64 54.734375 50.296875 70.265625 34.59375 70.265625 
C 18.90625 70.265625 5.203125 54.640625 5.203125 34.03125 
C 5.203125 13.234375 19.09375 -2 34.59375 -2 
C 50.09375 -2 64 13.234375 64 34.03125 
z
M 34.59375 4.265625 
C 23.59375 4.265625 13.59375 16.515625 13.59375 35.328125 
C 13.59375 53.640625 24.203125 64 34.59375 64 
C 45 64 55.59375 53.640625 55.59375 35.328125 
C 55.59375 16.421875 45.5 4.265625 34.59375 4.265625 
z
" id="CMSS17-79"/>
      <path d="M 14.90625 69 
L 7.5 69 
L 7.5 -0.203125 
L 15.09375 -0.203125 
L 15.09375 4.28125 
C 18.90625 0.59375 23.5 -1 27.59375 -1 
C 37.203125 -1 45 8.578125 45 21.125 
C 45 32.59375 39 43.0625 30.09375 43.0625 
C 23.796875 43.0625 18.203125 40.484375 14.90625 37.796875 
z
M 15.09375 31.96875 
C 17.296875 34.71875 20.40625 37 24.796875 37 
C 30.703125 37 37.40625 32.765625 37.40625 21.125 
C 37.40625 8.71875 29.40625 5.078125 23.90625 5.078125 
C 21.90625 5.078125 19.796875 5.5625 17.796875 7.25 
C 15.09375 9.609375 15.09375 11.078125 15.09375 12.453125 
z
" id="CMSS17-98"/>
      <path d="M 40.796875 69 
L 33.40625 69 
L 33.40625 38.09375 
C 30.296875 40.671875 25.203125 43.0625 19.59375 43.0625 
C 10.5 43.0625 3.296875 33.296875 3.296875 21.046875 
C 3.296875 8.78125 10.40625 -1 19.296875 -1 
C 26.203125 -1 30.796875 2.6875 33.203125 4.78125 
L 33.203125 -0.203125 
L 40.796875 -0.203125 
z
M 33.203125 13.0625 
C 33.203125 11.671875 33.203125 10.203125 30.09375 7.53125 
C 28.09375 5.859375 25.703125 5.078125 23.40625 5.078125 
C 18 5.078125 10.90625 9 10.90625 20.9375 
C 10.90625 33.34375 18.90625 37 24.40625 37 
C 28.09375 37 31.09375 35.21875 33.203125 32.265625 
z
" id="CMSS17-100"/>
     </defs>
     <g style="fill:#262626;" transform="translate(127.5 71.52)scale(0.15 -0.15)">
      <use transform="scale(0.996264)" xlink:href="#CMSS17-79"/>
      <use transform="translate(69.024255 0)scale(0.996264)" xlink:href="#CMSS17-98"/>
      <use transform="translate(117.229198 0)scale(0.996264)" xlink:href="#CMSS17-102"/>
      <use transform="translate(145.855857 0)scale(0.996264)" xlink:href="#CMSS17-117"/>
      <use transform="translate(194.0608 0)scale(0.996264)" xlink:href="#CMSS17-115"/>
      <use transform="translate(229.974342 0)scale(0.996264)" xlink:href="#CMSS17-99"/>
      <use transform="translate(271.613165 0)scale(0.996264)" xlink:href="#CMSS17-97"/>
      <use transform="translate(316.535085 0)scale(0.996264)" xlink:href="#CMSS17-116"/>
      <use transform="translate(350.366652 0)scale(0.996264)" xlink:href="#CMSS17-101"/>
      <use transform="translate(392.005474 0)scale(0.996264)" xlink:href="#CMSS17-100"/>
     </g>
    </g>
    <g id="line2d_31">
     <path d="M 85.5 87.175745 
L 115.5 87.175745 
" style="fill:none;stroke:#55a868;stroke-linecap:round;stroke-width:1.75;"/>
    </g>
    <g id="line2d_32"/>
    <g id="text_17">
     <!-- Not obfuscated -->
     <defs>
      <path d="M 22.90625 65.3125 
L 21.09375 69 
L 8.796875 69 
L 8.796875 0 
L 16.59375 0 
L 16.59375 61.34375 
L 16.703125 61.4375 
C 17.40625 59.640625 17.796875 58.75 21.90625 49.90625 
L 43.296875 3.6875 
L 45.09375 0 
L 57.40625 0 
L 57.40625 69 
L 49.59375 69 
L 49.59375 7.65625 
L 49.5 7.546875 
C 48.796875 9.34375 48.40625 10.234375 44.296875 19.078125 
z
" id="CMSS17-78"/>
     </defs>
     <g style="fill:#262626;" transform="translate(127.5 92.425745)scale(0.15 -0.15)">
      <use transform="scale(0.996264)" xlink:href="#CMSS17-78"/>
      <use transform="translate(66.061519 0)scale(0.996264)" xlink:href="#CMSS17-111"/>
      <use transform="translate(112.905143 0)scale(0.996264)" xlink:href="#CMSS17-116"/>
      <use transform="translate(177.965822 0)scale(0.996264)" xlink:href="#CMSS17-111"/>
      <use transform="translate(224.809446 0)scale(0.996264)" xlink:href="#CMSS17-98"/>
      <use transform="translate(273.014389 0)scale(0.996264)" xlink:href="#CMSS17-102"/>
      <use transform="translate(301.641048 0)scale(0.996264)" xlink:href="#CMSS17-117"/>
      <use transform="translate(349.845991 0)scale(0.996264)" xlink:href="#CMSS17-115"/>
      <use transform="translate(385.759533 0)scale(0.996264)" xlink:href="#CMSS17-99"/>
      <use transform="translate(427.398355 0)scale(0.996264)" xlink:href="#CMSS17-97"/>
      <use transform="translate(472.320275 0)scale(0.996264)" xlink:href="#CMSS17-116"/>
      <use transform="translate(506.151842 0)scale(0.996264)" xlink:href="#CMSS17-101"/>
      <use transform="translate(547.790664 0)scale(0.996264)" xlink:href="#CMSS17-100"/>
     </g>
    </g>
   </g>
  </g>
 </g>
 <defs>
  <clipPath id="pf8b75a7d96">
   <rect height="298.98" width="446.4" x="72" y="47.52"/>
  </clipPath>
 </defs>
</svg>
