<?xml version="1.0" encoding="utf-8" standalone="no"?>
<!DOCTYPE svg PUBLIC "-//W3C//DTD SVG 1.1//EN"
  "http://www.w3.org/Graphics/SVG/1.1/DTD/svg11.dtd">
<!-- Created with matplotlib (https://matplotlib.org/) -->
<svg height="720pt" version="1.1" viewBox="0 0 1440 720" width="1440pt" xmlns="http://www.w3.org/2000/svg" xmlns:xlink="http://www.w3.org/1999/xlink">
 <defs>
  <style type="text/css">
*{stroke-linecap:butt;stroke-linejoin:round;}
  </style>
 </defs>
 <g id="figure_1">
  <g id="patch_1">
   <path d="M 0 720 
L 1440 720 
L 1440 0 
L 0 0 
z
" style="fill:#ffffff;"/>
  </g>
  <g id="axes_1">
   <g id="patch_2">
    <path d="M 144 612 
L 1296 612 
L 1296 72 
L 144 72 
z
" style="fill:#eaeaf2;"/>
   </g>
   <g id="matplotlib.axis_1">
    <g id="xtick_1">
     <g id="line2d_1">
      <path clip-path="url(#pc61e2b8d41)" d="M 240 612 
L 240 72 
" style="fill:none;stroke:#ffffff;stroke-linecap:round;"/>
     </g>
     <g id="line2d_2"/>
     <g id="text_1">
      <!-- 1 -->
      <defs>
       <path d="M 28.40625 67 
L 26.5 67 
C 21.09375 61.5625 14.796875 60.78125 8.40625 60.78125 
L 8.40625 55 
C 11.296875 55 16 55 20.703125 57.296875 
L 20.703125 5.765625 
L 8.90625 5.765625 
L 8.90625 0 
L 40.203125 0 
L 40.203125 5.765625 
L 28.40625 5.765625 
z
" id="CMSS17-49"/>
      </defs>
      <g style="fill:#262626;" transform="translate(235.784074 631.4533)scale(0.18 -0.18)">
       <use transform="scale(0.996264)" xlink:href="#CMSS17-49"/>
      </g>
     </g>
    </g>
    <g id="xtick_2">
     <g id="line2d_3">
      <path clip-path="url(#pc61e2b8d41)" d="M 432 612 
L 432 72 
" style="fill:none;stroke:#ffffff;stroke-linecap:round;"/>
     </g>
     <g id="line2d_4"/>
     <g id="text_2">
      <!-- 2 -->
      <defs>
       <path d="M 25.796875 21.203125 
C 28.59375 24.078125 32.796875 27.5625 35.703125 31.046875 
C 38.5 34.4375 42.203125 39.234375 42.203125 46.203125 
C 42.203125 57.140625 34.796875 67 22.203125 67 
C 12.296875 67 6.59375 60.828125 3.90625 51.15625 
L 7.796875 45.765625 
C 10 54.84375 13.09375 60.625 20.90625 60.625 
C 29.5 60.625 34.296875 53.640625 34.296875 45.96875 
C 34.296875 36.796875 27.296875 29.703125 22 24.421875 
C 16.09375 18.546875 10.296875 12.5625 4.703125 6.375 
L 4.703125 0 
L 42.203125 0 
L 42.203125 6.765625 
L 25.203125 6.765625 
C 24 6.765625 22.796875 6.765625 21.59375 6.765625 
L 11.59375 6.765625 
L 11.59375 6.859375 
z
" id="CMSS17-50"/>
      </defs>
      <g style="fill:#262626;" transform="translate(427.784074 631.4533)scale(0.18 -0.18)">
       <use transform="scale(0.996264)" xlink:href="#CMSS17-50"/>
      </g>
     </g>
    </g>
    <g id="xtick_3">
     <g id="line2d_5">
      <path clip-path="url(#pc61e2b8d41)" d="M 624 612 
L 624 72 
" style="fill:none;stroke:#ffffff;stroke-linecap:round;"/>
     </g>
     <g id="line2d_6"/>
     <g id="text_3">
      <!-- 3 -->
      <defs>
       <path d="M 15.703125 31.640625 
L 22.5 31.640625 
C 31.90625 31.640625 34.59375 23.546875 34.59375 17.90625 
C 34.59375 10.203125 30.203125 4.171875 23 4.171875 
C 17.40625 4.171875 9.5 6.9375 5 14.25 
C 4.296875 10.796875 4.296875 10.59375 3.90625 8.21875 
C 8.59375 1.375 16.203125 -2 23.203125 -2 
C 34.59375 -2 43 7.390625 43 17.78125 
C 43 25.59375 37.5 32.140625 30 34.609375 
C 36 37.875 40.40625 44 40.40625 51.140625 
C 40.40625 59.453125 32.703125 66.078125 23.296875 66.078125 
C 14.703125 66.078125 8 60.8125 5.203125 55.15625 
C 5.90625 54.1875 7.703125 51.3125 8.59375 49.828125 
C 10.796875 55.65625 16.5 60 23.203125 60 
C 28.796875 60 32.5 56.359375 32.5 51.109375 
C 32.5 45.671875 29 39.734375 23.09375 38.359375 
C 22.703125 38.359375 16.5 37.765625 15.703125 37.671875 
z
" id="CMSS17-51"/>
      </defs>
      <g style="fill:#262626;" transform="translate(619.784074 631.4533)scale(0.18 -0.18)">
       <use transform="scale(0.996264)" xlink:href="#CMSS17-51"/>
      </g>
     </g>
    </g>
    <g id="xtick_4">
     <g id="line2d_7">
      <path clip-path="url(#pc61e2b8d41)" d="M 816 612 
L 816 72 
" style="fill:none;stroke:#ffffff;stroke-linecap:round;"/>
     </g>
     <g id="line2d_8"/>
     <g id="text_4">
      <!-- 4 -->
      <defs>
       <path d="M 35.203125 17 
L 44.296875 17 
L 44.296875 23.078125 
L 35.203125 23.078125 
L 35.203125 65.5 
L 26.40625 65.5 
L 2.59375 23.078125 
L 2.59375 17 
L 27.296875 17 
L 27.296875 0 
L 35.203125 0 
z
M 10.296875 23.078125 
C 16.09375 33.234375 27.59375 53.734375 27.59375 60.703125 
L 27.59375 23.078125 
z
" id="CMSS17-52"/>
      </defs>
      <g style="fill:#262626;" transform="translate(811.784074 631.4533)scale(0.18 -0.18)">
       <use transform="scale(0.996264)" xlink:href="#CMSS17-52"/>
      </g>
     </g>
    </g>
    <g id="xtick_5">
     <g id="line2d_9">
      <path clip-path="url(#pc61e2b8d41)" d="M 1008 612 
L 1008 72 
" style="fill:none;stroke:#ffffff;stroke-linecap:round;"/>
     </g>
     <g id="line2d_10"/>
     <g id="text_5">
      <!-- 5 -->
      <defs>
       <path d="M 14.59375 58.625 
L 39.09375 58.625 
L 39.09375 65 
L 7.296875 65 
L 7.296875 27.828125 
L 14 27.828125 
C 15.796875 31.96875 19.5 35 24.296875 35 
C 28.796875 35 33.796875 31.078125 33.796875 19.78125 
C 33.796875 7.703125 26.703125 4.171875 21.5 4.171875 
C 15.09375 4.171875 9.203125 8 6.59375 13.296875 
L 3.40625 7.796875 
C 8 0.765625 15.5 -2 21.5 -2 
C 33.09375 -2 42.203125 7.765625 42.203125 19.578125 
C 42.203125 31.71875 34.09375 41.078125 24.40625 41.078125 
C 20.90625 41.078125 17.5 39.890625 14.59375 37.484375 
z
" id="CMSS17-53"/>
      </defs>
      <g style="fill:#262626;" transform="translate(1003.784074 631.4533)scale(0.18 -0.18)">
       <use transform="scale(0.996264)" xlink:href="#CMSS17-53"/>
      </g>
     </g>
    </g>
    <g id="xtick_6">
     <g id="line2d_11">
      <path clip-path="url(#pc61e2b8d41)" d="M 1200 612 
L 1200 72 
" style="fill:none;stroke:#ffffff;stroke-linecap:round;"/>
     </g>
     <g id="line2d_12"/>
     <g id="text_6">
      <!-- 6 -->
      <defs>
       <path d="M 39 64.078125 
C 34.796875 65.78125 31.796875 66.078125 29 66.078125 
C 16 66.078125 3.90625 52.625 3.90625 31.34375 
C 3.90625 4.140625 15.40625 -2 23.59375 -2 
C 28.09375 -2 32.59375 -0.609375 36.90625 4.375 
C 41.296875 9.640625 43 14.03125 43 21.703125 
C 43 34.046875 36.90625 45 27.796875 45 
C 21.203125 45 15.5 41.515625 12 37.125 
C 13 50.90625 19.59375 60 29.09375 60 
C 31.703125 60 35.09375 59.625 39 57.96875 
z
M 12.09375 21.390625 
C 12.09375 22.1875 12.09375 22.6875 12.203125 24.1875 
C 12.203125 31.953125 16.703125 38.921875 24 38.921875 
C 28.703125 38.921875 31.09375 36.4375 32.90625 33.359375 
C 35 29.46875 35.09375 25.78125 35.09375 21.6875 
C 35.09375 17.8125 35.09375 13.921875 32.796875 9.953125 
C 30.90625 6.859375 28.40625 4.171875 23.59375 4.171875 
C 14.09375 4.171875 12.5 17.40625 12.09375 21.390625 
z
" id="CMSS17-54"/>
      </defs>
      <g style="fill:#262626;" transform="translate(1195.784074 631.4533)scale(0.18 -0.18)">
       <use transform="scale(0.996264)" xlink:href="#CMSS17-54"/>
      </g>
     </g>
    </g>
    <g id="text_7">
     <!-- Maximum number of splits -->
     <defs>
      <path d="M 49.90625 37.046875 
L 45.09375 23.015625 
C 44.296875 20.421875 41.59375 12.359375 41 9.171875 
L 40.90625 9.171875 
C 40.59375 11.171875 40 13.265625 38.40625 18.34375 
C 37.5 21.328125 36.5 24.40625 35.5 27.203125 
L 20.703125 69 
L 9 69 
L 9 0 
L 16.796875 0 
L 16.796875 60.9375 
L 16.90625 60.9375 
C 16.90625 60.84375 17.796875 56.453125 23.90625 39.046875 
L 37.09375 1.5 
L 44.5 1.5 
L 56.40625 34.859375 
C 57.203125 37.15625 59.703125 44.421875 60.796875 47.90625 
C 61.796875 50.890625 64.296875 58.25 64.90625 61.140625 
L 65 61.140625 
L 65 0 
L 72.90625 0 
L 72.90625 69 
L 61.296875 69 
z
" id="CMSS17-77"/>
      <path d="M 37.59375 27.984375 
C 37.59375 37.375 30.90625 43.875 21.90625 43.875 
C 17.5 43.875 12.703125 43.078125 7.203125 39.890625 
L 7.796875 33.359375 
C 10.296875 35.125 14.59375 38 21.796875 38 
C 26.90625 38 30 34.0625 30 27.84375 
L 30 24 
C 14 24 4 19.34375 4 11.34375 
C 4 7.203125 6.5 -1 14.796875 -1 
C 16.296875 -1 24.40625 -1 30.203125 3.390625 
L 30.203125 -0.296875 
L 37.59375 -0.296875 
z
M 30 12.75 
C 30 10.953125 30 8.5625 27 6.78125 
C 24.40625 5.078125 21.09375 5.078125 19.703125 5.078125 
C 14.703125 5.078125 11.296875 7.984375 11.296875 11.625 
C 11.296875 18.921875 26.90625 18.921875 30 18.921875 
z
" id="CMSS17-97"/>
      <path d="M 24.796875 22.09375 
L 41.5 42.796875 
L 32.796875 42.796875 
L 21.296875 27.765625 
L 9.40625 42.796875 
L 0.5 42.796875 
L 17.796875 22.09375 
L 0 0 
L 8.796875 0 
L 21.296875 17.515625 
L 34.296875 0 
L 43.09375 0 
z
" id="CMSS17-120"/>
      <path d="M 15.296875 65.359375 
L 6.90625 65.359375 
L 6.90625 57 
L 15.296875 57 
z
M 14.796875 42.796875 
L 7.40625 42.796875 
L 7.40625 0 
L 14.796875 0 
z
" id="CMSS17-105"/>
      <path d="M 67 29.328125 
C 67 36.0625 65.296875 44 54.09375 44 
C 46.59375 44 42.09375 39.3125 40.09375 36.421875 
C 38.296875 41.71875 34.09375 44 28.09375 44 
C 21.296875 44 17 40.125 14.703125 37.328125 
L 14.703125 43.09375 
L 7.40625 43.09375 
L 7.40625 0 
L 15 0 
L 15 24.359375 
C 15 30.296875 17.203125 37.9375 24.296875 37.9375 
C 33.40625 37.9375 33.40625 31.5 33.40625 28.578125 
L 33.40625 0 
L 41 0 
L 41 24.359375 
C 41 30.296875 43.203125 37.9375 50.296875 37.9375 
C 59.40625 37.9375 59.40625 31.5 59.40625 28.578125 
L 59.40625 0 
L 67 0 
z
" id="CMSS17-109"/>
      <path d="M 40.90625 42.796875 
L 33.296875 42.796875 
L 33.296875 15.1875 
C 33.296875 7.78125 27.90625 4.78125 22.203125 4.78125 
C 15.59375 4.78125 15 6.984375 15 11.078125 
L 15 42.796875 
L 7.40625 42.796875 
L 7.40625 10.59375 
C 7.40625 2.796875 10.09375 -1 17 -1 
C 20.40625 -1 28.09375 -0.203125 33.5 4.78125 
L 33.5 0 
L 40.90625 0 
z
" id="CMSS17-117"/>
      <path d="M 40.90625 29.328125 
C 40.90625 35.671875 39.40625 44 28.09375 44 
C 21.703125 44 17.5 40.71875 14.703125 37.328125 
L 14.703125 43.09375 
L 7.40625 43.09375 
L 7.40625 0 
L 15 0 
L 15 24.359375 
C 15 30.6875 17.40625 37.9375 24.203125 37.9375 
C 33 37.9375 33.296875 32 33.296875 28.578125 
L 33.296875 0 
L 40.90625 0 
z
" id="CMSS17-110"/>
      <path d="M 14.90625 69 
L 7.5 69 
L 7.5 -0.203125 
L 15.09375 -0.203125 
L 15.09375 4.28125 
C 18.90625 0.59375 23.5 -1 27.59375 -1 
C 37.203125 -1 45 8.578125 45 21.125 
C 45 32.59375 39 43.0625 30.09375 43.0625 
C 23.796875 43.0625 18.203125 40.484375 14.90625 37.796875 
z
M 15.09375 31.96875 
C 17.296875 34.71875 20.40625 37 24.796875 37 
C 30.703125 37 37.40625 32.765625 37.40625 21.125 
C 37.40625 8.71875 29.40625 5.078125 23.90625 5.078125 
C 21.90625 5.078125 19.796875 5.5625 17.796875 7.25 
C 15.09375 9.609375 15.09375 11.078125 15.09375 12.453125 
z
" id="CMSS17-98"/>
      <path d="M 39.09375 21.515625 
C 39.09375 24.84375 38.90625 31.296875 35.703125 36.640625 
C 32.203125 42.390625 26.5 44 22.203125 44 
C 11.796875 44 3 34.1875 3 21.484375 
C 3 9.09375 12.09375 -1 23.59375 -1 
C 28.09375 -1 33.59375 0.296875 38.59375 3.875 
C 38.59375 4.28125 38.40625 6.46875 38.296875 6.5625 
C 38.296875 6.765625 38 9.84375 38 10.25 
C 33.203125 6.359375 27.703125 5.078125 23.703125 5.078125 
C 17.296875 5.078125 10.40625 10.421875 10.09375 21.515625 
z
M 10.90625 27 
C 12.203125 32.5625 16.59375 37.828125 22.203125 37.828125 
C 23.703125 37.828125 30.703125 37.828125 32.5 27 
z
" id="CMSS17-101"/>
      <path d="M 14.90625 21.296875 
C 14.90625 30.703125 21.796875 37 30.59375 37 
L 30.59375 43.578125 
C 24.203125 43.578125 18.203125 40.390625 14.59375 35.203125 
L 14.59375 43.09375 
L 7.5 43.09375 
L 7.5 0 
L 14.90625 0 
z
" id="CMSS17-114"/>
      <path d="M 44.203125 21.1875 
C 44.203125 34 34.703125 44 23.5 44 
C 12 44 2.703125 33.703125 2.703125 21.1875 
C 2.703125 8.5 12.296875 -1 23.40625 -1 
C 34.796875 -1 44.203125 8.796875 44.203125 21.1875 
z
M 23.5 5.265625 
C 16.40625 5.265625 10.296875 11.078125 10.296875 22 
C 10.296875 33.609375 17.40625 37.921875 23.40625 37.921875 
C 29.90625 37.921875 36.59375 33.21875 36.59375 22 
C 36.59375 10.671875 30.09375 5.265625 23.5 5.265625 
z
" id="CMSS17-111"/>
      <path d="M 16.796875 37 
L 26.90625 37 
L 26.90625 42.765625 
L 16.59375 42.765625 
L 16.59375 55.609375 
C 16.59375 62.71875 22 63.9375 25.09375 63.9375 
C 26.09375 63.9375 28.90625 63.9375 32.5 62.640625 
L 32.5 69.203125 
C 30.203125 69.703125 27.40625 70 25.203125 70 
C 15.90625 70 9.40625 62.390625 9.40625 52.484375 
L 9.40625 42.765625 
L 2.5 42.765625 
L 2.5 37 
L 9.40625 37 
L 9.40625 0 
L 16.796875 0 
z
" id="CMSS17-102"/>
      <path d="M 32.203125 41.046875 
C 26.296875 43.859375 21.703125 43.859375 18.703125 43.859375 
C 11.59375 43.859375 3.09375 41.375 3.09375 31.296875 
C 3.09375 21.234375 14.09375 19.03125 17.09375 18.421875 
C 21.703125 17.53125 26.796875 16.53125 26.796875 11.5625 
C 26.796875 5.265625 19.59375 5.265625 18.296875 5.265625 
C 14.296875 5.265625 8.796875 6.359375 3.796875 9.96875 
L 2.59375 3.28125 
C 8.296875 0 13.796875 -1 18.40625 -1 
C 30.703125 -1 33.796875 6.5 33.796875 12.203125 
C 33.796875 17.09375 31 20.390625 29.09375 21.890625 
C 25.796875 24.5 24.59375 24.796875 16.40625 26.5 
C 15 26.703125 10.09375 27.796875 10.09375 32.28125 
C 10.09375 38 16.40625 38 17.796875 38 
C 24.296875 38 28.296875 35.984375 31 34.5 
z
" id="CMSS17-115"/>
      <path d="M 15.09375 5.203125 
C 18.40625 2.015625 22.90625 -0.078125 27.703125 -0.078125 
C 37 -0.078125 45 9.421875 45 22.0625 
C 45 33.734375 39 44 30.40625 44 
C 25.40625 44 19.40625 42.21875 14.90625 38.625 
L 14.90625 43.203125 
L 7.5 43.203125 
L 7.5 -19 
L 15.09375 -19 
z
M 15.09375 32.8125 
C 15.90625 34 19.296875 37.734375 24.796875 37.734375 
C 31.796875 37.734375 37.40625 30.625 37.40625 22.0625 
C 37.40625 12.296875 30.59375 6 23.90625 6 
C 21.90625 6 19.796875 6.484375 17.796875 8.171875 
C 15.09375 10.53125 15.09375 12 15.09375 13.390625 
z
" id="CMSS17-112"/>
      <path d="M 14.796875 69 
L 7.40625 69 
L 7.40625 0 
L 14.796875 0 
z
" id="CMSS17-108"/>
      <path d="M 16.703125 37 
L 29.703125 37 
L 29.703125 42.765625 
L 16.703125 42.765625 
L 16.703125 55 
L 9.59375 55 
L 9.59375 42.765625 
L 1.703125 42.765625 
L 1.703125 37 
L 9.40625 37 
L 9.40625 11.703125 
C 9.40625 6 10.703125 -1 17.296875 -1 
C 22.296875 -1 26.90625 0.390625 31.296875 2.6875 
L 29.703125 8.5625 
C 27.296875 6.46875 24.40625 5.265625 21.296875 5.265625 
C 16.90625 5.265625 16.703125 10.875 16.703125 13.375 
z
" id="CMSS17-116"/>
     </defs>
     <g style="fill:#262626;" transform="translate(604.409873 665.162058)scale(0.22 -0.22)">
      <use transform="scale(0.996264)" xlink:href="#CMSS17-77"/>
      <use transform="translate(81.67603 0)scale(0.996264)" xlink:href="#CMSS17-97"/>
      <use transform="translate(126.597951 0)scale(0.996264)" xlink:href="#CMSS17-120"/>
      <use transform="translate(169.598092 0)scale(0.996264)" xlink:href="#CMSS17-105"/>
      <use transform="translate(191.778815 0)scale(0.996264)" xlink:href="#CMSS17-109"/>
      <use transform="translate(266.00807 0)scale(0.996264)" xlink:href="#CMSS17-117"/>
      <use transform="translate(314.213013 0)scale(0.996264)" xlink:href="#CMSS17-109"/>
      <use transform="translate(419.67138 0)scale(0.996264)" xlink:href="#CMSS17-110"/>
      <use transform="translate(467.876323 0)scale(0.996264)" xlink:href="#CMSS17-117"/>
      <use transform="translate(516.081266 0)scale(0.996264)" xlink:href="#CMSS17-109"/>
      <use transform="translate(590.310521 0)scale(0.996264)" xlink:href="#CMSS17-98"/>
      <use transform="translate(641.117903 0)scale(0.996264)" xlink:href="#CMSS17-101"/>
      <use transform="translate(682.756725 0)scale(0.996264)" xlink:href="#CMSS17-114"/>
      <use transform="translate(745.89561 0)scale(0.996264)" xlink:href="#CMSS17-111"/>
      <use transform="translate(792.739233 0)scale(0.996264)" xlink:href="#CMSS17-102"/>
      <use transform="translate(852.595005 0)scale(0.996264)" xlink:href="#CMSS17-115"/>
      <use transform="translate(888.508547 0)scale(0.996264)" xlink:href="#CMSS17-112"/>
      <use transform="translate(936.71349 0)scale(0.996264)" xlink:href="#CMSS17-108"/>
      <use transform="translate(958.894213 0)scale(0.996264)" xlink:href="#CMSS17-105"/>
      <use transform="translate(981.074936 0)scale(0.996264)" xlink:href="#CMSS17-116"/>
      <use transform="translate(1014.906503 0)scale(0.996264)" xlink:href="#CMSS17-115"/>
     </g>
    </g>
   </g>
   <g id="matplotlib.axis_2">
    <g id="ytick_1">
     <g id="line2d_13">
      <path clip-path="url(#pc61e2b8d41)" d="M 144 612 
L 1296 612 
" style="fill:none;stroke:#ffffff;stroke-linecap:round;"/>
     </g>
     <g id="line2d_14"/>
     <g id="text_8">
      <!-- $0$ -->
      <defs>
       <path d="M 42 31.640625 
C 42 37.75 41.90625 48.125 37.703125 56.109375 
C 34 63.109375 28.09375 65.59375 22.90625 65.59375 
C 18.09375 65.59375 12 63.40625 8.203125 56.203125 
C 4.203125 48.71875 3.796875 39.4375 3.796875 31.640625 
C 3.796875 25.953125 3.90625 17.28125 7 9.671875 
C 11.296875 -0.609375 19 -2 22.90625 -2 
C 27.5 -2 34.5 -0.109375 38.59375 9.375 
C 41.59375 16.28125 42 24.359375 42 31.640625 
z
M 22.90625 -0.40625 
C 16.5 -0.40625 12.703125 5.078125 11.296875 12.6875 
C 10.203125 18.5625 10.203125 27.15625 10.203125 32.75 
C 10.203125 40.4375 10.203125 46.828125 11.5 52.921875 
C 13.40625 61.390625 19 64 22.90625 64 
C 27 64 32.296875 61.296875 34.203125 53.125 
C 35.5 47.4375 35.59375 40.734375 35.59375 32.75 
C 35.59375 26.25 35.59375 18.265625 34.40625 12.375 
C 32.296875 1.484375 26.40625 -0.40625 22.90625 -0.40625 
z
" id="CMR17-48"/>
      </defs>
      <g style="fill:#262626;" transform="translate(128.775714 618.22665)scale(0.18 -0.18)">
       <use transform="scale(0.996264)" xlink:href="#CMR17-48"/>
      </g>
     </g>
    </g>
    <g id="ytick_2">
     <g id="line2d_15">
      <path clip-path="url(#pc61e2b8d41)" d="M 144 522 
L 1296 522 
" style="fill:none;stroke:#ffffff;stroke-linecap:round;"/>
     </g>
     <g id="line2d_16"/>
     <g id="text_9">
      <!-- $50$ -->
      <defs>
       <path d="M 11.40625 57.6875 
C 12.40625 57.28125 16.5 56 20.703125 56 
C 30 56 35.09375 61.109375 38 64.0625 
C 38 64.953125 38 65.5 37.40625 65.5 
C 37.296875 65.5 37.09375 65.5 36.296875 65.046875 
C 32.796875 63.40625 28.703125 62.078125 23.703125 62.078125 
C 20.703125 62.078125 16.203125 62.484375 11.296875 64.671875 
C 10.203125 65.171875 10 65.171875 9.90625 65.171875 
C 9.40625 65.171875 9.296875 65.0625 9.296875 63.078125 
L 9.296875 34.421875 
C 9.296875 32.640625 9.296875 32.140625 10.296875 32.140625 
C 10.796875 32.140625 11 32.34375 11.5 33.03125 
C 14.703125 37.515625 19.09375 39.40625 24.09375 39.40625 
C 27.59375 39.40625 35.09375 37.21875 35.09375 20.140625 
C 35.09375 16.953125 35.09375 11.171875 32.09375 6.578125 
C 29.59375 2.484375 25.703125 0.390625 21.40625 0.390625 
C 14.796875 0.390625 8.09375 5 6.296875 12.71875 
C 6.703125 12.609375 7.5 12.421875 7.90625 12.421875 
C 9.203125 12.421875 11.703125 13.125 11.703125 16.21875 
C 11.703125 18.90625 9.796875 20 7.90625 20 
C 5.59375 20 4.09375 18.59375 4.09375 15.796875 
C 4.09375 7.09375 11 -2 21.59375 -2 
C 31.90625 -2 41.703125 6.875 41.703125 19.75 
C 41.703125 31.71875 33.90625 41 24.203125 41 
C 19.09375 41 14.796875 39.109375 11.40625 35.53125 
z
" id="CMR17-53"/>
      </defs>
      <g style="fill:#262626;" transform="translate(120.551428 528.22665)scale(0.18 -0.18)">
       <use transform="scale(0.996264)" xlink:href="#CMR17-53"/>
       <use transform="translate(45.690477 0)scale(0.996264)" xlink:href="#CMR17-48"/>
      </g>
     </g>
    </g>
    <g id="ytick_3">
     <g id="line2d_17">
      <path clip-path="url(#pc61e2b8d41)" d="M 144 432 
L 1296 432 
" style="fill:none;stroke:#ffffff;stroke-linecap:round;"/>
     </g>
     <g id="line2d_18"/>
     <g id="text_10">
      <!-- $100$ -->
      <defs>
       <path d="M 26.59375 63.40625 
C 26.59375 65.5 26.5 65.5 25.09375 65.5 
C 21.203125 61.1875 15.296875 59.796875 9.703125 59.796875 
C 9.40625 59.796875 8.90625 59.796875 8.796875 59.5 
C 8.703125 59.296875 8.703125 59.09375 8.703125 57 
C 11.796875 57 17 57.59375 21 59.984375 
L 21 7.203125 
C 21 3.6875 20.796875 2.5 12.203125 2.5 
L 9.203125 2.5 
L 9.203125 0 
C 14 0 19 0 23.796875 0 
C 28.59375 0 33.59375 0 38.40625 0 
L 38.40625 2.5 
L 35.40625 2.5 
C 26.796875 2.5 26.59375 3.59375 26.59375 7.15625 
z
" id="CMR17-49"/>
      </defs>
      <g style="fill:#262626;" transform="translate(112.327142 438.22665)scale(0.18 -0.18)">
       <use transform="scale(0.996264)" xlink:href="#CMR17-49"/>
       <use transform="translate(45.690477 0)scale(0.996264)" xlink:href="#CMR17-48"/>
       <use transform="translate(91.380954 0)scale(0.996264)" xlink:href="#CMR17-48"/>
      </g>
     </g>
    </g>
    <g id="ytick_4">
     <g id="line2d_19">
      <path clip-path="url(#pc61e2b8d41)" d="M 144 342 
L 1296 342 
" style="fill:none;stroke:#ffffff;stroke-linecap:round;"/>
     </g>
     <g id="line2d_20"/>
     <g id="text_11">
      <!-- $150$ -->
      <g style="fill:#262626;" transform="translate(112.327142 348.22665)scale(0.18 -0.18)">
       <use transform="scale(0.996264)" xlink:href="#CMR17-49"/>
       <use transform="translate(45.690477 0)scale(0.996264)" xlink:href="#CMR17-53"/>
       <use transform="translate(91.380954 0)scale(0.996264)" xlink:href="#CMR17-48"/>
      </g>
     </g>
    </g>
    <g id="ytick_5">
     <g id="line2d_21">
      <path clip-path="url(#pc61e2b8d41)" d="M 144 252 
L 1296 252 
" style="fill:none;stroke:#ffffff;stroke-linecap:round;"/>
     </g>
     <g id="line2d_22"/>
     <g id="text_12">
      <!-- $200$ -->
      <defs>
       <path d="M 41.703125 15.453125 
L 39.90625 15.453125 
C 38.90625 8.375 38.09375 7.171875 37.703125 6.5625 
C 37.203125 5.765625 30 5.765625 28.59375 5.765625 
L 9.40625 5.765625 
C 13 9.671875 20 16.75 28.5 24.953125 
C 34.59375 30.734375 41.703125 37.53125 41.703125 47.421875 
C 41.703125 59.21875 32.296875 66 21.796875 66 
C 10.796875 66 4.09375 56.3125 4.09375 47.34375 
C 4.09375 43.4375 7 42.9375 8.203125 42.9375 
C 9.203125 42.9375 12.203125 43.546875 12.203125 47.03125 
C 12.203125 50.109375 9.59375 51 8.203125 51 
C 7.59375 51 7 50.90625 6.59375 50.703125 
C 8.5 59.21875 14.296875 63.40625 20.40625 63.40625 
C 29.09375 63.40625 34.796875 56.515625 34.796875 47.421875 
C 34.796875 38.734375 29.703125 31.25 24 24.75 
L 4.09375 2.28125 
L 4.09375 0 
L 39.296875 0 
z
" id="CMR17-50"/>
      </defs>
      <g style="fill:#262626;" transform="translate(112.327142 258.22665)scale(0.18 -0.18)">
       <use transform="scale(0.996264)" xlink:href="#CMR17-50"/>
       <use transform="translate(45.690477 0)scale(0.996264)" xlink:href="#CMR17-48"/>
       <use transform="translate(91.380954 0)scale(0.996264)" xlink:href="#CMR17-48"/>
      </g>
     </g>
    </g>
    <g id="ytick_6">
     <g id="line2d_23">
      <path clip-path="url(#pc61e2b8d41)" d="M 144 162 
L 1296 162 
" style="fill:none;stroke:#ffffff;stroke-linecap:round;"/>
     </g>
     <g id="line2d_24"/>
     <g id="text_13">
      <!-- $250$ -->
      <g style="fill:#262626;" transform="translate(112.327142 168.22665)scale(0.18 -0.18)">
       <use transform="scale(0.996264)" xlink:href="#CMR17-50"/>
       <use transform="translate(45.690477 0)scale(0.996264)" xlink:href="#CMR17-53"/>
       <use transform="translate(91.380954 0)scale(0.996264)" xlink:href="#CMR17-48"/>
      </g>
     </g>
    </g>
    <g id="ytick_7">
     <g id="line2d_25">
      <path clip-path="url(#pc61e2b8d41)" d="M 144 72 
L 1296 72 
" style="fill:none;stroke:#ffffff;stroke-linecap:round;"/>
     </g>
     <g id="line2d_26"/>
     <g id="text_14">
      <!-- $300$ -->
      <defs>
       <path d="M 22.09375 33.703125 
C 31 33.703125 34.90625 25.96875 34.90625 17.03125 
C 34.90625 5 28.5 0.390625 22.703125 0.390625 
C 17.40625 0.390625 8.796875 3.03125 6.09375 10.828125 
C 6.59375 10.625 7.09375 10.625 7.59375 10.625 
C 10 10.625 11.796875 12.21875 11.796875 14.8125 
C 11.796875 17.703125 9.59375 19 7.59375 19 
C 5.90625 19 3.296875 18.203125 3.296875 14.46875 
C 3.296875 5.234375 12.296875 -2 22.90625 -2 
C 34 -2 42.5 6.71875 42.5 16.953125 
C 42.5 26.671875 34.5 33.703125 25 34.796875 
C 32.59375 36.375 39.90625 43.0625 39.90625 52.015625 
C 39.90625 59.6875 32 65.296875 23 65.296875 
C 13.90625 65.296875 5.90625 59.828125 5.90625 52.015625 
C 5.90625 48.59375 8.5 48 9.796875 48 
C 11.90625 48 13.703125 49.296875 13.703125 51.890625 
C 13.703125 54.46875 11.90625 55.765625 9.796875 55.765625 
C 9.40625 55.765625 8.90625 55.765625 8.5 55.578125 
C 11.40625 61.859375 19.296875 63 22.796875 63 
C 26.296875 63 32.90625 61.328125 32.90625 51.875 
C 32.90625 49.109375 32.5 44.1875 29.09375 39.84375 
C 26.09375 36 22.703125 36 19.40625 35.6875 
C 18.90625 35.6875 16.59375 35.453125 16.203125 35.453125 
C 15.5 35.359375 15.09375 35.265625 15.09375 34.5 
C 15.09375 33.796875 15.203125 33.703125 17.203125 33.703125 
z
" id="CMR17-51"/>
      </defs>
      <g style="fill:#262626;" transform="translate(112.327142 78.22665)scale(0.18 -0.18)">
       <use transform="scale(0.996264)" xlink:href="#CMR17-51"/>
       <use transform="translate(45.690477 0)scale(0.996264)" xlink:href="#CMR17-48"/>
       <use transform="translate(91.380954 0)scale(0.996264)" xlink:href="#CMR17-48"/>
      </g>
     </g>
    </g>
    <g id="text_15">
     <!-- Execution time (ms) -->
     <defs>
      <path d="M 30.59375 6.765625 
C 22.59375 6.765625 19 6.765625 17.203125 6.765625 
L 17.203125 32.921875 
L 48.203125 32.921875 
L 48.203125 39 
L 17.203125 39 
L 17.203125 62.640625 
L 30.09375 62.640625 
C 31.296875 62.640625 32.5 62.640625 33.703125 62.640625 
L 50.796875 62.640625 
L 50.796875 69 
L 8.796875 69 
L 8.796875 0 
L 52.09375 0 
L 52.09375 6.765625 
z
" id="CMSS17-69"/>
      <path d="M 38.5 39.703125 
C 38.5 40.390625 33.90625 42.40625 32.703125 42.796875 
C 29.40625 44 25.203125 44 24.09375 44 
C 11.09375 44 3.296875 32.703125 3.296875 21.296875 
C 3.296875 9.296875 12 -1 23.703125 -1 
C 30.40625 -1 35.203125 1.1875 39.09375 3.78125 
L 38.5 10.375 
C 34.203125 7.078125 29.203125 5.265625 23.796875 5.265625 
C 16 5.265625 10.90625 12.09375 10.90625 21.390625 
C 10.90625 28.609375 14.203125 37.71875 24.203125 37.71875 
C 29.703125 37.71875 32.796875 36.609375 37.40625 33.515625 
z
" id="CMSS17-99"/>
      <path d="M 25.203125 74.5 
C 19.796875 69.015625 7.40625 56.265625 7.40625 24.8125 
C 7.40625 -6.765625 19.796875 -19.421875 25.203125 -25 
L 31.296875 -25 
C 19 -12.25 15 5.578125 15 24.703125 
C 15 43.71875 18.796875 61.65625 31.296875 74.5 
z
" id="CMSS17-40"/>
      <path d="M 11.296875 -25 
C 16.703125 -19.515625 29.09375 -6.765625 29.09375 24.703125 
C 29.09375 56.265625 16.703125 68.921875 11.296875 74.5 
L 5.203125 74.5 
C 17.5 61.75 21.5 43.921875 21.5 24.8125 
C 21.5 5.78125 17.703125 -12.15625 5.203125 -25 
z
" id="CMSS17-41"/>
     </defs>
     <g style="fill:#262626;" transform="translate(91.866024 429.866279)rotate(-90)scale(0.22 -0.22)">
      <use transform="scale(0.996264)" xlink:href="#CMSS17-69"/>
      <use transform="translate(55.892013 0)scale(0.996264)" xlink:href="#CMSS17-120"/>
      <use transform="translate(98.892155 0)scale(0.996264)" xlink:href="#CMSS17-101"/>
      <use transform="translate(140.530977 0)scale(0.996264)" xlink:href="#CMSS17-99"/>
      <use transform="translate(182.169799 0)scale(0.996264)" xlink:href="#CMSS17-117"/>
      <use transform="translate(230.374742 0)scale(0.996264)" xlink:href="#CMSS17-116"/>
      <use transform="translate(264.206309 0)scale(0.996264)" xlink:href="#CMSS17-105"/>
      <use transform="translate(286.387032 0)scale(0.996264)" xlink:href="#CMSS17-111"/>
      <use transform="translate(333.230655 0)scale(0.996264)" xlink:href="#CMSS17-110"/>
      <use transform="translate(412.664711 0)scale(0.996264)" xlink:href="#CMSS17-116"/>
      <use transform="translate(446.496278 0)scale(0.996264)" xlink:href="#CMSS17-105"/>
      <use transform="translate(468.677001 0)scale(0.996264)" xlink:href="#CMSS17-109"/>
      <use transform="translate(542.906255 0)scale(0.996264)" xlink:href="#CMSS17-101"/>
      <use transform="translate(615.77419 0)scale(0.996264)" xlink:href="#CMSS17-40"/>
      <use transform="translate(652.208104 0)scale(0.996264)" xlink:href="#CMSS17-109"/>
      <use transform="translate(726.437359 0)scale(0.996264)" xlink:href="#CMSS17-115"/>
      <use transform="translate(762.350901 0)scale(0.996264)" xlink:href="#CMSS17-41"/>
     </g>
    </g>
   </g>
   <g id="line2d_27">
    <path clip-path="url(#pc61e2b8d41)" d="M 192 321.92775 
L 288 321.92775 
L 288 246.48075 
L 192 246.48075 
L 192 321.92775 
" style="fill:none;stroke:#4c72b0;stroke-linecap:round;"/>
   </g>
   <g id="line2d_28">
    <path clip-path="url(#pc61e2b8d41)" d="M 240 321.92775 
L 240 428.049 
" style="fill:none;stroke:#4c72b0;stroke-linecap:round;"/>
   </g>
   <g id="line2d_29">
    <path clip-path="url(#pc61e2b8d41)" d="M 240 246.48075 
L 240 134.604 
" style="fill:none;stroke:#4c72b0;stroke-linecap:round;"/>
   </g>
   <g id="line2d_30">
    <path clip-path="url(#pc61e2b8d41)" d="M 216 428.049 
L 264 428.049 
" style="fill:none;stroke:#000000;stroke-linecap:round;"/>
   </g>
   <g id="line2d_31">
    <path clip-path="url(#pc61e2b8d41)" d="M 216 134.604 
L 264 134.604 
" style="fill:none;stroke:#000000;stroke-linecap:round;"/>
   </g>
   <g id="line2d_32">
    <defs>
     <path d="M 0 3 
C 0.795609 3 1.55874 2.683901 2.12132 2.12132 
C 2.683901 1.55874 3 0.795609 3 0 
C 3 -0.795609 2.683901 -1.55874 2.12132 -2.12132 
C 1.55874 -2.683901 0.795609 -3 0 -3 
C -0.795609 -3 -1.55874 -2.683901 -2.12132 -2.12132 
C -2.683901 -1.55874 -3 -0.795609 -3 0 
C -3 0.795609 -2.683901 1.55874 -2.12132 2.12132 
C -1.55874 2.683901 -0.795609 3 0 3 
z
" id="m7afb93dcf8"/>
    </defs>
    <g clip-path="url(#pc61e2b8d41)">
     <use style="fill-opacity:0;" x="240" xlink:href="#m7afb93dcf8" y="74.754"/>
     <use style="fill-opacity:0;" x="240" xlink:href="#m7afb93dcf8" y="127.251"/>
     <use style="fill-opacity:0;" x="240" xlink:href="#m7afb93dcf8" y="29.214"/>
     <use style="fill-opacity:0;" x="240" xlink:href="#m7afb93dcf8" y="-1"/>
     <use style="fill-opacity:0;" x="240" xlink:href="#m7afb93dcf8" y="-1"/>
     <use style="fill-opacity:0;" x="240" xlink:href="#m7afb93dcf8" y="65.511"/>
     <use style="fill-opacity:0;" x="240" xlink:href="#m7afb93dcf8" y="62.784"/>
     <use style="fill-opacity:0;" x="240" xlink:href="#m7afb93dcf8" y="-1"/>
     <use style="fill-opacity:0;" x="240" xlink:href="#m7afb93dcf8" y="-1"/>
     <use style="fill-opacity:0;" x="240" xlink:href="#m7afb93dcf8" y="38.205"/>
     <use style="fill-opacity:0;" x="240" xlink:href="#m7afb93dcf8" y="69.984"/>
     <use style="fill-opacity:0;" x="240" xlink:href="#m7afb93dcf8" y="103.059"/>
     <use style="fill-opacity:0;" x="240" xlink:href="#m7afb93dcf8" y="130.131"/>
     <use style="fill-opacity:0;" x="240" xlink:href="#m7afb93dcf8" y="116.334"/>
     <use style="fill-opacity:0;" x="240" xlink:href="#m7afb93dcf8" y="13.302"/>
     <use style="fill-opacity:0;" x="240" xlink:href="#m7afb93dcf8" y="120.672"/>
     <use style="fill-opacity:0;" x="240" xlink:href="#m7afb93dcf8" y="104.112"/>
     <use style="fill-opacity:0;" x="240" xlink:href="#m7afb93dcf8" y="121.986"/>
     <use style="fill-opacity:0;" x="240" xlink:href="#m7afb93dcf8" y="114.741"/>
     <use style="fill-opacity:0;" x="240" xlink:href="#m7afb93dcf8" y="57.222"/>
     <use style="fill-opacity:0;" x="240" xlink:href="#m7afb93dcf8" y="99.558"/>
     <use style="fill-opacity:0;" x="240" xlink:href="#m7afb93dcf8" y="64.737"/>
     <use style="fill-opacity:0;" x="240" xlink:href="#m7afb93dcf8" y="56.565"/>
     <use style="fill-opacity:0;" x="240" xlink:href="#m7afb93dcf8" y="117.81"/>
     <use style="fill-opacity:0;" x="240" xlink:href="#m7afb93dcf8" y="130.212"/>
     <use style="fill-opacity:0;" x="240" xlink:href="#m7afb93dcf8" y="-1"/>
     <use style="fill-opacity:0;" x="240" xlink:href="#m7afb93dcf8" y="-1"/>
     <use style="fill-opacity:0;" x="240" xlink:href="#m7afb93dcf8" y="117.414"/>
     <use style="fill-opacity:0;" x="240" xlink:href="#m7afb93dcf8" y="-1"/>
     <use style="fill-opacity:0;" x="240" xlink:href="#m7afb93dcf8" y="-1"/>
     <use style="fill-opacity:0;" x="240" xlink:href="#m7afb93dcf8" y="41.535"/>
     <use style="fill-opacity:0;" x="240" xlink:href="#m7afb93dcf8" y="44.136"/>
     <use style="fill-opacity:0;" x="240" xlink:href="#m7afb93dcf8" y="112.5"/>
    </g>
   </g>
   <g id="line2d_33">
    <path clip-path="url(#pc61e2b8d41)" d="M 384 321.7725 
L 480 321.7725 
L 480 240.50925 
L 384 240.50925 
L 384 321.7725 
" style="fill:none;stroke:#4c72b0;stroke-linecap:round;"/>
   </g>
   <g id="line2d_34">
    <path clip-path="url(#pc61e2b8d41)" d="M 432 321.7725 
L 432 437.841 
" style="fill:none;stroke:#4c72b0;stroke-linecap:round;"/>
   </g>
   <g id="line2d_35">
    <path clip-path="url(#pc61e2b8d41)" d="M 432 240.50925 
L 432 122.481 
" style="fill:none;stroke:#4c72b0;stroke-linecap:round;"/>
   </g>
   <g id="line2d_36">
    <path clip-path="url(#pc61e2b8d41)" d="M 408 437.841 
L 456 437.841 
" style="fill:none;stroke:#000000;stroke-linecap:round;"/>
   </g>
   <g id="line2d_37">
    <path clip-path="url(#pc61e2b8d41)" d="M 408 122.481 
L 456 122.481 
" style="fill:none;stroke:#000000;stroke-linecap:round;"/>
   </g>
   <g id="line2d_38">
    <g clip-path="url(#pc61e2b8d41)">
     <use style="fill-opacity:0;" x="432" xlink:href="#m7afb93dcf8" y="451.26"/>
     <use style="fill-opacity:0;" x="432" xlink:href="#m7afb93dcf8" y="458.406"/>
     <use style="fill-opacity:0;" x="432" xlink:href="#m7afb93dcf8" y="453.258"/>
     <use style="fill-opacity:0;" x="432" xlink:href="#m7afb93dcf8" y="444.213"/>
     <use style="fill-opacity:0;" x="432" xlink:href="#m7afb93dcf8" y="-1"/>
     <use style="fill-opacity:0;" x="432" xlink:href="#m7afb93dcf8" y="-1"/>
     <use style="fill-opacity:0;" x="432" xlink:href="#m7afb93dcf8" y="96.462"/>
     <use style="fill-opacity:0;" x="432" xlink:href="#m7afb93dcf8" y="113.292"/>
     <use style="fill-opacity:0;" x="432" xlink:href="#m7afb93dcf8" y="35.694"/>
     <use style="fill-opacity:0;" x="432" xlink:href="#m7afb93dcf8" y="114.507"/>
     <use style="fill-opacity:0;" x="432" xlink:href="#m7afb93dcf8" y="2.106"/>
     <use style="fill-opacity:0;" x="432" xlink:href="#m7afb93dcf8" y="-1"/>
     <use style="fill-opacity:0;" x="432" xlink:href="#m7afb93dcf8" y="-1"/>
     <use style="fill-opacity:0;" x="432" xlink:href="#m7afb93dcf8" y="62.082"/>
     <use style="fill-opacity:0;" x="432" xlink:href="#m7afb93dcf8" y="65.637"/>
     <use style="fill-opacity:0;" x="432" xlink:href="#m7afb93dcf8" y="-1"/>
     <use style="fill-opacity:0;" x="432" xlink:href="#m7afb93dcf8" y="-1"/>
     <use style="fill-opacity:0;" x="432" xlink:href="#m7afb93dcf8" y="111.312"/>
     <use style="fill-opacity:0;" x="432" xlink:href="#m7afb93dcf8" y="111.663"/>
     <use style="fill-opacity:0;" x="432" xlink:href="#m7afb93dcf8" y="30.51"/>
     <use style="fill-opacity:0;" x="432" xlink:href="#m7afb93dcf8" y="19.548"/>
     <use style="fill-opacity:0;" x="432" xlink:href="#m7afb93dcf8" y="-1"/>
     <use style="fill-opacity:0;" x="432" xlink:href="#m7afb93dcf8" y="-1"/>
     <use style="fill-opacity:0;" x="432" xlink:href="#m7afb93dcf8" y="97.236"/>
    </g>
   </g>
   <g id="line2d_39">
    <path clip-path="url(#pc61e2b8d41)" d="M 576 320.9715 
L 672 320.9715 
L 672 250.1055 
L 576 250.1055 
L 576 320.9715 
" style="fill:none;stroke:#4c72b0;stroke-linecap:round;"/>
   </g>
   <g id="line2d_40">
    <path clip-path="url(#pc61e2b8d41)" d="M 624 320.9715 
L 624 424.53 
" style="fill:none;stroke:#4c72b0;stroke-linecap:round;"/>
   </g>
   <g id="line2d_41">
    <path clip-path="url(#pc61e2b8d41)" d="M 624 250.1055 
L 624 146.358 
" style="fill:none;stroke:#4c72b0;stroke-linecap:round;"/>
   </g>
   <g id="line2d_42">
    <path clip-path="url(#pc61e2b8d41)" d="M 600 424.53 
L 648 424.53 
" style="fill:none;stroke:#000000;stroke-linecap:round;"/>
   </g>
   <g id="line2d_43">
    <path clip-path="url(#pc61e2b8d41)" d="M 600 146.358 
L 648 146.358 
" style="fill:none;stroke:#000000;stroke-linecap:round;"/>
   </g>
   <g id="line2d_44">
    <g clip-path="url(#pc61e2b8d41)">
     <use style="fill-opacity:0;" x="624" xlink:href="#m7afb93dcf8" y="429.903"/>
     <use style="fill-opacity:0;" x="624" xlink:href="#m7afb93dcf8" y="141.732"/>
     <use style="fill-opacity:0;" x="624" xlink:href="#m7afb93dcf8" y="138.807"/>
     <use style="fill-opacity:0;" x="624" xlink:href="#m7afb93dcf8" y="-1"/>
     <use style="fill-opacity:0;" x="624" xlink:href="#m7afb93dcf8" y="-1"/>
     <use style="fill-opacity:0;" x="624" xlink:href="#m7afb93dcf8" y="118.458"/>
     <use style="fill-opacity:0;" x="624" xlink:href="#m7afb93dcf8" y="137.178"/>
     <use style="fill-opacity:0;" x="624" xlink:href="#m7afb93dcf8" y="99.828"/>
     <use style="fill-opacity:0;" x="624" xlink:href="#m7afb93dcf8" y="110.862"/>
     <use style="fill-opacity:0;" x="624" xlink:href="#m7afb93dcf8" y="103.878"/>
     <use style="fill-opacity:0;" x="624" xlink:href="#m7afb93dcf8" y="139.455"/>
     <use style="fill-opacity:0;" x="624" xlink:href="#m7afb93dcf8" y="73.548"/>
     <use style="fill-opacity:0;" x="624" xlink:href="#m7afb93dcf8" y="-1"/>
     <use style="fill-opacity:0;" x="624" xlink:href="#m7afb93dcf8" y="-1"/>
     <use style="fill-opacity:0;" x="624" xlink:href="#m7afb93dcf8" y="94.788"/>
     <use style="fill-opacity:0;" x="624" xlink:href="#m7afb93dcf8" y="-1"/>
     <use style="fill-opacity:0;" x="624" xlink:href="#m7afb93dcf8" y="-1"/>
     <use style="fill-opacity:0;" x="624" xlink:href="#m7afb93dcf8" y="75.708"/>
     <use style="fill-opacity:0;" x="624" xlink:href="#m7afb93dcf8" y="122.67"/>
     <use style="fill-opacity:0;" x="624" xlink:href="#m7afb93dcf8" y="-1"/>
     <use style="fill-opacity:0;" x="624" xlink:href="#m7afb93dcf8" y="-1"/>
     <use style="fill-opacity:0;" x="624" xlink:href="#m7afb93dcf8" y="134.388"/>
    </g>
   </g>
   <g id="line2d_45">
    <path clip-path="url(#pc61e2b8d41)" d="M 768 318.6765 
L 864 318.6765 
L 864 240.4935 
L 768 240.4935 
L 768 318.6765 
" style="fill:none;stroke:#4c72b0;stroke-linecap:round;"/>
   </g>
   <g id="line2d_46">
    <path clip-path="url(#pc61e2b8d41)" d="M 816 318.6765 
L 816 432.333 
" style="fill:none;stroke:#4c72b0;stroke-linecap:round;"/>
   </g>
   <g id="line2d_47">
    <path clip-path="url(#pc61e2b8d41)" d="M 816 240.4935 
L 816 125.667 
" style="fill:none;stroke:#4c72b0;stroke-linecap:round;"/>
   </g>
   <g id="line2d_48">
    <path clip-path="url(#pc61e2b8d41)" d="M 792 432.333 
L 840 432.333 
" style="fill:none;stroke:#000000;stroke-linecap:round;"/>
   </g>
   <g id="line2d_49">
    <path clip-path="url(#pc61e2b8d41)" d="M 792 125.667 
L 840 125.667 
" style="fill:none;stroke:#000000;stroke-linecap:round;"/>
   </g>
   <g id="line2d_50">
    <g clip-path="url(#pc61e2b8d41)">
     <use style="fill-opacity:0;" x="816" xlink:href="#m7afb93dcf8" y="439.317"/>
     <use style="fill-opacity:0;" x="816" xlink:href="#m7afb93dcf8" y="448.983"/>
     <use style="fill-opacity:0;" x="816" xlink:href="#m7afb93dcf8" y="52.236"/>
     <use style="fill-opacity:0;" x="816" xlink:href="#m7afb93dcf8" y="69.309"/>
     <use style="fill-opacity:0;" x="816" xlink:href="#m7afb93dcf8" y="29.223"/>
     <use style="fill-opacity:0;" x="816" xlink:href="#m7afb93dcf8" y="40.095"/>
     <use style="fill-opacity:0;" x="816" xlink:href="#m7afb93dcf8" y="-1"/>
     <use style="fill-opacity:0;" x="816" xlink:href="#m7afb93dcf8" y="-1"/>
     <use style="fill-opacity:0;" x="816" xlink:href="#m7afb93dcf8" y="119.376"/>
     <use style="fill-opacity:0;" x="816" xlink:href="#m7afb93dcf8" y="-1"/>
     <use style="fill-opacity:0;" x="816" xlink:href="#m7afb93dcf8" y="-1"/>
     <use style="fill-opacity:0;" x="816" xlink:href="#m7afb93dcf8" y="68.076"/>
     <use style="fill-opacity:0;" x="816" xlink:href="#m7afb93dcf8" y="62.631"/>
     <use style="fill-opacity:0;" x="816" xlink:href="#m7afb93dcf8" y="-1"/>
     <use style="fill-opacity:0;" x="816" xlink:href="#m7afb93dcf8" y="-1"/>
     <use style="fill-opacity:0;" x="816" xlink:href="#m7afb93dcf8" y="88.632"/>
     <use style="fill-opacity:0;" x="816" xlink:href="#m7afb93dcf8" y="68.562"/>
     <use style="fill-opacity:0;" x="816" xlink:href="#m7afb93dcf8" y="58.194"/>
     <use style="fill-opacity:0;" x="816" xlink:href="#m7afb93dcf8" y="44.289"/>
     <use style="fill-opacity:0;" x="816" xlink:href="#m7afb93dcf8" y="28.017"/>
     <use style="fill-opacity:0;" x="816" xlink:href="#m7afb93dcf8" y="-1"/>
     <use style="fill-opacity:0;" x="816" xlink:href="#m7afb93dcf8" y="-1"/>
     <use style="fill-opacity:0;" x="816" xlink:href="#m7afb93dcf8" y="71.82"/>
     <use style="fill-opacity:0;" x="816" xlink:href="#m7afb93dcf8" y="110.52"/>
     <use style="fill-opacity:0;" x="816" xlink:href="#m7afb93dcf8" y="76.599"/>
     <use style="fill-opacity:0;" x="816" xlink:href="#m7afb93dcf8" y="102.807"/>
     <use style="fill-opacity:0;" x="816" xlink:href="#m7afb93dcf8" y="-1"/>
     <use style="fill-opacity:0;" x="816" xlink:href="#m7afb93dcf8" y="-1"/>
     <use style="fill-opacity:0;" x="816" xlink:href="#m7afb93dcf8" y="9.648"/>
     <use style="fill-opacity:0;" x="816" xlink:href="#m7afb93dcf8" y="38.043"/>
     <use style="fill-opacity:0;" x="816" xlink:href="#m7afb93dcf8" y="-1"/>
     <use style="fill-opacity:0;" x="816" xlink:href="#m7afb93dcf8" y="-1"/>
     <use style="fill-opacity:0;" x="816" xlink:href="#m7afb93dcf8" y="11.898"/>
    </g>
   </g>
   <g id="line2d_51">
    <path clip-path="url(#pc61e2b8d41)" d="M 960 316.21725 
L 1056 316.21725 
L 1056 244.18575 
L 960 244.18575 
L 960 316.21725 
" style="fill:none;stroke:#4c72b0;stroke-linecap:round;"/>
   </g>
   <g id="line2d_52">
    <path clip-path="url(#pc61e2b8d41)" d="M 1008 316.21725 
L 1008 406.629 
" style="fill:none;stroke:#4c72b0;stroke-linecap:round;"/>
   </g>
   <g id="line2d_53">
    <path clip-path="url(#pc61e2b8d41)" d="M 1008 244.18575 
L 1008 141.993 
" style="fill:none;stroke:#4c72b0;stroke-linecap:round;"/>
   </g>
   <g id="line2d_54">
    <path clip-path="url(#pc61e2b8d41)" d="M 984 406.629 
L 1032 406.629 
" style="fill:none;stroke:#000000;stroke-linecap:round;"/>
   </g>
   <g id="line2d_55">
    <path clip-path="url(#pc61e2b8d41)" d="M 984 141.993 
L 1032 141.993 
" style="fill:none;stroke:#000000;stroke-linecap:round;"/>
   </g>
   <g id="line2d_56">
    <g clip-path="url(#pc61e2b8d41)">
     <use style="fill-opacity:0;" x="1008" xlink:href="#m7afb93dcf8" y="431.469"/>
     <use style="fill-opacity:0;" x="1008" xlink:href="#m7afb93dcf8" y="435.429"/>
     <use style="fill-opacity:0;" x="1008" xlink:href="#m7afb93dcf8" y="455.166"/>
     <use style="fill-opacity:0;" x="1008" xlink:href="#m7afb93dcf8" y="429.372"/>
     <use style="fill-opacity:0;" x="1008" xlink:href="#m7afb93dcf8" y="122.733"/>
     <use style="fill-opacity:0;" x="1008" xlink:href="#m7afb93dcf8" y="131.328"/>
     <use style="fill-opacity:0;" x="1008" xlink:href="#m7afb93dcf8" y="120.42"/>
     <use style="fill-opacity:0;" x="1008" xlink:href="#m7afb93dcf8" y="80.415"/>
     <use style="fill-opacity:0;" x="1008" xlink:href="#m7afb93dcf8" y="135.54"/>
     <use style="fill-opacity:0;" x="1008" xlink:href="#m7afb93dcf8" y="79.074"/>
     <use style="fill-opacity:0;" x="1008" xlink:href="#m7afb93dcf8" y="64.782"/>
     <use style="fill-opacity:0;" x="1008" xlink:href="#m7afb93dcf8" y="-1"/>
     <use style="fill-opacity:0;" x="1008" xlink:href="#m7afb93dcf8" y="-1"/>
     <use style="fill-opacity:0;" x="1008" xlink:href="#m7afb93dcf8" y="126.756"/>
     <use style="fill-opacity:0;" x="1008" xlink:href="#m7afb93dcf8" y="37.449"/>
     <use style="fill-opacity:0;" x="1008" xlink:href="#m7afb93dcf8" y="114.138"/>
     <use style="fill-opacity:0;" x="1008" xlink:href="#m7afb93dcf8" y="129.393"/>
     <use style="fill-opacity:0;" x="1008" xlink:href="#m7afb93dcf8" y="27.369"/>
     <use style="fill-opacity:0;" x="1008" xlink:href="#m7afb93dcf8" y="81.513"/>
     <use style="fill-opacity:0;" x="1008" xlink:href="#m7afb93dcf8" y="-1"/>
    </g>
   </g>
   <g id="line2d_57">
    <path clip-path="url(#pc61e2b8d41)" d="M 1152 310.02075 
L 1248 310.02075 
L 1248 223.902 
L 1152 223.902 
L 1152 310.02075 
" style="fill:none;stroke:#4c72b0;stroke-linecap:round;"/>
   </g>
   <g id="line2d_58">
    <path clip-path="url(#pc61e2b8d41)" d="M 1200 310.02075 
L 1200 427.842 
" style="fill:none;stroke:#4c72b0;stroke-linecap:round;"/>
   </g>
   <g id="line2d_59">
    <path clip-path="url(#pc61e2b8d41)" d="M 1200 223.902 
L 1200 94.788 
" style="fill:none;stroke:#4c72b0;stroke-linecap:round;"/>
   </g>
   <g id="line2d_60">
    <path clip-path="url(#pc61e2b8d41)" d="M 1176 427.842 
L 1224 427.842 
" style="fill:none;stroke:#000000;stroke-linecap:round;"/>
   </g>
   <g id="line2d_61">
    <path clip-path="url(#pc61e2b8d41)" d="M 1176 94.788 
L 1224 94.788 
" style="fill:none;stroke:#000000;stroke-linecap:round;"/>
   </g>
   <g id="line2d_62">
    <g clip-path="url(#pc61e2b8d41)">
     <use style="fill-opacity:0;" x="1200" xlink:href="#m7afb93dcf8" y="441.072"/>
     <use style="fill-opacity:0;" x="1200" xlink:href="#m7afb93dcf8" y="-0.333"/>
     <use style="fill-opacity:0;" x="1200" xlink:href="#m7afb93dcf8" y="84.312"/>
     <use style="fill-opacity:0;" x="1200" xlink:href="#m7afb93dcf8" y="65.601"/>
     <use style="fill-opacity:0;" x="1200" xlink:href="#m7afb93dcf8" y="-1"/>
     <use style="fill-opacity:0;" x="1200" xlink:href="#m7afb93dcf8" y="-1"/>
     <use style="fill-opacity:0;" x="1200" xlink:href="#m7afb93dcf8" y="6.687"/>
     <use style="fill-opacity:0;" x="1200" xlink:href="#m7afb93dcf8" y="33.579"/>
     <use style="fill-opacity:0;" x="1200" xlink:href="#m7afb93dcf8" y="87.516"/>
     <use style="fill-opacity:0;" x="1200" xlink:href="#m7afb93dcf8" y="65.772"/>
     <use style="fill-opacity:0;" x="1200" xlink:href="#m7afb93dcf8" y="64.845"/>
     <use style="fill-opacity:0;" x="1200" xlink:href="#m7afb93dcf8" y="43.578"/>
     <use style="fill-opacity:0;" x="1200" xlink:href="#m7afb93dcf8" y="41.553"/>
     <use style="fill-opacity:0;" x="1200" xlink:href="#m7afb93dcf8" y="-1"/>
     <use style="fill-opacity:0;" x="1200" xlink:href="#m7afb93dcf8" y="-1"/>
     <use style="fill-opacity:0;" x="1200" xlink:href="#m7afb93dcf8" y="81.945"/>
     <use style="fill-opacity:0;" x="1200" xlink:href="#m7afb93dcf8" y="41.193"/>
     <use style="fill-opacity:0;" x="1200" xlink:href="#m7afb93dcf8" y="19.098"/>
     <use style="fill-opacity:0;" x="1200" xlink:href="#m7afb93dcf8" y="1.467"/>
     <use style="fill-opacity:0;" x="1200" xlink:href="#m7afb93dcf8" y="-1"/>
    </g>
   </g>
   <g id="line2d_63">
    <path clip-path="url(#pc61e2b8d41)" d="M 192 298.4445 
L 288 298.4445 
" style="fill:none;stroke:#c44e52;stroke-linecap:round;"/>
   </g>
   <g id="line2d_64">
    <path clip-path="url(#pc61e2b8d41)" d="M 384 294.4755 
L 480 294.4755 
" style="fill:none;stroke:#c44e52;stroke-linecap:round;"/>
   </g>
   <g id="line2d_65">
    <path clip-path="url(#pc61e2b8d41)" d="M 576 297.3015 
L 672 297.3015 
" style="fill:none;stroke:#c44e52;stroke-linecap:round;"/>
   </g>
   <g id="line2d_66">
    <path clip-path="url(#pc61e2b8d41)" d="M 768 294.192 
L 864 294.192 
" style="fill:none;stroke:#c44e52;stroke-linecap:round;"/>
   </g>
   <g id="line2d_67">
    <path clip-path="url(#pc61e2b8d41)" d="M 960 292.8825 
L 1056 292.8825 
" style="fill:none;stroke:#c44e52;stroke-linecap:round;"/>
   </g>
   <g id="line2d_68">
    <path clip-path="url(#pc61e2b8d41)" d="M 1152 277.083 
L 1248 277.083 
" style="fill:none;stroke:#c44e52;stroke-linecap:round;"/>
   </g>
   <g id="patch_3">
    <path d="M 144 612 
L 144 72 
" style="fill:none;"/>
   </g>
   <g id="patch_4">
    <path d="M 1296 612 
L 1296 72 
" style="fill:none;"/>
   </g>
   <g id="patch_5">
    <path d="M 144 612 
L 1296 612 
" style="fill:none;"/>
   </g>
   <g id="patch_6">
    <path d="M 144 72 
L 1296 72 
" style="fill:none;"/>
   </g>
  </g>
 </g>
 <defs>
  <clipPath id="pc61e2b8d41">
   <rect height="540" width="1152" x="144" y="72"/>
  </clipPath>
 </defs>
</svg>
