<?xml version="1.0" encoding="utf-8" standalone="no"?>
<!DOCTYPE svg PUBLIC "-//W3C//DTD SVG 1.1//EN"
  "http://www.w3.org/Graphics/SVG/1.1/DTD/svg11.dtd">
<!-- Created with matplotlib (https://matplotlib.org/) -->
<svg height="720pt" version="1.1" viewBox="0 0 1440 720" width="1440pt" xmlns="http://www.w3.org/2000/svg" xmlns:xlink="http://www.w3.org/1999/xlink">
 <defs>
  <style type="text/css">
*{stroke-linecap:butt;stroke-linejoin:round;}
  </style>
 </defs>
 <g id="figure_1">
  <g id="patch_1">
   <path d="M 0 720 
L 1440 720 
L 1440 0 
L 0 0 
z
" style="fill:#ffffff;"/>
  </g>
  <g id="axes_1">
   <g id="patch_2">
    <path d="M 144 612 
L 1296 612 
L 1296 72 
L 144 72 
z
" style="fill:#eaeaf2;"/>
   </g>
   <g id="matplotlib.axis_1">
    <g id="xtick_1">
     <g id="line2d_1">
      <path clip-path="url(#p3210785bf1)" d="M 196.363636 612 
L 196.363636 72 
" style="fill:none;stroke:#ffffff;stroke-linecap:round;"/>
     </g>
     <g id="line2d_2"/>
     <g id="text_1">
      <!-- 0.0 -->
      <defs>
       <path d="M 43.09375 31.9375 
C 43.09375 37.578125 43 48.078125 38.90625 56.1875 
C 34.796875 64 28.203125 66.078125 23.5 66.078125 
C 16.703125 66.078125 10.90625 62.109375 7.90625 55.78125 
C 4.703125 49.15625 3.796875 42.328125 3.796875 31.9375 
C 3.796875 24.828125 4.09375 16.109375 7.703125 8.484375 
C 11.796875 0.078125 18.703125 -2 23.40625 -2 
C 29.59375 -2 35.59375 1.265625 39 8.09375 
C 42.5 15.21875 43.09375 23.03125 43.09375 31.9375 
z
M 23.40625 4.078125 
C 15.796875 4.078125 13.5 12.671875 12.796875 15.546875 
C 11.59375 20.46875 11.40625 25.21875 11.40625 33.03125 
C 11.40625 39.15625 11.40625 46.0625 13.296875 51.515625 
C 15.59375 57.828125 19.59375 60 23.40625 60 
C 30.796875 60 33.203125 52.6875 34 50.125 
C 35.5 44.890625 35.5 38.765625 35.5 33.03125 
C 35.5 23.84375 35.5 4.078125 23.40625 4.078125 
z
" id="CMSS17-48"/>
       <path d="M 17 7.96875 
L 9 7.96875 
L 9 0 
L 17 0 
z
" id="CMSS17-46"/>
      </defs>
      <g style="fill:#262626;" transform="translate(185.589609 631.4533)scale(0.18 -0.18)">
       <use transform="scale(0.996264)" xlink:href="#CMSS17-48"/>
       <use transform="translate(46.843624 0)scale(0.996264)" xlink:href="#CMSS17-46"/>
       <use transform="translate(72.867828 0)scale(0.996264)" xlink:href="#CMSS17-48"/>
      </g>
     </g>
    </g>
    <g id="xtick_2">
     <g id="line2d_3">
      <path clip-path="url(#p3210785bf1)" d="M 301.090909 612 
L 301.090909 72 
" style="fill:none;stroke:#ffffff;stroke-linecap:round;"/>
     </g>
     <g id="line2d_4"/>
     <g id="text_2">
      <!-- 0.1 -->
      <defs>
       <path d="M 28.40625 67 
L 26.5 67 
C 21.09375 61.5625 14.796875 60.78125 8.40625 60.78125 
L 8.40625 55 
C 11.296875 55 16 55 20.703125 57.296875 
L 20.703125 5.765625 
L 8.90625 5.765625 
L 8.90625 0 
L 40.203125 0 
L 40.203125 5.765625 
L 28.40625 5.765625 
z
" id="CMSS17-49"/>
      </defs>
      <g style="fill:#262626;" transform="translate(290.316881 631.4533)scale(0.18 -0.18)">
       <use transform="scale(0.996264)" xlink:href="#CMSS17-48"/>
       <use transform="translate(46.843624 0)scale(0.996264)" xlink:href="#CMSS17-46"/>
       <use transform="translate(72.867828 0)scale(0.996264)" xlink:href="#CMSS17-49"/>
      </g>
     </g>
    </g>
    <g id="xtick_3">
     <g id="line2d_5">
      <path clip-path="url(#p3210785bf1)" d="M 405.818182 612 
L 405.818182 72 
" style="fill:none;stroke:#ffffff;stroke-linecap:round;"/>
     </g>
     <g id="line2d_6"/>
     <g id="text_3">
      <!-- 0.2 -->
      <defs>
       <path d="M 25.796875 21.203125 
C 28.59375 24.078125 32.796875 27.5625 35.703125 31.046875 
C 38.5 34.4375 42.203125 39.234375 42.203125 46.203125 
C 42.203125 57.140625 34.796875 67 22.203125 67 
C 12.296875 67 6.59375 60.828125 3.90625 51.15625 
L 7.796875 45.765625 
C 10 54.84375 13.09375 60.625 20.90625 60.625 
C 29.5 60.625 34.296875 53.640625 34.296875 45.96875 
C 34.296875 36.796875 27.296875 29.703125 22 24.421875 
C 16.09375 18.546875 10.296875 12.5625 4.703125 6.375 
L 4.703125 0 
L 42.203125 0 
L 42.203125 6.765625 
L 25.203125 6.765625 
C 24 6.765625 22.796875 6.765625 21.59375 6.765625 
L 11.59375 6.765625 
L 11.59375 6.859375 
z
" id="CMSS17-50"/>
      </defs>
      <g style="fill:#262626;" transform="translate(395.044154 631.4533)scale(0.18 -0.18)">
       <use transform="scale(0.996264)" xlink:href="#CMSS17-48"/>
       <use transform="translate(46.843624 0)scale(0.996264)" xlink:href="#CMSS17-46"/>
       <use transform="translate(72.867828 0)scale(0.996264)" xlink:href="#CMSS17-50"/>
      </g>
     </g>
    </g>
    <g id="xtick_4">
     <g id="line2d_7">
      <path clip-path="url(#p3210785bf1)" d="M 510.545455 612 
L 510.545455 72 
" style="fill:none;stroke:#ffffff;stroke-linecap:round;"/>
     </g>
     <g id="line2d_8"/>
     <g id="text_4">
      <!-- 0.3 -->
      <defs>
       <path d="M 15.703125 31.640625 
L 22.5 31.640625 
C 31.90625 31.640625 34.59375 23.546875 34.59375 17.90625 
C 34.59375 10.203125 30.203125 4.171875 23 4.171875 
C 17.40625 4.171875 9.5 6.9375 5 14.25 
C 4.296875 10.796875 4.296875 10.59375 3.90625 8.21875 
C 8.59375 1.375 16.203125 -2 23.203125 -2 
C 34.59375 -2 43 7.390625 43 17.78125 
C 43 25.59375 37.5 32.140625 30 34.609375 
C 36 37.875 40.40625 44 40.40625 51.140625 
C 40.40625 59.453125 32.703125 66.078125 23.296875 66.078125 
C 14.703125 66.078125 8 60.8125 5.203125 55.15625 
C 5.90625 54.1875 7.703125 51.3125 8.59375 49.828125 
C 10.796875 55.65625 16.5 60 23.203125 60 
C 28.796875 60 32.5 56.359375 32.5 51.109375 
C 32.5 45.671875 29 39.734375 23.09375 38.359375 
C 22.703125 38.359375 16.5 37.765625 15.703125 37.671875 
z
" id="CMSS17-51"/>
      </defs>
      <g style="fill:#262626;" transform="translate(499.771427 631.4533)scale(0.18 -0.18)">
       <use transform="scale(0.996264)" xlink:href="#CMSS17-48"/>
       <use transform="translate(46.843624 0)scale(0.996264)" xlink:href="#CMSS17-46"/>
       <use transform="translate(72.867828 0)scale(0.996264)" xlink:href="#CMSS17-51"/>
      </g>
     </g>
    </g>
    <g id="xtick_5">
     <g id="line2d_9">
      <path clip-path="url(#p3210785bf1)" d="M 615.272727 612 
L 615.272727 72 
" style="fill:none;stroke:#ffffff;stroke-linecap:round;"/>
     </g>
     <g id="line2d_10"/>
     <g id="text_5">
      <!-- 0.4 -->
      <defs>
       <path d="M 35.203125 17 
L 44.296875 17 
L 44.296875 23.078125 
L 35.203125 23.078125 
L 35.203125 65.5 
L 26.40625 65.5 
L 2.59375 23.078125 
L 2.59375 17 
L 27.296875 17 
L 27.296875 0 
L 35.203125 0 
z
M 10.296875 23.078125 
C 16.09375 33.234375 27.59375 53.734375 27.59375 60.703125 
L 27.59375 23.078125 
z
" id="CMSS17-52"/>
      </defs>
      <g style="fill:#262626;" transform="translate(604.4987 631.4533)scale(0.18 -0.18)">
       <use transform="scale(0.996264)" xlink:href="#CMSS17-48"/>
       <use transform="translate(46.843624 0)scale(0.996264)" xlink:href="#CMSS17-46"/>
       <use transform="translate(72.867828 0)scale(0.996264)" xlink:href="#CMSS17-52"/>
      </g>
     </g>
    </g>
    <g id="xtick_6">
     <g id="line2d_11">
      <path clip-path="url(#p3210785bf1)" d="M 720 612 
L 720 72 
" style="fill:none;stroke:#ffffff;stroke-linecap:round;"/>
     </g>
     <g id="line2d_12"/>
     <g id="text_6">
      <!-- 0.5 -->
      <defs>
       <path d="M 14.59375 58.625 
L 39.09375 58.625 
L 39.09375 65 
L 7.296875 65 
L 7.296875 27.828125 
L 14 27.828125 
C 15.796875 31.96875 19.5 35 24.296875 35 
C 28.796875 35 33.796875 31.078125 33.796875 19.78125 
C 33.796875 7.703125 26.703125 4.171875 21.5 4.171875 
C 15.09375 4.171875 9.203125 8 6.59375 13.296875 
L 3.40625 7.796875 
C 8 0.765625 15.5 -2 21.5 -2 
C 33.09375 -2 42.203125 7.765625 42.203125 19.578125 
C 42.203125 31.71875 34.09375 41.078125 24.40625 41.078125 
C 20.90625 41.078125 17.5 39.890625 14.59375 37.484375 
z
" id="CMSS17-53"/>
      </defs>
      <g style="fill:#262626;" transform="translate(709.225972 631.4533)scale(0.18 -0.18)">
       <use transform="scale(0.996264)" xlink:href="#CMSS17-48"/>
       <use transform="translate(46.843624 0)scale(0.996264)" xlink:href="#CMSS17-46"/>
       <use transform="translate(72.867828 0)scale(0.996264)" xlink:href="#CMSS17-53"/>
      </g>
     </g>
    </g>
    <g id="xtick_7">
     <g id="line2d_13">
      <path clip-path="url(#p3210785bf1)" d="M 824.727273 612 
L 824.727273 72 
" style="fill:none;stroke:#ffffff;stroke-linecap:round;"/>
     </g>
     <g id="line2d_14"/>
     <g id="text_7">
      <!-- 0.6 -->
      <defs>
       <path d="M 39 64.078125 
C 34.796875 65.78125 31.796875 66.078125 29 66.078125 
C 16 66.078125 3.90625 52.625 3.90625 31.34375 
C 3.90625 4.140625 15.40625 -2 23.59375 -2 
C 28.09375 -2 32.59375 -0.609375 36.90625 4.375 
C 41.296875 9.640625 43 14.03125 43 21.703125 
C 43 34.046875 36.90625 45 27.796875 45 
C 21.203125 45 15.5 41.515625 12 37.125 
C 13 50.90625 19.59375 60 29.09375 60 
C 31.703125 60 35.09375 59.625 39 57.96875 
z
M 12.09375 21.390625 
C 12.09375 22.1875 12.09375 22.6875 12.203125 24.1875 
C 12.203125 31.953125 16.703125 38.921875 24 38.921875 
C 28.703125 38.921875 31.09375 36.4375 32.90625 33.359375 
C 35 29.46875 35.09375 25.78125 35.09375 21.6875 
C 35.09375 17.8125 35.09375 13.921875 32.796875 9.953125 
C 30.90625 6.859375 28.40625 4.171875 23.59375 4.171875 
C 14.09375 4.171875 12.5 17.40625 12.09375 21.390625 
z
" id="CMSS17-54"/>
      </defs>
      <g style="fill:#262626;" transform="translate(813.953245 631.4533)scale(0.18 -0.18)">
       <use transform="scale(0.996264)" xlink:href="#CMSS17-48"/>
       <use transform="translate(46.843624 0)scale(0.996264)" xlink:href="#CMSS17-46"/>
       <use transform="translate(72.867828 0)scale(0.996264)" xlink:href="#CMSS17-54"/>
      </g>
     </g>
    </g>
    <g id="xtick_8">
     <g id="line2d_15">
      <path clip-path="url(#p3210785bf1)" d="M 929.454545 612 
L 929.454545 72 
" style="fill:none;stroke:#ffffff;stroke-linecap:round;"/>
     </g>
     <g id="line2d_16"/>
     <g id="text_8">
      <!-- 0.7 -->
      <defs>
       <path d="M 21.703125 59 
C 22.90625 59 24.09375 59 25.296875 59 
L 36.796875 59 
C 22.5 42.359375 14.296875 21.328125 14.296875 -0.5 
L 22.296875 -0.5 
C 22.296875 20.671875 29.296875 42.125 43 59.296875 
L 43 65.765625 
L 3.90625 65.765625 
L 3.90625 59 
z
" id="CMSS17-55"/>
      </defs>
      <g style="fill:#262626;" transform="translate(918.680518 631.4533)scale(0.18 -0.18)">
       <use transform="scale(0.996264)" xlink:href="#CMSS17-48"/>
       <use transform="translate(46.843624 0)scale(0.996264)" xlink:href="#CMSS17-46"/>
       <use transform="translate(72.867828 0)scale(0.996264)" xlink:href="#CMSS17-55"/>
      </g>
     </g>
    </g>
    <g id="xtick_9">
     <g id="line2d_17">
      <path clip-path="url(#p3210785bf1)" d="M 1034.181818 612 
L 1034.181818 72 
" style="fill:none;stroke:#ffffff;stroke-linecap:round;"/>
     </g>
     <g id="line2d_18"/>
     <g id="text_9">
      <!-- 0.8 -->
      <defs>
       <path d="M 30.203125 34.71875 
C 37.796875 37.1875 41.703125 43.125 41.703125 48.96875 
C 41.703125 58.15625 33.703125 66.078125 23.5 66.078125 
C 12.90625 66.078125 5.203125 57.9375 5.203125 49.125 
C 5.203125 43.4375 9 37.546875 16.703125 35.015625 
C 6.90625 31.203125 3.90625 23.625 3.90625 17.953125 
C 3.90625 6.96875 12.796875 -2 23.40625 -2 
C 34.40625 -2 43 7.109375 43 17.78125 
C 43 24.328125 39.09375 31.25 30.203125 34.71875 
z
M 23.5 38 
C 16.796875 38 12.296875 42.375 12.296875 49 
C 12.296875 55.71875 16.796875 60 23.5 60 
C 29.703125 60 34.59375 56.109375 34.59375 49 
C 34.59375 41.984375 29.796875 38 23.5 38 
z
M 23.5 4.171875 
C 17.796875 4.171875 11.703125 8.078125 11.703125 18.0625 
C 11.703125 28.328125 18.5 31.921875 23.40625 31.921875 
C 28.796875 31.921875 35.203125 28.125 35.203125 18.0625 
C 35.203125 7.671875 28.59375 4.171875 23.5 4.171875 
z
" id="CMSS17-56"/>
      </defs>
      <g style="fill:#262626;" transform="translate(1023.407791 631.4533)scale(0.18 -0.18)">
       <use transform="scale(0.996264)" xlink:href="#CMSS17-48"/>
       <use transform="translate(46.843624 0)scale(0.996264)" xlink:href="#CMSS17-46"/>
       <use transform="translate(72.867828 0)scale(0.996264)" xlink:href="#CMSS17-56"/>
      </g>
     </g>
    </g>
    <g id="xtick_10">
     <g id="line2d_19">
      <path clip-path="url(#p3210785bf1)" d="M 1138.909091 612 
L 1138.909091 72 
" style="fill:none;stroke:#ffffff;stroke-linecap:round;"/>
     </g>
     <g id="line2d_20"/>
     <g id="text_10">
      <!-- 0.9 -->
      <defs>
       <path d="M 6.796875 2.71875 
C 9.59375 0.328125 13.203125 -2 19.296875 -2 
C 31.40625 -2 43 11.265625 43 32.734375 
C 43 61.4375 30.5 66.078125 23.796875 66.078125 
C 17.09375 66.078125 12.796875 63.140625 9.09375 58.453125 
C 4.703125 53.078125 3.90625 48.28125 3.90625 42.703125 
C 3.90625 36.046875 5.09375 31.953125 7.90625 27.265625 
C 11.703125 21.203125 15.203125 19.921875 19.09375 19.921875 
C 25 19.921875 30.90625 22.796875 34.90625 27.75 
C 34.203125 14.09375 28.09375 4.171875 19.296875 4.171875 
C 15.703125 4.171875 12.796875 5.296875 9.90625 8.0625 
z
M 34.59375 42.90625 
C 34.703125 42.234375 34.703125 40.96875 34.703125 40.5625 
C 34.703125 32.40625 29.90625 26 22.90625 26 
C 18.296875 26 15.90625 28.328125 14.09375 31.34375 
C 11.90625 35.140625 11.796875 38.828125 11.796875 42.703125 
C 11.796875 46.5 11.796875 50.6875 14.59375 54.859375 
C 16.703125 57.859375 19.296875 60 23.796875 60 
C 33 60 34.5 46.875 34.59375 42.90625 
z
" id="CMSS17-57"/>
      </defs>
      <g style="fill:#262626;" transform="translate(1128.135063 631.4533)scale(0.18 -0.18)">
       <use transform="scale(0.996264)" xlink:href="#CMSS17-48"/>
       <use transform="translate(46.843624 0)scale(0.996264)" xlink:href="#CMSS17-46"/>
       <use transform="translate(72.867828 0)scale(0.996264)" xlink:href="#CMSS17-57"/>
      </g>
     </g>
    </g>
    <g id="xtick_11">
     <g id="line2d_21">
      <path clip-path="url(#p3210785bf1)" d="M 1243.636364 612 
L 1243.636364 72 
" style="fill:none;stroke:#ffffff;stroke-linecap:round;"/>
     </g>
     <g id="line2d_22"/>
     <g id="text_11">
      <!-- 1.0 -->
      <g style="fill:#262626;" transform="translate(1232.862336 631.4533)scale(0.18 -0.18)">
       <use transform="scale(0.996264)" xlink:href="#CMSS17-49"/>
       <use transform="translate(46.843624 0)scale(0.996264)" xlink:href="#CMSS17-46"/>
       <use transform="translate(72.867828 0)scale(0.996264)" xlink:href="#CMSS17-48"/>
      </g>
     </g>
    </g>
    <g id="text_12">
     <!-- Frequency ternary transformations ([0-1]) -->
     <defs>
      <path d="M 45.59375 31 
L 45.59375 37.078125 
L 17.203125 37.078125 
L 17.203125 62 
L 29.40625 62 
C 30.59375 62 31.796875 62 33 62 
L 49.5 62 
L 49.5 68.359375 
L 8.796875 68.359375 
L 8.796875 -0.5 
L 17.203125 -0.5 
L 17.203125 31 
z
" id="CMSS17-70"/>
      <path d="M 14.90625 21.296875 
C 14.90625 30.703125 21.796875 37 30.59375 37 
L 30.59375 43.578125 
C 24.203125 43.578125 18.203125 40.390625 14.59375 35.203125 
L 14.59375 43.09375 
L 7.5 43.09375 
L 7.5 0 
L 14.90625 0 
z
" id="CMSS17-114"/>
      <path d="M 39.09375 21.515625 
C 39.09375 24.84375 38.90625 31.296875 35.703125 36.640625 
C 32.203125 42.390625 26.5 44 22.203125 44 
C 11.796875 44 3 34.1875 3 21.484375 
C 3 9.09375 12.09375 -1 23.59375 -1 
C 28.09375 -1 33.59375 0.296875 38.59375 3.875 
C 38.59375 4.28125 38.40625 6.46875 38.296875 6.5625 
C 38.296875 6.765625 38 9.84375 38 10.25 
C 33.203125 6.359375 27.703125 5.078125 23.703125 5.078125 
C 17.296875 5.078125 10.40625 10.421875 10.09375 21.515625 
z
M 10.90625 27 
C 12.203125 32.5625 16.59375 37.828125 22.203125 37.828125 
C 23.703125 37.828125 30.703125 37.828125 32.5 27 
z
" id="CMSS17-101"/>
      <path d="M 40.796875 44 
L 33.40625 44 
L 33.40625 37.9375 
C 33 38.4375 28.40625 44 20.59375 44 
C 11.5 44 3.296875 34.8125 3.296875 21.859375 
C 3.296875 9.890625 10.203125 -0.078125 19.203125 -0.078125 
C 23.40625 -0.078125 28.703125 1.421875 33.203125 5.703125 
L 33.203125 -19 
L 40.796875 -19 
z
M 33.40625 14.28125 
C 33.40625 13 33.40625 11.21875 30.296875 8.65625 
C 29.5 7.96875 27.296875 6 23.5 6 
C 16.40625 6 10.90625 13.28125 10.90625 21.859375 
C 10.90625 31.421875 17.59375 37.734375 24.40625 37.734375 
C 30.09375 37.734375 33.40625 32.203125 33.40625 28.078125 
z
" id="CMSS17-113"/>
      <path d="M 40.90625 42.796875 
L 33.296875 42.796875 
L 33.296875 15.1875 
C 33.296875 7.78125 27.90625 4.78125 22.203125 4.78125 
C 15.59375 4.78125 15 6.984375 15 11.078125 
L 15 42.796875 
L 7.40625 42.796875 
L 7.40625 10.59375 
C 7.40625 2.796875 10.09375 -1 17 -1 
C 20.40625 -1 28.09375 -0.203125 33.5 4.78125 
L 33.5 0 
L 40.90625 0 
z
" id="CMSS17-117"/>
      <path d="M 40.90625 29.328125 
C 40.90625 35.671875 39.40625 44 28.09375 44 
C 21.703125 44 17.5 40.71875 14.703125 37.328125 
L 14.703125 43.09375 
L 7.40625 43.09375 
L 7.40625 0 
L 15 0 
L 15 24.359375 
C 15 30.6875 17.40625 37.9375 24.203125 37.9375 
C 33 37.9375 33.296875 32 33.296875 28.578125 
L 33.296875 0 
L 40.90625 0 
z
" id="CMSS17-110"/>
      <path d="M 38.5 39.703125 
C 38.5 40.390625 33.90625 42.40625 32.703125 42.796875 
C 29.40625 44 25.203125 44 24.09375 44 
C 11.09375 44 3.296875 32.703125 3.296875 21.296875 
C 3.296875 9.296875 12 -1 23.703125 -1 
C 30.40625 -1 35.203125 1.1875 39.09375 3.78125 
L 38.5 10.375 
C 34.203125 7.078125 29.203125 5.265625 23.796875 5.265625 
C 16 5.265625 10.90625 12.09375 10.90625 21.390625 
C 10.90625 28.609375 14.203125 37.71875 24.203125 37.71875 
C 29.703125 37.71875 32.796875 36.609375 37.40625 33.515625 
z
" id="CMSS17-99"/>
      <path d="M 41.796875 43 
L 34 43 
C 25.5 20.21875 22.59375 10.96875 22.40625 5.984375 
L 22.296875 5.984375 
C 22 10.875 17.59375 22.8125 14.09375 31.359375 
L 9.40625 43 
L 1.296875 43 
L 19 0.203125 
C 17.90625 -2.78125 16.296875 -7.265625 15.796875 -8.265625 
C 13.59375 -13.828125 12.09375 -13.828125 10.5 -13.828125 
C 10.09375 -13.828125 6.90625 -13.828125 3.296875 -12.640625 
L 3.90625 -19.203125 
C 6.40625 -19.703125 8.90625 -20 10.703125 -20 
C 13.203125 -20 18.203125 -20 22.796875 -7.765625 
z
" id="CMSS17-121"/>
      <path d="M 16.703125 37 
L 29.703125 37 
L 29.703125 42.765625 
L 16.703125 42.765625 
L 16.703125 55 
L 9.59375 55 
L 9.59375 42.765625 
L 1.703125 42.765625 
L 1.703125 37 
L 9.40625 37 
L 9.40625 11.703125 
C 9.40625 6 10.703125 -1 17.296875 -1 
C 22.296875 -1 26.90625 0.390625 31.296875 2.6875 
L 29.703125 8.5625 
C 27.296875 6.46875 24.40625 5.265625 21.296875 5.265625 
C 16.90625 5.265625 16.703125 10.875 16.703125 13.375 
z
" id="CMSS17-116"/>
      <path d="M 37.59375 27.984375 
C 37.59375 37.375 30.90625 43.875 21.90625 43.875 
C 17.5 43.875 12.703125 43.078125 7.203125 39.890625 
L 7.796875 33.359375 
C 10.296875 35.125 14.59375 38 21.796875 38 
C 26.90625 38 30 34.0625 30 27.84375 
L 30 24 
C 14 24 4 19.34375 4 11.34375 
C 4 7.203125 6.5 -1 14.796875 -1 
C 16.296875 -1 24.40625 -1 30.203125 3.390625 
L 30.203125 -0.296875 
L 37.59375 -0.296875 
z
M 30 12.75 
C 30 10.953125 30 8.5625 27 6.78125 
C 24.40625 5.078125 21.09375 5.078125 19.703125 5.078125 
C 14.703125 5.078125 11.296875 7.984375 11.296875 11.625 
C 11.296875 18.921875 26.90625 18.921875 30 18.921875 
z
" id="CMSS17-97"/>
      <path d="M 32.203125 41.046875 
C 26.296875 43.859375 21.703125 43.859375 18.703125 43.859375 
C 11.59375 43.859375 3.09375 41.375 3.09375 31.296875 
C 3.09375 21.234375 14.09375 19.03125 17.09375 18.421875 
C 21.703125 17.53125 26.796875 16.53125 26.796875 11.5625 
C 26.796875 5.265625 19.59375 5.265625 18.296875 5.265625 
C 14.296875 5.265625 8.796875 6.359375 3.796875 9.96875 
L 2.59375 3.28125 
C 8.296875 0 13.796875 -1 18.40625 -1 
C 30.703125 -1 33.796875 6.5 33.796875 12.203125 
C 33.796875 17.09375 31 20.390625 29.09375 21.890625 
C 25.796875 24.5 24.59375 24.796875 16.40625 26.5 
C 15 26.703125 10.09375 27.796875 10.09375 32.28125 
C 10.09375 38 16.40625 38 17.796875 38 
C 24.296875 38 28.296875 35.984375 31 34.5 
z
" id="CMSS17-115"/>
      <path d="M 16.796875 37 
L 26.90625 37 
L 26.90625 42.765625 
L 16.59375 42.765625 
L 16.59375 55.609375 
C 16.59375 62.71875 22 63.9375 25.09375 63.9375 
C 26.09375 63.9375 28.90625 63.9375 32.5 62.640625 
L 32.5 69.203125 
C 30.203125 69.703125 27.40625 70 25.203125 70 
C 15.90625 70 9.40625 62.390625 9.40625 52.484375 
L 9.40625 42.765625 
L 2.5 42.765625 
L 2.5 37 
L 9.40625 37 
L 9.40625 0 
L 16.796875 0 
z
" id="CMSS17-102"/>
      <path d="M 44.203125 21.1875 
C 44.203125 34 34.703125 44 23.5 44 
C 12 44 2.703125 33.703125 2.703125 21.1875 
C 2.703125 8.5 12.296875 -1 23.40625 -1 
C 34.796875 -1 44.203125 8.796875 44.203125 21.1875 
z
M 23.5 5.265625 
C 16.40625 5.265625 10.296875 11.078125 10.296875 22 
C 10.296875 33.609375 17.40625 37.921875 23.40625 37.921875 
C 29.90625 37.921875 36.59375 33.21875 36.59375 22 
C 36.59375 10.671875 30.09375 5.265625 23.5 5.265625 
z
" id="CMSS17-111"/>
      <path d="M 67 29.328125 
C 67 36.0625 65.296875 44 54.09375 44 
C 46.59375 44 42.09375 39.3125 40.09375 36.421875 
C 38.296875 41.71875 34.09375 44 28.09375 44 
C 21.296875 44 17 40.125 14.703125 37.328125 
L 14.703125 43.09375 
L 7.40625 43.09375 
L 7.40625 0 
L 15 0 
L 15 24.359375 
C 15 30.296875 17.203125 37.9375 24.296875 37.9375 
C 33.40625 37.9375 33.40625 31.5 33.40625 28.578125 
L 33.40625 0 
L 41 0 
L 41 24.359375 
C 41 30.296875 43.203125 37.9375 50.296875 37.9375 
C 59.40625 37.9375 59.40625 31.5 59.40625 28.578125 
L 59.40625 0 
L 67 0 
z
" id="CMSS17-109"/>
      <path d="M 15.296875 65.359375 
L 6.90625 65.359375 
L 6.90625 57 
L 15.296875 57 
z
M 14.796875 42.796875 
L 7.40625 42.796875 
L 7.40625 0 
L 14.796875 0 
z
" id="CMSS17-105"/>
      <path d="M 25.203125 74.5 
C 19.796875 69.015625 7.40625 56.265625 7.40625 24.8125 
C 7.40625 -6.765625 19.796875 -19.421875 25.203125 -25 
L 31.296875 -25 
C 19 -12.25 15 5.578125 15 24.703125 
C 15 43.71875 18.796875 61.65625 31.296875 74.5 
z
" id="CMSS17-40"/>
      <path d="M 25.203125 -25 
L 25.203125 -18.9375 
L 16.59375 -18.9375 
L 16.59375 68 
L 25.203125 68 
L 25.203125 74.078125 
L 9.296875 74.078125 
L 9.296875 -25 
z
" id="CMSS17-91"/>
      <path d="M 26 19 
L 26 24.765625 
L 1 24.765625 
L 1 19 
z
" id="CMSS17-45"/>
      <path d="M 17.90625 74.078125 
L 2 74.078125 
L 2 68 
L 10.59375 68 
L 10.59375 -18.9375 
L 2 -18.9375 
L 2 -25 
L 17.90625 -25 
z
" id="CMSS17-93"/>
      <path d="M 11.296875 -25 
C 16.703125 -19.515625 29.09375 -6.765625 29.09375 24.703125 
C 29.09375 56.265625 16.703125 68.921875 11.296875 74.5 
L 5.203125 74.5 
C 17.5 61.75 21.5 43.921875 21.5 24.8125 
C 21.5 5.78125 17.703125 -12.15625 5.203125 -25 
z
" id="CMSS17-41"/>
     </defs>
     <g style="fill:#262626;" transform="translate(541.858422 666.359989)scale(0.22 -0.22)">
      <use transform="scale(0.996264)" xlink:href="#CMSS17-70"/>
      <use transform="translate(50.687105 0)scale(0.996264)" xlink:href="#CMSS17-114"/>
      <use transform="translate(82.596878 0)scale(0.996264)" xlink:href="#CMSS17-101"/>
      <use transform="translate(124.2357 0)scale(0.996264)" xlink:href="#CMSS17-113"/>
      <use transform="translate(172.440643 0)scale(0.996264)" xlink:href="#CMSS17-117"/>
      <use transform="translate(220.645586 0)scale(0.996264)" xlink:href="#CMSS17-101"/>
      <use transform="translate(262.284408 0)scale(0.996264)" xlink:href="#CMSS17-110"/>
      <use transform="translate(310.489351 0)scale(0.996264)" xlink:href="#CMSS17-99"/>
      <use transform="translate(352.128174 0)scale(0.996264)" xlink:href="#CMSS17-121"/>
      <use transform="translate(426.357428 0)scale(0.996264)" xlink:href="#CMSS17-116"/>
      <use transform="translate(460.188995 0)scale(0.996264)" xlink:href="#CMSS17-101"/>
      <use transform="translate(501.827817 0)scale(0.996264)" xlink:href="#CMSS17-114"/>
      <use transform="translate(533.737589 0)scale(0.996264)" xlink:href="#CMSS17-110"/>
      <use transform="translate(581.942532 0)scale(0.996264)" xlink:href="#CMSS17-97"/>
      <use transform="translate(624.261999 0)scale(0.996264)" xlink:href="#CMSS17-114"/>
      <use transform="translate(656.171772 0)scale(0.996264)" xlink:href="#CMSS17-121"/>
      <use transform="translate(730.401026 0)scale(0.996264)" xlink:href="#CMSS17-116"/>
      <use transform="translate(764.232593 0)scale(0.996264)" xlink:href="#CMSS17-114"/>
      <use transform="translate(796.142365 0)scale(0.996264)" xlink:href="#CMSS17-97"/>
      <use transform="translate(841.064286 0)scale(0.996264)" xlink:href="#CMSS17-110"/>
      <use transform="translate(889.269229 0)scale(0.996264)" xlink:href="#CMSS17-115"/>
      <use transform="translate(925.182771 0)scale(0.996264)" xlink:href="#CMSS17-102"/>
      <use transform="translate(953.80943 0)scale(0.996264)" xlink:href="#CMSS17-111"/>
      <use transform="translate(998.050599 0)scale(0.996264)" xlink:href="#CMSS17-114"/>
      <use transform="translate(1029.960372 0)scale(0.996264)" xlink:href="#CMSS17-109"/>
      <use transform="translate(1104.189626 0)scale(0.996264)" xlink:href="#CMSS17-97"/>
      <use transform="translate(1149.111547 0)scale(0.996264)" xlink:href="#CMSS17-116"/>
      <use transform="translate(1182.943114 0)scale(0.996264)" xlink:href="#CMSS17-105"/>
      <use transform="translate(1205.123837 0)scale(0.996264)" xlink:href="#CMSS17-111"/>
      <use transform="translate(1251.96746 0)scale(0.996264)" xlink:href="#CMSS17-110"/>
      <use transform="translate(1300.172403 0)scale(0.996264)" xlink:href="#CMSS17-115"/>
      <use transform="translate(1367.315058 0)scale(0.996264)" xlink:href="#CMSS17-40"/>
      <use transform="translate(1403.748972 0)scale(0.996264)" xlink:href="#CMSS17-91"/>
      <use transform="translate(1430.934411 0)scale(0.996264)" xlink:href="#CMSS17-48"/>
      <use transform="translate(1477.778035 0)scale(0.996264)" xlink:href="#CMSS17-45"/>
      <use transform="translate(1509.007147 0)scale(0.996264)" xlink:href="#CMSS17-49"/>
      <use transform="translate(1555.850771 0)scale(0.996264)" xlink:href="#CMSS17-93"/>
      <use transform="translate(1583.036209 0)scale(0.996264)" xlink:href="#CMSS17-41"/>
     </g>
    </g>
   </g>
   <g id="matplotlib.axis_2">
    <g id="ytick_1">
     <g id="line2d_23">
      <path clip-path="url(#p3210785bf1)" d="M 144 612 
L 1296 612 
" style="fill:none;stroke:#ffffff;stroke-linecap:round;"/>
     </g>
     <g id="line2d_24"/>
     <g id="text_13">
      <!-- $0$ -->
      <defs>
       <path d="M 42 31.640625 
C 42 37.75 41.90625 48.125 37.703125 56.109375 
C 34 63.109375 28.09375 65.59375 22.90625 65.59375 
C 18.09375 65.59375 12 63.40625 8.203125 56.203125 
C 4.203125 48.71875 3.796875 39.4375 3.796875 31.640625 
C 3.796875 25.953125 3.90625 17.28125 7 9.671875 
C 11.296875 -0.609375 19 -2 22.90625 -2 
C 27.5 -2 34.5 -0.109375 38.59375 9.375 
C 41.59375 16.28125 42 24.359375 42 31.640625 
z
M 22.90625 -0.40625 
C 16.5 -0.40625 12.703125 5.078125 11.296875 12.6875 
C 10.203125 18.5625 10.203125 27.15625 10.203125 32.75 
C 10.203125 40.4375 10.203125 46.828125 11.5 52.921875 
C 13.40625 61.390625 19 64 22.90625 64 
C 27 64 32.296875 61.296875 34.203125 53.125 
C 35.5 47.4375 35.59375 40.734375 35.59375 32.75 
C 35.59375 26.25 35.59375 18.265625 34.40625 12.375 
C 32.296875 1.484375 26.40625 -0.40625 22.90625 -0.40625 
z
" id="CMR17-48"/>
      </defs>
      <g style="fill:#262626;" transform="translate(128.775714 618.22665)scale(0.18 -0.18)">
       <use transform="scale(0.996264)" xlink:href="#CMR17-48"/>
      </g>
     </g>
    </g>
    <g id="ytick_2">
     <g id="line2d_25">
      <path clip-path="url(#p3210785bf1)" d="M 144 534.857143 
L 1296 534.857143 
" style="fill:none;stroke:#ffffff;stroke-linecap:round;"/>
     </g>
     <g id="line2d_26"/>
     <g id="text_14">
      <!-- $50$ -->
      <defs>
       <path d="M 11.40625 57.6875 
C 12.40625 57.28125 16.5 56 20.703125 56 
C 30 56 35.09375 61.109375 38 64.0625 
C 38 64.953125 38 65.5 37.40625 65.5 
C 37.296875 65.5 37.09375 65.5 36.296875 65.046875 
C 32.796875 63.40625 28.703125 62.078125 23.703125 62.078125 
C 20.703125 62.078125 16.203125 62.484375 11.296875 64.671875 
C 10.203125 65.171875 10 65.171875 9.90625 65.171875 
C 9.40625 65.171875 9.296875 65.0625 9.296875 63.078125 
L 9.296875 34.421875 
C 9.296875 32.640625 9.296875 32.140625 10.296875 32.140625 
C 10.796875 32.140625 11 32.34375 11.5 33.03125 
C 14.703125 37.515625 19.09375 39.40625 24.09375 39.40625 
C 27.59375 39.40625 35.09375 37.21875 35.09375 20.140625 
C 35.09375 16.953125 35.09375 11.171875 32.09375 6.578125 
C 29.59375 2.484375 25.703125 0.390625 21.40625 0.390625 
C 14.796875 0.390625 8.09375 5 6.296875 12.71875 
C 6.703125 12.609375 7.5 12.421875 7.90625 12.421875 
C 9.203125 12.421875 11.703125 13.125 11.703125 16.21875 
C 11.703125 18.90625 9.796875 20 7.90625 20 
C 5.59375 20 4.09375 18.59375 4.09375 15.796875 
C 4.09375 7.09375 11 -2 21.59375 -2 
C 31.90625 -2 41.703125 6.875 41.703125 19.75 
C 41.703125 31.71875 33.90625 41 24.203125 41 
C 19.09375 41 14.796875 39.109375 11.40625 35.53125 
z
" id="CMR17-53"/>
      </defs>
      <g style="fill:#262626;" transform="translate(120.551428 541.083793)scale(0.18 -0.18)">
       <use transform="scale(0.996264)" xlink:href="#CMR17-53"/>
       <use transform="translate(45.690477 0)scale(0.996264)" xlink:href="#CMR17-48"/>
      </g>
     </g>
    </g>
    <g id="ytick_3">
     <g id="line2d_27">
      <path clip-path="url(#p3210785bf1)" d="M 144 457.714286 
L 1296 457.714286 
" style="fill:none;stroke:#ffffff;stroke-linecap:round;"/>
     </g>
     <g id="line2d_28"/>
     <g id="text_15">
      <!-- $100$ -->
      <defs>
       <path d="M 26.59375 63.40625 
C 26.59375 65.5 26.5 65.5 25.09375 65.5 
C 21.203125 61.1875 15.296875 59.796875 9.703125 59.796875 
C 9.40625 59.796875 8.90625 59.796875 8.796875 59.5 
C 8.703125 59.296875 8.703125 59.09375 8.703125 57 
C 11.796875 57 17 57.59375 21 59.984375 
L 21 7.203125 
C 21 3.6875 20.796875 2.5 12.203125 2.5 
L 9.203125 2.5 
L 9.203125 0 
C 14 0 19 0 23.796875 0 
C 28.59375 0 33.59375 0 38.40625 0 
L 38.40625 2.5 
L 35.40625 2.5 
C 26.796875 2.5 26.59375 3.59375 26.59375 7.15625 
z
" id="CMR17-49"/>
      </defs>
      <g style="fill:#262626;" transform="translate(112.327142 463.940936)scale(0.18 -0.18)">
       <use transform="scale(0.996264)" xlink:href="#CMR17-49"/>
       <use transform="translate(45.690477 0)scale(0.996264)" xlink:href="#CMR17-48"/>
       <use transform="translate(91.380954 0)scale(0.996264)" xlink:href="#CMR17-48"/>
      </g>
     </g>
    </g>
    <g id="ytick_4">
     <g id="line2d_29">
      <path clip-path="url(#p3210785bf1)" d="M 144 380.571429 
L 1296 380.571429 
" style="fill:none;stroke:#ffffff;stroke-linecap:round;"/>
     </g>
     <g id="line2d_30"/>
     <g id="text_16">
      <!-- $150$ -->
      <g style="fill:#262626;" transform="translate(112.327142 386.798079)scale(0.18 -0.18)">
       <use transform="scale(0.996264)" xlink:href="#CMR17-49"/>
       <use transform="translate(45.690477 0)scale(0.996264)" xlink:href="#CMR17-53"/>
       <use transform="translate(91.380954 0)scale(0.996264)" xlink:href="#CMR17-48"/>
      </g>
     </g>
    </g>
    <g id="ytick_5">
     <g id="line2d_31">
      <path clip-path="url(#p3210785bf1)" d="M 144 303.428571 
L 1296 303.428571 
" style="fill:none;stroke:#ffffff;stroke-linecap:round;"/>
     </g>
     <g id="line2d_32"/>
     <g id="text_17">
      <!-- $200$ -->
      <defs>
       <path d="M 41.703125 15.453125 
L 39.90625 15.453125 
C 38.90625 8.375 38.09375 7.171875 37.703125 6.5625 
C 37.203125 5.765625 30 5.765625 28.59375 5.765625 
L 9.40625 5.765625 
C 13 9.671875 20 16.75 28.5 24.953125 
C 34.59375 30.734375 41.703125 37.53125 41.703125 47.421875 
C 41.703125 59.21875 32.296875 66 21.796875 66 
C 10.796875 66 4.09375 56.3125 4.09375 47.34375 
C 4.09375 43.4375 7 42.9375 8.203125 42.9375 
C 9.203125 42.9375 12.203125 43.546875 12.203125 47.03125 
C 12.203125 50.109375 9.59375 51 8.203125 51 
C 7.59375 51 7 50.90625 6.59375 50.703125 
C 8.5 59.21875 14.296875 63.40625 20.40625 63.40625 
C 29.09375 63.40625 34.796875 56.515625 34.796875 47.421875 
C 34.796875 38.734375 29.703125 31.25 24 24.75 
L 4.09375 2.28125 
L 4.09375 0 
L 39.296875 0 
z
" id="CMR17-50"/>
      </defs>
      <g style="fill:#262626;" transform="translate(112.327142 309.655221)scale(0.18 -0.18)">
       <use transform="scale(0.996264)" xlink:href="#CMR17-50"/>
       <use transform="translate(45.690477 0)scale(0.996264)" xlink:href="#CMR17-48"/>
       <use transform="translate(91.380954 0)scale(0.996264)" xlink:href="#CMR17-48"/>
      </g>
     </g>
    </g>
    <g id="ytick_6">
     <g id="line2d_33">
      <path clip-path="url(#p3210785bf1)" d="M 144 226.285714 
L 1296 226.285714 
" style="fill:none;stroke:#ffffff;stroke-linecap:round;"/>
     </g>
     <g id="line2d_34"/>
     <g id="text_18">
      <!-- $250$ -->
      <g style="fill:#262626;" transform="translate(112.327142 232.512364)scale(0.18 -0.18)">
       <use transform="scale(0.996264)" xlink:href="#CMR17-50"/>
       <use transform="translate(45.690477 0)scale(0.996264)" xlink:href="#CMR17-53"/>
       <use transform="translate(91.380954 0)scale(0.996264)" xlink:href="#CMR17-48"/>
      </g>
     </g>
    </g>
    <g id="ytick_7">
     <g id="line2d_35">
      <path clip-path="url(#p3210785bf1)" d="M 144 149.142857 
L 1296 149.142857 
" style="fill:none;stroke:#ffffff;stroke-linecap:round;"/>
     </g>
     <g id="line2d_36"/>
     <g id="text_19">
      <!-- $300$ -->
      <defs>
       <path d="M 22.09375 33.703125 
C 31 33.703125 34.90625 25.96875 34.90625 17.03125 
C 34.90625 5 28.5 0.390625 22.703125 0.390625 
C 17.40625 0.390625 8.796875 3.03125 6.09375 10.828125 
C 6.59375 10.625 7.09375 10.625 7.59375 10.625 
C 10 10.625 11.796875 12.21875 11.796875 14.8125 
C 11.796875 17.703125 9.59375 19 7.59375 19 
C 5.90625 19 3.296875 18.203125 3.296875 14.46875 
C 3.296875 5.234375 12.296875 -2 22.90625 -2 
C 34 -2 42.5 6.71875 42.5 16.953125 
C 42.5 26.671875 34.5 33.703125 25 34.796875 
C 32.59375 36.375 39.90625 43.0625 39.90625 52.015625 
C 39.90625 59.6875 32 65.296875 23 65.296875 
C 13.90625 65.296875 5.90625 59.828125 5.90625 52.015625 
C 5.90625 48.59375 8.5 48 9.796875 48 
C 11.90625 48 13.703125 49.296875 13.703125 51.890625 
C 13.703125 54.46875 11.90625 55.765625 9.796875 55.765625 
C 9.40625 55.765625 8.90625 55.765625 8.5 55.578125 
C 11.40625 61.859375 19.296875 63 22.796875 63 
C 26.296875 63 32.90625 61.328125 32.90625 51.875 
C 32.90625 49.109375 32.5 44.1875 29.09375 39.84375 
C 26.09375 36 22.703125 36 19.40625 35.6875 
C 18.90625 35.6875 16.59375 35.453125 16.203125 35.453125 
C 15.5 35.359375 15.09375 35.265625 15.09375 34.5 
C 15.09375 33.796875 15.203125 33.703125 17.203125 33.703125 
z
" id="CMR17-51"/>
      </defs>
      <g style="fill:#262626;" transform="translate(112.327142 155.369507)scale(0.18 -0.18)">
       <use transform="scale(0.996264)" xlink:href="#CMR17-51"/>
       <use transform="translate(45.690477 0)scale(0.996264)" xlink:href="#CMR17-48"/>
       <use transform="translate(91.380954 0)scale(0.996264)" xlink:href="#CMR17-48"/>
      </g>
     </g>
    </g>
    <g id="ytick_8">
     <g id="line2d_37">
      <path clip-path="url(#p3210785bf1)" d="M 144 72 
L 1296 72 
" style="fill:none;stroke:#ffffff;stroke-linecap:round;"/>
     </g>
     <g id="line2d_38"/>
     <g id="text_20">
      <!-- $350$ -->
      <g style="fill:#262626;" transform="translate(112.327142 78.22665)scale(0.18 -0.18)">
       <use transform="scale(0.996264)" xlink:href="#CMR17-51"/>
       <use transform="translate(45.690477 0)scale(0.996264)" xlink:href="#CMR17-53"/>
       <use transform="translate(91.380954 0)scale(0.996264)" xlink:href="#CMR17-48"/>
      </g>
     </g>
    </g>
    <g id="text_21">
     <!-- Execution time (ms) -->
     <defs>
      <path d="M 30.59375 6.765625 
C 22.59375 6.765625 19 6.765625 17.203125 6.765625 
L 17.203125 32.921875 
L 48.203125 32.921875 
L 48.203125 39 
L 17.203125 39 
L 17.203125 62.640625 
L 30.09375 62.640625 
C 31.296875 62.640625 32.5 62.640625 33.703125 62.640625 
L 50.796875 62.640625 
L 50.796875 69 
L 8.796875 69 
L 8.796875 0 
L 52.09375 0 
L 52.09375 6.765625 
z
" id="CMSS17-69"/>
      <path d="M 24.796875 22.09375 
L 41.5 42.796875 
L 32.796875 42.796875 
L 21.296875 27.765625 
L 9.40625 42.796875 
L 0.5 42.796875 
L 17.796875 22.09375 
L 0 0 
L 8.796875 0 
L 21.296875 17.515625 
L 34.296875 0 
L 43.09375 0 
z
" id="CMSS17-120"/>
     </defs>
     <g style="fill:#262626;" transform="translate(91.866024 429.866279)rotate(-90)scale(0.22 -0.22)">
      <use transform="scale(0.996264)" xlink:href="#CMSS17-69"/>
      <use transform="translate(55.892013 0)scale(0.996264)" xlink:href="#CMSS17-120"/>
      <use transform="translate(98.892155 0)scale(0.996264)" xlink:href="#CMSS17-101"/>
      <use transform="translate(140.530977 0)scale(0.996264)" xlink:href="#CMSS17-99"/>
      <use transform="translate(182.169799 0)scale(0.996264)" xlink:href="#CMSS17-117"/>
      <use transform="translate(230.374742 0)scale(0.996264)" xlink:href="#CMSS17-116"/>
      <use transform="translate(264.206309 0)scale(0.996264)" xlink:href="#CMSS17-105"/>
      <use transform="translate(286.387032 0)scale(0.996264)" xlink:href="#CMSS17-111"/>
      <use transform="translate(333.230655 0)scale(0.996264)" xlink:href="#CMSS17-110"/>
      <use transform="translate(412.664711 0)scale(0.996264)" xlink:href="#CMSS17-116"/>
      <use transform="translate(446.496278 0)scale(0.996264)" xlink:href="#CMSS17-105"/>
      <use transform="translate(468.677001 0)scale(0.996264)" xlink:href="#CMSS17-109"/>
      <use transform="translate(542.906255 0)scale(0.996264)" xlink:href="#CMSS17-101"/>
      <use transform="translate(615.77419 0)scale(0.996264)" xlink:href="#CMSS17-40"/>
      <use transform="translate(652.208104 0)scale(0.996264)" xlink:href="#CMSS17-109"/>
      <use transform="translate(726.437359 0)scale(0.996264)" xlink:href="#CMSS17-115"/>
      <use transform="translate(762.350901 0)scale(0.996264)" xlink:href="#CMSS17-41"/>
     </g>
    </g>
   </g>
   <g id="line2d_39">
    <path clip-path="url(#p3210785bf1)" d="M 170.181818 369.649929 
L 222.545455 369.649929 
L 222.545455 293.492571 
L 170.181818 293.492571 
L 170.181818 369.649929 
" style="fill:none;stroke:#4c72b0;stroke-linecap:round;"/>
   </g>
   <g id="line2d_40">
    <path clip-path="url(#p3210785bf1)" d="M 196.363636 369.649929 
L 196.363636 480.348 
" style="fill:none;stroke:#4c72b0;stroke-linecap:round;"/>
   </g>
   <g id="line2d_41">
    <path clip-path="url(#p3210785bf1)" d="M 196.363636 293.492571 
L 196.363636 192.574286 
" style="fill:none;stroke:#4c72b0;stroke-linecap:round;"/>
   </g>
   <g id="line2d_42">
    <path clip-path="url(#p3210785bf1)" d="M 183.272727 480.348 
L 209.454545 480.348 
" style="fill:none;stroke:#000000;stroke-linecap:round;"/>
   </g>
   <g id="line2d_43">
    <path clip-path="url(#p3210785bf1)" d="M 183.272727 192.574286 
L 209.454545 192.574286 
" style="fill:none;stroke:#000000;stroke-linecap:round;"/>
   </g>
   <g id="line2d_44">
    <defs>
     <path d="M 0 3 
C 0.795609 3 1.55874 2.683901 2.12132 2.12132 
C 2.683901 1.55874 3 0.795609 3 0 
C 3 -0.795609 2.683901 -1.55874 2.12132 -2.12132 
C 1.55874 -2.683901 0.795609 -3 0 -3 
C -0.795609 -3 -1.55874 -2.683901 -2.12132 -2.12132 
C -2.683901 -1.55874 -3 -0.795609 -3 0 
C -3 0.795609 -2.683901 1.55874 -2.12132 2.12132 
C -1.55874 2.683901 -0.795609 3 0 3 
z
" id="m3a83e26ce8"/>
    </defs>
    <g clip-path="url(#p3210785bf1)">
     <use style="fill-opacity:0;" x="196.363636" xlink:href="#m3a83e26ce8" y="113.58"/>
     <use style="fill-opacity:0;" x="196.363636" xlink:href="#m3a83e26ce8" y="104.184"/>
     <use style="fill-opacity:0;" x="196.363636" xlink:href="#m3a83e26ce8" y="62.403429"/>
     <use style="fill-opacity:0;" x="196.363636" xlink:href="#m3a83e26ce8" y="85.091143"/>
     <use style="fill-opacity:0;" x="196.363636" xlink:href="#m3a83e26ce8" y="170.773714"/>
     <use style="fill-opacity:0;" x="196.363636" xlink:href="#m3a83e26ce8" y="168.675429"/>
     <use style="fill-opacity:0;" x="196.363636" xlink:href="#m3a83e26ce8" y="46.473429"/>
     <use style="fill-opacity:0;" x="196.363636" xlink:href="#m3a83e26ce8" y="-1"/>
     <use style="fill-opacity:0;" x="196.363636" xlink:href="#m3a83e26ce8" y="-1"/>
     <use style="fill-opacity:0;" x="196.363636" xlink:href="#m3a83e26ce8" y="152.321143"/>
     <use style="fill-opacity:0;" x="196.363636" xlink:href="#m3a83e26ce8" y="-1"/>
     <use style="fill-opacity:0;" x="196.363636" xlink:href="#m3a83e26ce8" y="-1"/>
     <use style="fill-opacity:0;" x="196.363636" xlink:href="#m3a83e26ce8" y="95.698286"/>
     <use style="fill-opacity:0;" x="196.363636" xlink:href="#m3a83e26ce8" y="120.036857"/>
     <use style="fill-opacity:0;" x="196.363636" xlink:href="#m3a83e26ce8" y="13.309714"/>
     <use style="fill-opacity:0;" x="196.363636" xlink:href="#m3a83e26ce8" y="97.626857"/>
     <use style="fill-opacity:0;" x="196.363636" xlink:href="#m3a83e26ce8" y="-1"/>
     <use style="fill-opacity:0;" x="196.363636" xlink:href="#m3a83e26ce8" y="-1"/>
     <use style="fill-opacity:0;" x="196.363636" xlink:href="#m3a83e26ce8" y="88.686"/>
     <use style="fill-opacity:0;" x="196.363636" xlink:href="#m3a83e26ce8" y="21.988286"/>
    </g>
   </g>
   <g id="line2d_45">
    <path clip-path="url(#p3210785bf1)" d="M 274.909091 356.880857 
L 327.272727 356.880857 
L 327.272727 270.623571 
L 274.909091 270.623571 
L 274.909091 356.880857 
" style="fill:none;stroke:#4c72b0;stroke-linecap:round;"/>
   </g>
   <g id="line2d_46">
    <path clip-path="url(#p3210785bf1)" d="M 301.090909 356.880857 
L 301.090909 477.570857 
" style="fill:none;stroke:#4c72b0;stroke-linecap:round;"/>
   </g>
   <g id="line2d_47">
    <path clip-path="url(#p3210785bf1)" d="M 301.090909 270.623571 
L 301.090909 148.988571 
" style="fill:none;stroke:#4c72b0;stroke-linecap:round;"/>
   </g>
   <g id="line2d_48">
    <path clip-path="url(#p3210785bf1)" d="M 288 477.570857 
L 314.181818 477.570857 
" style="fill:none;stroke:#000000;stroke-linecap:round;"/>
   </g>
   <g id="line2d_49">
    <path clip-path="url(#p3210785bf1)" d="M 288 148.988571 
L 314.181818 148.988571 
" style="fill:none;stroke:#000000;stroke-linecap:round;"/>
   </g>
   <g id="line2d_50">
    <g clip-path="url(#p3210785bf1)">
     <use style="fill-opacity:0;" x="301.090909" xlink:href="#m3a83e26ce8" y="125.259429"/>
     <use style="fill-opacity:0;" x="301.090909" xlink:href="#m3a83e26ce8" y="-1"/>
     <use style="fill-opacity:0;" x="301.090909" xlink:href="#m3a83e26ce8" y="-1"/>
     <use style="fill-opacity:0;" x="301.090909" xlink:href="#m3a83e26ce8" y="85.222286"/>
     <use style="fill-opacity:0;" x="301.090909" xlink:href="#m3a83e26ce8" y="43.788857"/>
     <use style="fill-opacity:0;" x="301.090909" xlink:href="#m3a83e26ce8" y="110.887714"/>
     <use style="fill-opacity:0;" x="301.090909" xlink:href="#m3a83e26ce8" y="124.781143"/>
     <use style="fill-opacity:0;" x="301.090909" xlink:href="#m3a83e26ce8" y="123.045429"/>
     <use style="fill-opacity:0;" x="301.090909" xlink:href="#m3a83e26ce8" y="40.934571"/>
     <use style="fill-opacity:0;" x="301.090909" xlink:href="#m3a83e26ce8" y="122.736857"/>
     <use style="fill-opacity:0;" x="301.090909" xlink:href="#m3a83e26ce8" y="103.798286"/>
    </g>
   </g>
   <g id="line2d_51">
    <path clip-path="url(#p3210785bf1)" d="M 379.636364 367.0155 
L 432 367.0155 
L 432 273.940714 
L 379.636364 273.940714 
L 379.636364 367.0155 
" style="fill:none;stroke:#4c72b0;stroke-linecap:round;"/>
   </g>
   <g id="line2d_52">
    <path clip-path="url(#p3210785bf1)" d="M 405.818182 367.0155 
L 405.818182 465.490286 
" style="fill:none;stroke:#4c72b0;stroke-linecap:round;"/>
   </g>
   <g id="line2d_53">
    <path clip-path="url(#p3210785bf1)" d="M 405.818182 273.940714 
L 405.818182 137.309143 
" style="fill:none;stroke:#4c72b0;stroke-linecap:round;"/>
   </g>
   <g id="line2d_54">
    <path clip-path="url(#p3210785bf1)" d="M 392.727273 465.490286 
L 418.909091 465.490286 
" style="fill:none;stroke:#000000;stroke-linecap:round;"/>
   </g>
   <g id="line2d_55">
    <path clip-path="url(#p3210785bf1)" d="M 392.727273 137.309143 
L 418.909091 137.309143 
" style="fill:none;stroke:#000000;stroke-linecap:round;"/>
   </g>
   <g id="line2d_56">
    <g clip-path="url(#p3210785bf1)">
     <use style="fill-opacity:0;" x="405.818182" xlink:href="#m3a83e26ce8" y="19.967143"/>
     <use style="fill-opacity:0;" x="405.818182" xlink:href="#m3a83e26ce8" y="-1"/>
     <use style="fill-opacity:0;" x="405.818182" xlink:href="#m3a83e26ce8" y="-1"/>
     <use style="fill-opacity:0;" x="405.818182" xlink:href="#m3a83e26ce8" y="123.03"/>
     <use style="fill-opacity:0;" x="405.818182" xlink:href="#m3a83e26ce8" y="-1"/>
     <use style="fill-opacity:0;" x="405.818182" xlink:href="#m3a83e26ce8" y="-1"/>
     <use style="fill-opacity:0;" x="405.818182" xlink:href="#m3a83e26ce8" y="125.390571"/>
     <use style="fill-opacity:0;" x="405.818182" xlink:href="#m3a83e26ce8" y="111.443143"/>
     <use style="fill-opacity:0;" x="405.818182" xlink:href="#m3a83e26ce8" y="70.488"/>
     <use style="fill-opacity:0;" x="405.818182" xlink:href="#m3a83e26ce8" y="119.527714"/>
     <use style="fill-opacity:0;" x="405.818182" xlink:href="#m3a83e26ce8" y="116.210571"/>
    </g>
   </g>
   <g id="line2d_57">
    <path clip-path="url(#p3210785bf1)" d="M 484.363636 367.966286 
L 536.727273 367.966286 
L 536.727273 315.651857 
L 484.363636 315.651857 
L 484.363636 367.966286 
" style="fill:none;stroke:#4c72b0;stroke-linecap:round;"/>
   </g>
   <g id="line2d_58">
    <path clip-path="url(#p3210785bf1)" d="M 510.545455 367.966286 
L 510.545455 444.715714 
" style="fill:none;stroke:#4c72b0;stroke-linecap:round;"/>
   </g>
   <g id="line2d_59">
    <path clip-path="url(#p3210785bf1)" d="M 510.545455 315.651857 
L 510.545455 241.428857 
" style="fill:none;stroke:#4c72b0;stroke-linecap:round;"/>
   </g>
   <g id="line2d_60">
    <path clip-path="url(#p3210785bf1)" d="M 497.454545 444.715714 
L 523.636364 444.715714 
" style="fill:none;stroke:#000000;stroke-linecap:round;"/>
   </g>
   <g id="line2d_61">
    <path clip-path="url(#p3210785bf1)" d="M 497.454545 241.428857 
L 523.636364 241.428857 
" style="fill:none;stroke:#000000;stroke-linecap:round;"/>
   </g>
   <g id="line2d_62">
    <g clip-path="url(#p3210785bf1)">
     <use style="fill-opacity:0;" x="510.545455" xlink:href="#m3a83e26ce8" y="450.324"/>
     <use style="fill-opacity:0;" x="510.545455" xlink:href="#m3a83e26ce8" y="185.778"/>
     <use style="fill-opacity:0;" x="510.545455" xlink:href="#m3a83e26ce8" y="136.476"/>
     <use style="fill-opacity:0;" x="510.545455" xlink:href="#m3a83e26ce8" y="172.764"/>
     <use style="fill-opacity:0;" x="510.545455" xlink:href="#m3a83e26ce8" y="233.784"/>
     <use style="fill-opacity:0;" x="510.545455" xlink:href="#m3a83e26ce8" y="235.465714"/>
     <use style="fill-opacity:0;" x="510.545455" xlink:href="#m3a83e26ce8" y="228.862286"/>
     <use style="fill-opacity:0;" x="510.545455" xlink:href="#m3a83e26ce8" y="142.917429"/>
     <use style="fill-opacity:0;" x="510.545455" xlink:href="#m3a83e26ce8" y="135.912857"/>
     <use style="fill-opacity:0;" x="510.545455" xlink:href="#m3a83e26ce8" y="207.771429"/>
     <use style="fill-opacity:0;" x="510.545455" xlink:href="#m3a83e26ce8" y="188.408571"/>
     <use style="fill-opacity:0;" x="510.545455" xlink:href="#m3a83e26ce8" y="14.034857"/>
     <use style="fill-opacity:0;" x="510.545455" xlink:href="#m3a83e26ce8" y="228.584571"/>
    </g>
   </g>
   <g id="line2d_63">
    <path clip-path="url(#p3210785bf1)" d="M 589.090909 364.168929 
L 641.454545 364.168929 
L 641.454545 314.139857 
L 589.090909 314.139857 
L 589.090909 364.168929 
" style="fill:none;stroke:#4c72b0;stroke-linecap:round;"/>
   </g>
   <g id="line2d_64">
    <path clip-path="url(#p3210785bf1)" d="M 615.272727 364.168929 
L 615.272727 415.794857 
" style="fill:none;stroke:#4c72b0;stroke-linecap:round;"/>
   </g>
   <g id="line2d_65">
    <path clip-path="url(#p3210785bf1)" d="M 615.272727 314.139857 
L 615.272727 247.484571 
" style="fill:none;stroke:#4c72b0;stroke-linecap:round;"/>
   </g>
   <g id="line2d_66">
    <path clip-path="url(#p3210785bf1)" d="M 602.181818 415.794857 
L 628.363636 415.794857 
" style="fill:none;stroke:#000000;stroke-linecap:round;"/>
   </g>
   <g id="line2d_67">
    <path clip-path="url(#p3210785bf1)" d="M 602.181818 247.484571 
L 628.363636 247.484571 
" style="fill:none;stroke:#000000;stroke-linecap:round;"/>
   </g>
   <g id="line2d_68">
    <g clip-path="url(#p3210785bf1)">
     <use style="fill-opacity:0;" x="615.272727" xlink:href="#m3a83e26ce8" y="219.69"/>
     <use style="fill-opacity:0;" x="615.272727" xlink:href="#m3a83e26ce8" y="93.160286"/>
     <use style="fill-opacity:0;" x="615.272727" xlink:href="#m3a83e26ce8" y="235.566"/>
     <use style="fill-opacity:0;" x="615.272727" xlink:href="#m3a83e26ce8" y="229.047429"/>
    </g>
   </g>
   <g id="line2d_69">
    <path clip-path="url(#p3210785bf1)" d="M 693.818182 361.524857 
L 746.181818 361.524857 
L 746.181818 309.679071 
L 693.818182 309.679071 
L 693.818182 361.524857 
" style="fill:none;stroke:#4c72b0;stroke-linecap:round;"/>
   </g>
   <g id="line2d_70">
    <path clip-path="url(#p3210785bf1)" d="M 720 361.524857 
L 720 430.691143 
" style="fill:none;stroke:#4c72b0;stroke-linecap:round;"/>
   </g>
   <g id="line2d_71">
    <path clip-path="url(#p3210785bf1)" d="M 720 309.679071 
L 720 235.542857 
" style="fill:none;stroke:#4c72b0;stroke-linecap:round;"/>
   </g>
   <g id="line2d_72">
    <path clip-path="url(#p3210785bf1)" d="M 706.909091 430.691143 
L 733.090909 430.691143 
" style="fill:none;stroke:#000000;stroke-linecap:round;"/>
   </g>
   <g id="line2d_73">
    <path clip-path="url(#p3210785bf1)" d="M 706.909091 235.542857 
L 733.090909 235.542857 
" style="fill:none;stroke:#000000;stroke-linecap:round;"/>
   </g>
   <g id="line2d_74">
    <g clip-path="url(#p3210785bf1)">
     <use style="fill-opacity:0;" x="720" xlink:href="#m3a83e26ce8" y="191.988"/>
     <use style="fill-opacity:0;" x="720" xlink:href="#m3a83e26ce8" y="203.891143"/>
    </g>
   </g>
   <g id="line2d_75">
    <path clip-path="url(#p3210785bf1)" d="M 798.545455 359.278071 
L 850.909091 359.278071 
L 850.909091 308.500714 
L 798.545455 308.500714 
L 798.545455 359.278071 
" style="fill:none;stroke:#4c72b0;stroke-linecap:round;"/>
   </g>
   <g id="line2d_76">
    <path clip-path="url(#p3210785bf1)" d="M 824.727273 359.278071 
L 824.727273 431.046 
" style="fill:none;stroke:#4c72b0;stroke-linecap:round;"/>
   </g>
   <g id="line2d_77">
    <path clip-path="url(#p3210785bf1)" d="M 824.727273 308.500714 
L 824.727273 235.481143 
" style="fill:none;stroke:#4c72b0;stroke-linecap:round;"/>
   </g>
   <g id="line2d_78">
    <path clip-path="url(#p3210785bf1)" d="M 811.636364 431.046 
L 837.818182 431.046 
" style="fill:none;stroke:#000000;stroke-linecap:round;"/>
   </g>
   <g id="line2d_79">
    <path clip-path="url(#p3210785bf1)" d="M 811.636364 235.481143 
L 837.818182 235.481143 
" style="fill:none;stroke:#000000;stroke-linecap:round;"/>
   </g>
   <g id="line2d_80">
    <g clip-path="url(#p3210785bf1)">
     <use style="fill-opacity:0;" x="824.727273" xlink:href="#m3a83e26ce8" y="227.327143"/>
    </g>
   </g>
   <g id="line2d_81">
    <path clip-path="url(#p3210785bf1)" d="M 903.272727 359.557714 
L 955.636364 359.557714 
L 955.636364 302.130643 
L 903.272727 302.130643 
L 903.272727 359.557714 
" style="fill:none;stroke:#4c72b0;stroke-linecap:round;"/>
   </g>
   <g id="line2d_82">
    <path clip-path="url(#p3210785bf1)" d="M 929.454545 359.557714 
L 929.454545 434.355429 
" style="fill:none;stroke:#4c72b0;stroke-linecap:round;"/>
   </g>
   <g id="line2d_83">
    <path clip-path="url(#p3210785bf1)" d="M 929.454545 302.130643 
L 929.454545 218.995714 
" style="fill:none;stroke:#4c72b0;stroke-linecap:round;"/>
   </g>
   <g id="line2d_84">
    <path clip-path="url(#p3210785bf1)" d="M 916.363636 434.355429 
L 942.545455 434.355429 
" style="fill:none;stroke:#000000;stroke-linecap:round;"/>
   </g>
   <g id="line2d_85">
    <path clip-path="url(#p3210785bf1)" d="M 916.363636 218.995714 
L 942.545455 218.995714 
" style="fill:none;stroke:#000000;stroke-linecap:round;"/>
   </g>
   <g id="line2d_86">
    <g clip-path="url(#p3210785bf1)">
     <use style="fill-opacity:0;" x="929.454545" xlink:href="#m3a83e26ce8" y="447.03"/>
     <use style="fill-opacity:0;" x="929.454545" xlink:href="#m3a83e26ce8" y="447.647143"/>
     <use style="fill-opacity:0;" x="929.454545" xlink:href="#m3a83e26ce8" y="448.202571"/>
     <use style="fill-opacity:0;" x="929.454545" xlink:href="#m3a83e26ce8" y="89.233714"/>
     <use style="fill-opacity:0;" x="929.454545" xlink:href="#m3a83e26ce8" y="200.427429"/>
    </g>
   </g>
   <g id="line2d_87">
    <path clip-path="url(#p3210785bf1)" d="M 1008 355.366929 
L 1060.363636 355.366929 
L 1060.363636 280.492071 
L 1008 280.492071 
L 1008 355.366929 
" style="fill:none;stroke:#4c72b0;stroke-linecap:round;"/>
   </g>
   <g id="line2d_88">
    <path clip-path="url(#p3210785bf1)" d="M 1034.181818 355.366929 
L 1034.181818 418.255714 
" style="fill:none;stroke:#4c72b0;stroke-linecap:round;"/>
   </g>
   <g id="line2d_89">
    <path clip-path="url(#p3210785bf1)" d="M 1034.181818 280.492071 
L 1034.181818 176.667429 
" style="fill:none;stroke:#4c72b0;stroke-linecap:round;"/>
   </g>
   <g id="line2d_90">
    <path clip-path="url(#p3210785bf1)" d="M 1021.090909 418.255714 
L 1047.272727 418.255714 
" style="fill:none;stroke:#000000;stroke-linecap:round;"/>
   </g>
   <g id="line2d_91">
    <path clip-path="url(#p3210785bf1)" d="M 1021.090909 176.667429 
L 1047.272727 176.667429 
" style="fill:none;stroke:#000000;stroke-linecap:round;"/>
   </g>
   <g id="line2d_92">
    <g clip-path="url(#p3210785bf1)">
     <use style="fill-opacity:0;" x="1034.181818" xlink:href="#m3a83e26ce8" y="98.830286"/>
     <use style="fill-opacity:0;" x="1034.181818" xlink:href="#m3a83e26ce8" y="156.355714"/>
     <use style="fill-opacity:0;" x="1034.181818" xlink:href="#m3a83e26ce8" y="74.414571"/>
    </g>
   </g>
   <g id="line2d_93">
    <path clip-path="url(#p3210785bf1)" d="M 1112.727273 353.035286 
L 1165.090909 353.035286 
L 1165.090909 279.560571 
L 1112.727273 279.560571 
L 1112.727273 353.035286 
" style="fill:none;stroke:#4c72b0;stroke-linecap:round;"/>
   </g>
   <g id="line2d_94">
    <path clip-path="url(#p3210785bf1)" d="M 1138.909091 353.035286 
L 1138.909091 440.681143 
" style="fill:none;stroke:#4c72b0;stroke-linecap:round;"/>
   </g>
   <g id="line2d_95">
    <path clip-path="url(#p3210785bf1)" d="M 1138.909091 279.560571 
L 1138.909091 175.764857 
" style="fill:none;stroke:#4c72b0;stroke-linecap:round;"/>
   </g>
   <g id="line2d_96">
    <path clip-path="url(#p3210785bf1)" d="M 1125.818182 440.681143 
L 1152 440.681143 
" style="fill:none;stroke:#000000;stroke-linecap:round;"/>
   </g>
   <g id="line2d_97">
    <path clip-path="url(#p3210785bf1)" d="M 1125.818182 175.764857 
L 1152 175.764857 
" style="fill:none;stroke:#000000;stroke-linecap:round;"/>
   </g>
   <g id="line2d_98">
    <g clip-path="url(#p3210785bf1)">
     <use style="fill-opacity:0;" x="1138.909091" xlink:href="#m3a83e26ce8" y="118.023429"/>
     <use style="fill-opacity:0;" x="1138.909091" xlink:href="#m3a83e26ce8" y="67.178571"/>
     <use style="fill-opacity:0;" x="1138.909091" xlink:href="#m3a83e26ce8" y="72.478286"/>
     <use style="fill-opacity:0;" x="1138.909091" xlink:href="#m3a83e26ce8" y="145.779429"/>
     <use style="fill-opacity:0;" x="1138.909091" xlink:href="#m3a83e26ce8" y="141.112286"/>
     <use style="fill-opacity:0;" x="1138.909091" xlink:href="#m3a83e26ce8" y="69.438857"/>
     <use style="fill-opacity:0;" x="1138.909091" xlink:href="#m3a83e26ce8" y="87.143143"/>
     <use style="fill-opacity:0;" x="1138.909091" xlink:href="#m3a83e26ce8" y="159.696"/>
     <use style="fill-opacity:0;" x="1138.909091" xlink:href="#m3a83e26ce8" y="143.658"/>
    </g>
   </g>
   <g id="line2d_99">
    <path clip-path="url(#p3210785bf1)" d="M 1217.454545 344.975786 
L 1269.818182 344.975786 
L 1269.818182 262.166786 
L 1217.454545 262.166786 
L 1217.454545 344.975786 
" style="fill:none;stroke:#4c72b0;stroke-linecap:round;"/>
   </g>
   <g id="line2d_100">
    <path clip-path="url(#p3210785bf1)" d="M 1243.636364 344.975786 
L 1243.636364 446.004 
" style="fill:none;stroke:#4c72b0;stroke-linecap:round;"/>
   </g>
   <g id="line2d_101">
    <path clip-path="url(#p3210785bf1)" d="M 1243.636364 262.166786 
L 1243.636364 141.243429 
" style="fill:none;stroke:#4c72b0;stroke-linecap:round;"/>
   </g>
   <g id="line2d_102">
    <path clip-path="url(#p3210785bf1)" d="M 1230.545455 446.004 
L 1256.727273 446.004 
" style="fill:none;stroke:#000000;stroke-linecap:round;"/>
   </g>
   <g id="line2d_103">
    <path clip-path="url(#p3210785bf1)" d="M 1230.545455 141.243429 
L 1256.727273 141.243429 
" style="fill:none;stroke:#000000;stroke-linecap:round;"/>
   </g>
   <g id="line2d_104">
    <g clip-path="url(#p3210785bf1)">
     <use style="fill-opacity:0;" x="1243.636364" xlink:href="#m3a83e26ce8" y="112.469143"/>
     <use style="fill-opacity:0;" x="1243.636364" xlink:href="#m3a83e26ce8" y="63.776571"/>
     <use style="fill-opacity:0;" x="1243.636364" xlink:href="#m3a83e26ce8" y="-1"/>
     <use style="fill-opacity:0;" x="1243.636364" xlink:href="#m3a83e26ce8" y="-1"/>
     <use style="fill-opacity:0;" x="1243.636364" xlink:href="#m3a83e26ce8" y="120.175714"/>
     <use style="fill-opacity:0;" x="1243.636364" xlink:href="#m3a83e26ce8" y="47.445429"/>
     <use style="fill-opacity:0;" x="1243.636364" xlink:href="#m3a83e26ce8" y="132.202286"/>
     <use style="fill-opacity:0;" x="1243.636364" xlink:href="#m3a83e26ce8" y="112.476857"/>
     <use style="fill-opacity:0;" x="1243.636364" xlink:href="#m3a83e26ce8" y="121.795714"/>
     <use style="fill-opacity:0;" x="1243.636364" xlink:href="#m3a83e26ce8" y="-1"/>
     <use style="fill-opacity:0;" x="1243.636364" xlink:href="#m3a83e26ce8" y="-1"/>
     <use style="fill-opacity:0;" x="1243.636364" xlink:href="#m3a83e26ce8" y="69.423429"/>
    </g>
   </g>
   <g id="line2d_105">
    <path clip-path="url(#p3210785bf1)" d="M 170.181818 339.620143 
L 222.545455 339.620143 
" style="fill:none;stroke:#c44e52;stroke-linecap:round;"/>
   </g>
   <g id="line2d_106">
    <path clip-path="url(#p3210785bf1)" d="M 274.909091 320.774143 
L 327.272727 320.774143 
" style="fill:none;stroke:#c44e52;stroke-linecap:round;"/>
   </g>
   <g id="line2d_107">
    <path clip-path="url(#p3210785bf1)" d="M 379.636364 323.204143 
L 432 323.204143 
" style="fill:none;stroke:#c44e52;stroke-linecap:round;"/>
   </g>
   <g id="line2d_108">
    <path clip-path="url(#p3210785bf1)" d="M 484.363636 351.291857 
L 536.727273 351.291857 
" style="fill:none;stroke:#c44e52;stroke-linecap:round;"/>
   </g>
   <g id="line2d_109">
    <path clip-path="url(#p3210785bf1)" d="M 589.090909 350.867571 
L 641.454545 350.867571 
" style="fill:none;stroke:#c44e52;stroke-linecap:round;"/>
   </g>
   <g id="line2d_110">
    <path clip-path="url(#p3210785bf1)" d="M 693.818182 348.345 
L 746.181818 348.345 
" style="fill:none;stroke:#c44e52;stroke-linecap:round;"/>
   </g>
   <g id="line2d_111">
    <path clip-path="url(#p3210785bf1)" d="M 798.545455 347.646857 
L 850.909091 347.646857 
" style="fill:none;stroke:#c44e52;stroke-linecap:round;"/>
   </g>
   <g id="line2d_112">
    <path clip-path="url(#p3210785bf1)" d="M 903.272727 342.686571 
L 955.636364 342.686571 
" style="fill:none;stroke:#c44e52;stroke-linecap:round;"/>
   </g>
   <g id="line2d_113">
    <path clip-path="url(#p3210785bf1)" d="M 1008 336.611571 
L 1060.363636 336.611571 
" style="fill:none;stroke:#c44e52;stroke-linecap:round;"/>
   </g>
   <g id="line2d_114">
    <path clip-path="url(#p3210785bf1)" d="M 1112.727273 330.849 
L 1165.090909 330.849 
" style="fill:none;stroke:#c44e52;stroke-linecap:round;"/>
   </g>
   <g id="line2d_115">
    <path clip-path="url(#p3210785bf1)" d="M 1217.454545 311.069571 
L 1269.818182 311.069571 
" style="fill:none;stroke:#c44e52;stroke-linecap:round;"/>
   </g>
   <g id="patch_3">
    <path d="M 144 612 
L 144 72 
" style="fill:none;"/>
   </g>
   <g id="patch_4">
    <path d="M 1296 612 
L 1296 72 
" style="fill:none;"/>
   </g>
   <g id="patch_5">
    <path d="M 144 612 
L 1296 612 
" style="fill:none;"/>
   </g>
   <g id="patch_6">
    <path d="M 144 72 
L 1296 72 
" style="fill:none;"/>
   </g>
  </g>
 </g>
 <defs>
  <clipPath id="p3210785bf1">
   <rect height="540" width="1152" x="144" y="72"/>
  </clipPath>
 </defs>
</svg>
